<svg width="63" height="63" viewBox="0 0 63 63" fill="none" xmlns="http://www.w3.org/2000/svg">
<g clip-path="url(#clip0_31_2488)">
<path d="M40.9298 55.4791L11.9109 34.4808C10.6104 33.5397 10.3191 31.7231 11.2602 30.4226L24.2657 12.4494C25.2068 11.1489 27.0234 10.8576 28.3239 11.7987L57.3428 32.797C58.6433 33.7381 58.9346 35.5547 57.9936 36.8552L44.9881 54.8284C44.0476 56.1288 42.2304 56.4202 40.9298 55.4791Z" fill="#EFEDEF"/>
<path d="M44.0732 32.9285C43.8277 30.437 41.4179 28.4059 38.0428 28.9186C37.4745 25.5523 34.7917 23.8985 32.3483 24.4443C29.7493 25.0254 28.1681 28.475 28.3068 32.2473C28.3769 34.1594 29.295 37.854 30.1884 39.773C32.2904 40.021 36.0868 39.7379 37.9251 39.2072C41.5516 38.1594 44.3345 35.5788 44.0732 32.9285Z" fill="#FE93D3"/>
<path d="M10.1555 32.6811C10.0133 31.7944 10.2082 30.8542 10.7751 30.0715L23.7801 12.099C24.3291 11.3404 25.1403 10.841 26.0649 10.6927C26.9894 10.5445 27.9162 10.7651 28.6748 11.3141L57.6938 32.313C58.4524 32.8614 58.9517 33.6727 59.1 34.5972C59.2481 35.5212 59.0275 36.4479 58.4786 37.2072L45.473 55.1797C44.3403 56.745 42.1442 57.0972 40.5789 55.9645L11.5599 34.9656C10.7766 34.3993 10.2976 33.5672 10.1555 32.6811ZM57.9177 34.7868C57.8201 34.1785 57.4913 33.6443 56.9919 33.2824L27.9724 12.2841C27.4724 11.9229 26.8628 11.7775 26.2539 11.8751C25.645 11.9728 25.1114 12.3015 24.7494 12.801L11.7445 30.774C10.9991 31.8049 11.2309 33.2502 12.2612 33.9963L41.2802 54.9953C42.3112 55.7413 43.7566 55.5095 44.5026 54.4785L57.5087 36.5053C57.8699 36.0054 58.0153 35.3957 57.9177 34.7868ZM40.9298 55.4795L40.9307 55.4854L40.9298 55.4795Z" fill="#3F3F3F"/>
<path d="M27.8815 33.8565C27.7866 33.2647 27.7257 32.7221 27.7094 32.2687C27.5524 28.0149 29.4489 24.4783 32.2183 23.8596C33.5476 23.5622 34.9184 23.8293 36.0797 24.6095C37.2805 25.4163 38.1334 26.7002 38.5184 28.2616C40.1219 28.1391 41.6076 28.5479 42.7493 29.4362C43.8535 30.2948 44.5355 31.5151 44.669 32.8696C44.9472 35.6936 42.1809 38.6008 38.0913 39.7817C36.1627 40.3389 32.2883 40.6237 30.1177 40.3672C29.9118 40.3426 29.7329 40.2137 29.6457 40.0257C28.9322 38.4915 28.207 35.8859 27.8815 33.8565ZM43.4482 32.7627C43.2983 31.8275 42.795 30.9878 42.0136 30.3806C41.0002 29.593 39.6221 29.2834 38.1327 29.5095C37.8096 29.5589 37.507 29.3394 37.4523 29.0171C37.2013 27.5312 36.4763 26.3189 35.4113 25.6026C34.5258 25.0073 33.4841 24.8032 32.4789 25.0275C30.3084 25.5126 28.772 28.6064 28.9053 32.2243C28.9697 33.9724 29.7836 37.3048 30.5945 39.2115C32.659 39.3849 36.0783 39.1167 37.7594 38.6313C41.2377 37.6266 43.696 35.2 43.4781 32.9865C43.4697 32.9115 43.4601 32.8366 43.4482 32.7627Z" fill="#3F3F3F"/>
<path d="M30.6575 28.8022C30.6428 28.7105 30.6491 28.6137 30.6807 28.5195C31.0743 27.3322 31.8354 26.5317 32.7679 26.3233C33.7836 26.0968 34.8308 26.4903 35.5012 27.3512C35.7044 27.6121 35.6574 27.9883 35.397 28.1913C35.1362 28.395 34.76 28.348 34.5569 28.0871C34.1736 27.595 33.5877 27.367 33.0286 27.4918C32.5164 27.6061 32.0753 28.1182 31.8168 28.8964C31.7131 29.2101 31.3742 29.3803 31.0603 29.276C30.8407 29.2033 30.6917 29.0156 30.6575 28.8022Z" fill="#3F3F3F"/>
<path d="M42.5811 35.9348C42.5786 35.9194 42.5766 35.9033 42.5753 35.8878C42.5485 35.558 42.7939 35.2694 43.1237 35.2426L58.4419 34.002C58.7711 33.9753 59.0588 34.2268 59.0871 34.5504C59.1139 34.8802 58.8685 35.1687 58.5387 35.1955L43.2205 36.4362C42.9069 36.4616 42.6301 36.2404 42.5811 35.9348Z" fill="#3F3F3F"/>
<path d="M25.6958 11.5027C25.6468 11.1971 25.84 10.9006 26.1465 10.8266C26.4681 10.7489 26.7914 10.9463 26.8691 11.2679L30.4472 26.0718C30.5289 26.3922 30.3274 26.7168 30.0058 26.7944C29.6842 26.8721 29.3608 26.6747 29.2832 26.3531L25.7052 11.5497C25.7014 11.534 25.6983 11.5181 25.6958 11.5027Z" fill="#3F3F3F"/>
<path d="M36.1784 39.5601C36.134 39.2829 36.29 39.0044 36.5632 38.9042C36.8735 38.7901 37.2173 38.949 37.332 39.2593L43.4199 55.8145C43.5369 56.1286 43.375 56.4687 43.0647 56.5833C42.7545 56.6979 42.4106 56.5384 42.2959 56.2282L36.208 39.673C36.1941 39.6352 36.1845 39.5979 36.1784 39.5601Z" fill="#3F3F3F"/>
<path d="M10.2028 32.9152C10.1968 32.8779 10.1942 32.8389 10.1957 32.7993C10.207 32.4688 10.4845 32.2103 10.8149 32.2216L28.4436 32.8279C28.7734 32.8392 29.0324 33.1118 29.0213 33.4471C29.01 33.7775 28.7326 34.0367 28.4021 34.0248L10.7727 33.418C10.4825 33.4081 10.2472 33.1924 10.2028 32.9152Z" fill="#3F3F3F"/>
<path d="M0.498505 9.4659C0.474237 9.31457 0.507902 9.15395 0.604691 9.02019C0.798766 8.75198 1.17237 8.69207 1.44058 8.88615L14.2835 18.1794C14.5517 18.3735 14.6116 18.7471 14.4176 19.0153C14.2235 19.2835 13.8499 19.3434 13.5817 19.1493L0.73873 9.85607C0.604971 9.75928 0.522772 9.61724 0.498505 9.4659Z" fill="#3F3F3F"/>
<path d="M8.95158 8.32752C8.92731 8.17619 8.96098 8.01556 9.05777 7.8818C9.25184 7.6136 9.62544 7.55369 9.89365 7.74776L17.7286 13.4177C17.9968 13.6118 18.0567 13.9854 17.8626 14.2536C17.6686 14.5218 17.295 14.5817 17.0268 14.3877L9.19181 8.71769C9.05805 8.6209 8.97584 8.47886 8.95158 8.32752Z" fill="#3F3F3F"/>
<path d="M2.06022 17.8514C2.03595 17.7001 2.06962 17.5395 2.16641 17.4057C2.36048 17.1375 2.73409 17.0776 3.00229 17.2717L10.8372 22.9411C11.1054 23.1351 11.1653 23.5087 10.9712 23.7769C10.7771 24.0452 10.4035 24.1051 10.1353 23.911L2.30044 18.2416C2.16669 18.1448 2.08449 18.0028 2.06022 17.8514Z" fill="#3F3F3F"/>
</g>
<defs>
<clipPath id="clip0_31_2488">
<rect width="54.5437" height="54.5437" fill="white" transform="translate(53.8557) rotate(80.8898)"/>
</clipPath>
</defs>
</svg>
