<svg width="30" height="30" viewBox="0 0 30 30" fill="none" xmlns="http://www.w3.org/2000/svg">
<g clip-path="url(#clip0_4_16)">
<path d="M30.0876 8.98592C30.0146 7.38866 29.7609 6.29792 29.3901 5.34357C29.0132 4.3422 28.4227 3.4352 27.6594 2.68559C26.9101 1.92231 26.0028 1.33109 25.0014 0.954283C24.0471 0.583813 22.9563 0.330386 21.3591 0.257692C19.7588 0.184665 19.2476 0.166992 15.1725 0.166992C11.0973 0.166992 10.5861 0.184665 8.98585 0.257359C7.3886 0.330386 6.29786 0.584146 5.34351 0.95495C4.34214 1.33176 3.43514 1.92231 2.68553 2.68559C1.92225 3.43487 1.33103 4.34187 0.954222 5.34324C0.583752 6.29792 0.330325 7.38866 0.257631 8.98558C0.184271 10.5862 0.166931 11.0974 0.166931 15.1725C0.166931 19.248 0.184271 19.7592 0.257631 21.3595C0.330325 22.9564 0.584085 24.0475 0.955222 25.0018C1.33203 26.0029 1.92258 26.9102 2.68586 27.6595C3.43514 28.4228 4.34247 29.0136 5.34384 29.3901C6.29819 29.7613 7.38893 30.0147 8.98619 30.0877C10.5864 30.1607 11.0976 30.1781 15.1728 30.1781C19.248 30.1781 19.7592 30.1611 21.3594 30.0877C22.9567 30.0147 24.0474 29.7613 25.0018 29.3901C27.0175 28.6108 28.6108 27.0172 29.3901 25.0018C29.7612 24.0471 30.0146 22.9564 30.0876 21.3595C30.1607 19.7589 30.178 19.2477 30.178 15.1725C30.178 11.0974 30.1607 10.5862 30.0876 8.98592ZM27.3866 21.2364C27.32 22.6996 27.0755 23.4939 26.8701 24.0228C26.3653 25.3316 25.3309 26.3657 24.0224 26.8705C23.4939 27.0759 22.6992 27.3204 21.236 27.387C19.6541 27.4594 19.1793 27.4744 15.1725 27.4744C11.1653 27.4744 10.6908 27.4594 9.1089 27.387C7.64603 27.3204 6.8514 27.0759 6.32254 26.8705C5.67096 26.6298 5.08141 26.2463 4.59723 25.7478C4.09872 25.2636 3.71524 24.6744 3.47449 24.0225C3.26908 23.4939 3.02465 22.6993 2.95796 21.2361C2.88594 19.6539 2.8706 19.1793 2.8706 15.1725C2.8706 11.1657 2.88594 10.6912 2.95796 9.10896C3.02499 7.64575 3.26908 6.85146 3.47449 6.3226C3.71524 5.67069 4.09872 5.08114 4.59723 4.59696C5.08141 4.09844 5.67096 3.71497 6.32287 3.47455C6.8514 3.2688 7.64603 3.02471 9.10923 2.95769C10.6911 2.886 11.1657 2.87066 15.1725 2.87066H15.1721C19.179 2.87066 19.6535 2.886 21.2357 2.95836C22.6989 3.02505 23.4932 3.26947 24.0221 3.47488C24.6736 3.71564 25.2632 4.09911 25.7474 4.59729C26.2459 5.08147 26.6294 5.67102 26.8698 6.32293C27.0755 6.85146 27.32 7.64609 27.3866 9.10929C27.4587 10.6915 27.474 11.1661 27.474 15.1729C27.474 19.1797 27.459 19.6539 27.3866 21.2364Z" fill="url(#paint0_linear_4_16)"/>
<path d="M15.1721 7.4668C10.9166 7.4668 7.46661 10.9167 7.46661 15.1723C7.46661 19.4279 10.9166 22.8778 15.1721 22.8778C19.428 22.8778 22.8776 19.4279 22.8776 15.1723C22.8776 10.9167 19.428 7.4668 15.1721 7.4668ZM15.1721 20.1742C12.4101 20.1738 10.1706 17.9347 10.1706 15.1723C10.1706 12.41 12.4098 10.1705 15.1725 10.1705C17.9348 10.1708 20.1743 12.41 20.1743 15.1723C20.1743 17.9347 17.9348 20.1742 15.1721 20.1742Z" fill="url(#paint1_linear_4_16)"/>
<path d="M24.9831 7.16248C24.9831 8.15685 24.1768 8.96315 23.1824 8.96315C22.1877 8.96315 21.3818 8.15685 21.3818 7.16248C21.3818 6.16778 22.1881 5.36182 23.1824 5.36182C24.1768 5.36182 24.9831 6.16811 24.9831 7.16248Z" fill="url(#paint2_linear_4_16)"/>
</g>
<defs>
<linearGradient id="paint0_linear_4_16" x1="2.68546" y1="27.6594" x2="27.6595" y2="2.68542" gradientUnits="userSpaceOnUse">
<stop stop-color="#FFD600"/>
<stop offset="0.5" stop-color="#FF0100"/>
<stop offset="1" stop-color="#D800B9"/>
</linearGradient>
<linearGradient id="paint1_linear_4_16" x1="9.72371" y1="20.621" x2="20.6209" y2="9.72373" gradientUnits="userSpaceOnUse">
<stop stop-color="#FF6400"/>
<stop offset="0.5" stop-color="#FF0100"/>
<stop offset="1" stop-color="#FD0056"/>
</linearGradient>
<linearGradient id="paint2_linear_4_16" x1="21.909" y1="8.43582" x2="24.4556" y2="5.88921" gradientUnits="userSpaceOnUse">
<stop stop-color="#F30072"/>
<stop offset="1" stop-color="#E50097"/>
</linearGradient>
<clipPath id="clip0_4_16">
<rect width="30" height="30" fill="white"/>
</clipPath>
</defs>
</svg>
