<svg width="32" height="32" viewBox="0 0 32 32" fill="none" xmlns="http://www.w3.org/2000/svg">
<path d="M29.0229 25.205H9.56404C8.03926 25.205 6.79865 23.9644 6.79865 22.4396V18.8709C6.79865 18.5801 7.03433 18.3441 7.32552 18.3441C7.61671 18.3441 7.8524 18.5801 7.8524 18.8709V22.4396C7.8524 23.3834 8.62023 24.1513 9.56404 24.1513H29.0229C29.9667 24.1513 30.7346 23.3831 30.7346 22.4396V9.52418C30.7346 8.58037 29.9664 7.81254 29.0229 7.81254H9.56404C8.62023 7.81254 7.8524 8.58037 7.8524 9.52418V13.05C7.8524 13.3412 7.61671 13.5769 7.32552 13.5769C7.03433 13.5769 6.79865 13.3412 6.79865 13.05V9.52418C6.79865 7.9994 8.03926 6.75879 9.56404 6.75879H29.0229C30.5477 6.75879 31.7883 7.9994 31.7883 9.52418V22.4396C31.7883 23.9644 30.5477 25.205 29.0229 25.205Z" fill="#194F92"/>
<path d="M22.5617 15.9819L28.4367 10.5923C28.6509 10.3956 28.6653 10.0623 28.469 9.84769C28.2723 9.63343 27.9393 9.61938 27.7247 9.81573L19.2933 17.5506L10.8626 9.81573C10.648 9.61938 10.315 9.63343 10.1179 9.84769C9.92123 10.062 9.93563 10.3956 10.1499 10.5923L16.0249 15.9819L10.1499 21.3718C9.93563 21.5689 9.92123 21.9019 10.1179 22.1161C10.2219 22.2296 10.3638 22.2869 10.5064 22.2869C10.6336 22.2869 10.7614 22.2408 10.8626 22.1481L16.8043 16.6967L18.9371 18.6535C19.0376 18.7459 19.1654 18.7923 19.2933 18.7923C19.4211 18.7923 19.549 18.7459 19.6495 18.6535L21.7826 16.6967L27.7247 22.1481C27.8258 22.2408 27.9534 22.2869 28.0809 22.2869C28.2231 22.2869 28.3654 22.2296 28.469 22.1161C28.6657 21.9019 28.6513 21.5685 28.4367 21.3718L22.5617 15.9819Z" fill="#194F92"/>
<path d="M9.10563 16.5088H2.82387C2.53269 16.5088 2.297 16.2731 2.297 15.982C2.297 15.6908 2.53269 15.4551 2.82387 15.4551H9.10598C9.39716 15.4551 9.63285 15.6908 9.63285 15.982C9.63285 16.2731 9.39681 16.5088 9.10563 16.5088Z" fill="#194F92"/>
<path d="M4.56538 12.8262H0.702687C0.411501 12.8262 0.175812 12.5905 0.175812 12.2993C0.175812 12.0081 0.411501 11.7725 0.702687 11.7725H4.56538C4.85657 11.7725 5.09226 12.0081 5.09226 12.2993C5.09226 12.5905 4.85657 12.8262 4.56538 12.8262Z" fill="#194F92"/>
<path d="M4.56538 20.1914H1.7192C1.42801 20.1914 1.19232 19.9554 1.19232 19.6646C1.19232 19.3737 1.42801 19.1377 1.7192 19.1377H4.56573C4.85691 19.1377 5.0926 19.3737 5.0926 19.6646C5.0926 19.9554 4.85656 20.1914 4.56538 20.1914Z" fill="#194F92"/>
</svg>
