<svg width="34" height="21" viewBox="0 0 34 21" fill="none" xmlns="http://www.w3.org/2000/svg">
<g opacity="0.6" clip-path="url(#clip0_110_806)">
<path d="M13.8583 2.61528C13.8418 2.59661 13.8251 2.58072 13.8087 2.56129C12.3528 0.985846 10.2741 0 7.96346 0C4.47253 0 1.50547 2.25235 0.430713 5.38665C0.151383 6.20023 0 7.07408 0 7.98299C0 10.2872 0.975097 12.3651 2.53257 13.8217C2.53445 13.8238 2.53661 13.8257 2.53849 13.8257C3.95885 15.1546 5.86784 15.966 7.96346 15.966C8.06076 15.966 8.15826 15.9639 8.25308 15.9598C7.75631 17.7599 6.14124 19.4246 3.40611 20.9584C3.68975 20.9854 3.97366 21 4.25703 21C7.37119 21 10.1521 19.7233 12.6014 17.1682C15.0488 14.6132 16.2745 11.79 16.2745 8.69723C16.2745 6.34332 15.469 4.31516 13.8583 2.61528Z" fill="#194F92"/>
<path d="M31.5838 2.61528C31.5668 2.59661 31.5504 2.58072 31.5339 2.56129C30.0783 0.985846 27.9993 0 25.6887 0C22.1977 0 19.2307 2.25235 18.1562 5.38665C17.8763 6.20023 17.7255 7.07408 17.7255 7.98299C17.7255 10.2872 18.7006 12.3651 20.2576 13.8217C20.2597 13.8238 20.2621 13.8257 20.264 13.8257C21.6844 15.1546 23.5934 15.966 25.6887 15.966C25.7859 15.966 25.8832 15.9639 25.9785 15.9598C25.4816 17.7599 23.8667 19.4246 21.1313 20.9584C21.4153 20.9854 21.6986 21 21.9825 21C25.0964 21 27.8773 19.7233 30.3266 17.1682C32.7743 14.6132 34 11.79 34 8.69723C34 6.34332 33.1946 4.31516 31.5838 2.61528Z" fill="#194F92"/>
</g>
<defs>
<clipPath id="clip0_110_806">
<rect width="34" height="21" fill="white"/>
</clipPath>
</defs>
</svg>
