<svg width="139" height="24" viewBox="0 0 139 24" fill="none" xmlns="http://www.w3.org/2000/svg">
<g clip-path="url(#clip0_110_836)">
<path d="M12.0506 0.225365L15.379 7.47801C15.4338 7.59734 15.5396 7.68006 15.6621 7.69918L23.1047 8.8622C23.413 8.91041 23.5362 9.31789 23.313 9.55177L17.9275 15.1972C17.8389 15.2901 17.7985 15.4239 17.8194 15.555L19.0907 23.5265C19.1434 23.8567 18.8211 24.1086 18.5453 23.9527L11.8884 20.189C11.7789 20.1271 11.6481 20.1271 11.5386 20.189L4.88168 23.9527C4.60588 24.1086 4.28355 23.8567 4.33622 23.5265L5.60756 15.555C5.62847 15.4239 5.58804 15.2901 5.49944 15.1972L0.113936 9.55177C-0.109188 9.31789 0.0139452 8.91041 0.322294 8.8622L7.76487 7.69918C7.88732 7.68006 7.99317 7.59734 8.04794 7.47801L11.3764 0.225365C11.5142 -0.0751228 11.9127 -0.0751228 12.0506 0.225365Z" fill="#F3CC30"/>
<path d="M11.7135 1.90063L8.7474 8.07901C8.59178 8.40313 8.29316 8.61937 7.95542 8.6525L1.51538 9.28471L8.31943 9.62688C8.75158 9.6486 9.14707 9.36693 9.29708 8.93055L11.7135 1.90063Z" fill="#F7DB5E"/>
<path d="M4.48249 22.6092L4.33621 23.5265C4.28353 23.8567 4.60587 24.1086 4.88167 23.9527L11.5386 20.189C11.6481 20.1271 11.7789 20.1271 11.8884 20.189L18.5453 23.9527C18.8211 24.1086 19.1434 23.8567 19.0907 23.5265L17.8194 15.555C17.7985 15.4239 17.8389 15.2901 17.9275 15.1972L23.313 9.55177C23.5361 9.31789 23.413 8.91041 23.1047 8.8622L20.6118 8.47266C16.5799 16.2541 10.4059 20.351 4.48249 22.6092Z" fill="#EDBD31"/>
</g>
<g clip-path="url(#clip1_110_836)">
<path d="M40.9438 0.225365L44.2723 7.47801C44.327 7.59734 44.4329 7.68006 44.5553 7.69918L51.9979 8.8622C52.3063 8.91041 52.4294 9.31789 52.2063 9.55177L46.8208 15.1972C46.7321 15.2901 46.6917 15.4239 46.7127 15.555L47.984 23.5265C48.0367 23.8567 47.7143 24.1086 47.4385 23.9527L40.7817 20.189C40.6721 20.1271 40.5413 20.1271 40.4318 20.189L33.7749 23.9527C33.4991 24.1086 33.1768 23.8567 33.2295 23.5265L34.5008 15.555C34.5217 15.4239 34.4813 15.2901 34.3927 15.1972L29.0072 9.55177C28.7841 9.31789 28.9072 8.91041 29.2155 8.8622L36.6581 7.69918C36.7806 7.68006 36.8864 7.59734 36.9412 7.47801L40.2696 0.225365C40.4075 -0.0751228 40.8059 -0.0751228 40.9438 0.225365Z" fill="#F3CC30"/>
<path d="M40.6067 1.90063L37.6406 8.07901C37.485 8.40313 37.1864 8.61937 36.8487 8.6525L30.4086 9.28471L37.2127 9.62688C37.6448 9.6486 38.0403 9.36693 38.1903 8.93055L40.6067 1.90063Z" fill="#F7DB5E"/>
<path d="M33.3757 22.6092L33.2295 23.5265C33.1768 23.8567 33.4991 24.1086 33.7749 23.9527L40.4318 20.189C40.5413 20.1271 40.6721 20.1271 40.7816 20.189L47.4385 23.9527C47.7143 24.1086 48.0367 23.8567 47.984 23.5265L46.7126 15.555C46.6917 15.4239 46.7322 15.2901 46.8207 15.1972L52.2063 9.55177C52.4294 9.31789 52.3063 8.91041 51.9979 8.8622L49.505 8.47266C45.4731 16.2541 39.2992 20.351 33.3757 22.6092Z" fill="#EDBD31"/>
</g>
<g clip-path="url(#clip2_110_836)">
<path d="M69.8371 0.225365L73.1655 7.47801C73.2203 7.59734 73.3261 7.68006 73.4486 7.69918L80.8912 8.8622C81.1995 8.91041 81.3227 9.31789 81.0995 9.55177L75.714 15.1972C75.6254 15.2901 75.585 15.4239 75.6059 15.555L76.8772 23.5265C76.9299 23.8567 76.6076 24.1086 76.3318 23.9527L69.6749 20.189C69.5654 20.1271 69.4346 20.1271 69.3251 20.189L62.6682 23.9527C62.3924 24.1086 62.07 23.8567 62.1227 23.5265L63.3941 15.555C63.415 15.4239 63.3745 15.2901 63.2859 15.1972L57.9004 9.55177C57.6773 9.31789 57.8004 8.91041 58.1088 8.8622L65.5514 7.69918C65.6738 7.68006 65.7797 7.59734 65.8344 7.47801L69.1629 0.225365C69.3007 -0.0751228 69.6992 -0.0751228 69.8371 0.225365Z" fill="#F3CC30"/>
<path d="M69.5 1.90063L66.5339 8.07901C66.3783 8.40313 66.0797 8.61937 65.7419 8.6525L59.3019 9.28471L66.1059 9.62688C66.5381 9.6486 66.9336 9.36693 67.0836 8.93055L69.5 1.90063Z" fill="#F7DB5E"/>
<path d="M62.269 22.6092L62.1227 23.5265C62.07 23.8567 62.3924 24.1086 62.6682 23.9527L69.3251 20.189C69.4346 20.1271 69.5654 20.1271 69.6749 20.189L76.3318 23.9527C76.6076 24.1086 76.9299 23.8567 76.8772 23.5265L75.6059 15.555C75.585 15.4239 75.6254 15.2901 75.714 15.1972L81.0995 9.55177C81.3226 9.31789 81.1995 8.91041 80.8912 8.8622L78.3983 8.47266C74.3664 16.2541 68.1924 20.351 62.269 22.6092Z" fill="#EDBD31"/>
</g>
<g clip-path="url(#clip3_110_836)">
<path d="M98.7303 0.225365L102.059 7.47801C102.114 7.59734 102.219 7.68006 102.342 7.69918L109.784 8.8622C110.093 8.91041 110.216 9.31789 109.993 9.55177L104.607 15.1972C104.519 15.2901 104.478 15.4239 104.499 15.555L105.77 23.5265C105.823 23.8567 105.501 24.1086 105.225 23.9527L98.5682 20.189C98.4586 20.1271 98.3278 20.1271 98.2183 20.189L91.5614 23.9527C91.2856 24.1086 90.9633 23.8567 91.016 23.5265L92.2873 15.555C92.3082 15.4239 92.2678 15.2901 92.1792 15.1972L86.7937 9.55177C86.5706 9.31789 86.6937 8.91041 87.002 8.8622L94.4446 7.69918C94.5671 7.68006 94.6729 7.59734 94.7277 7.47801L98.0561 0.225365C98.194 -0.0751228 98.5924 -0.0751228 98.7303 0.225365Z" fill="#F3CC30"/>
<path d="M98.3932 1.90063L95.4271 8.07901C95.2715 8.40313 94.9729 8.61937 94.6352 8.6525L88.1951 9.28471L94.9992 9.62688C95.4313 9.6486 95.8268 9.36693 95.9768 8.93055L98.3932 1.90063Z" fill="#F7DB5E"/>
<path d="M91.1622 22.6092L91.016 23.5265C90.9633 23.8567 91.2856 24.1086 91.5614 23.9527L98.2183 20.189C98.3278 20.1271 98.4586 20.1271 98.5681 20.189L105.225 23.9527C105.501 24.1086 105.823 23.8567 105.77 23.5265L104.499 15.555C104.478 15.4239 104.519 15.2901 104.607 15.1972L109.993 9.55177C110.216 9.31789 110.093 8.91041 109.784 8.8622L107.292 8.47266C103.26 16.2541 97.0857 20.351 91.1622 22.6092Z" fill="#EDBD31"/>
</g>
<g clip-path="url(#clip4_110_836)">
<path d="M127.624 0.225365L130.952 7.47801C131.007 7.59734 131.113 7.68006 131.235 7.69918L138.678 8.8622C138.986 8.91041 139.109 9.31789 138.886 9.55177L133.501 15.1972C133.412 15.2901 133.372 15.4239 133.392 15.555L134.664 23.5265C134.716 23.8567 134.394 24.1086 134.118 23.9527L127.461 20.189C127.352 20.1271 127.221 20.1271 127.112 20.189L120.455 23.9527C120.179 24.1086 119.857 23.8567 119.909 23.5265L121.181 15.555C121.202 15.4239 121.161 15.2901 121.073 15.1972L115.687 9.55177C115.464 9.31789 115.587 8.91041 115.895 8.8622L123.338 7.69918C123.46 7.68006 123.566 7.59734 123.621 7.47801L126.949 0.225365C127.087 -0.0751228 127.486 -0.0751228 127.624 0.225365Z" fill="#F3CC30"/>
<path d="M127.287 1.90063L124.32 8.07901C124.165 8.40313 123.866 8.61937 123.528 8.6525L117.088 9.28471L123.892 9.62688C124.325 9.6486 124.72 9.36693 124.87 8.93055L127.287 1.90063Z" fill="#F7DB5E"/>
<path d="M120.056 22.6092L119.909 23.5265C119.857 23.8567 120.179 24.1086 120.455 23.9527L127.112 20.189C127.221 20.1271 127.352 20.1271 127.461 20.189L134.118 23.9527C134.394 24.1086 134.716 23.8567 134.664 23.5265L133.392 15.555C133.372 15.4239 133.412 15.2901 133.501 15.1972L138.886 9.55177C139.109 9.31789 138.986 8.91041 138.678 8.8622L136.185 8.47266C132.153 16.2541 125.979 20.351 120.056 22.6092Z" fill="#EDBD31"/>
</g>
<defs>
<clipPath id="clip0_110_836">
<rect width="23.427" height="24" fill="white"/>
</clipPath>
<clipPath id="clip1_110_836">
<rect width="23.427" height="24" fill="white" transform="translate(28.8932)"/>
</clipPath>
<clipPath id="clip2_110_836">
<rect width="23.427" height="24" fill="white" transform="translate(57.7865)"/>
</clipPath>
<clipPath id="clip3_110_836">
<rect width="23.427" height="24" fill="white" transform="translate(86.6797)"/>
</clipPath>
<clipPath id="clip4_110_836">
<rect width="23.427" height="24" fill="white" transform="translate(115.573)"/>
</clipPath>
</defs>
</svg>
