<svg width="30" height="30" viewBox="0 0 30 30" fill="none" xmlns="http://www.w3.org/2000/svg">
<g clip-path="url(#clip0_31_2394)">
<path d="M30 15.0001C30 23.2844 23.2844 30 15.0001 30C6.71557 30 0 23.2844 0 15.0001C0 6.71585 6.71557 3.8147e-06 15.0001 3.8147e-06C23.2844 3.8147e-06 30 6.71585 30 15.0001Z" fill="url(#paint0_linear_31_2394)"/>
<path d="M21.4669 8.41124C21.41 8.41124 21.351 8.42161 21.2926 8.44367L6.19595 14.1801C5.76935 14.3419 5.78078 14.9493 6.21296 15.0955L9.71321 16.2782L11.8236 20.5023C11.8242 20.5036 11.825 20.5046 11.8255 20.5057L11.8311 20.5171L11.8327 20.5163C11.8709 20.5942 11.9504 20.6447 12.0355 20.6447C12.0854 20.6447 12.1365 20.628 12.1806 20.5905L14.1581 18.9139L11.9501 17.2383L12.1229 19.4388L10.5358 16.1528L18.9714 11.0859L11.9501 17.2383L17.4159 21.3863C17.5991 21.525 17.8088 21.5894 18.0143 21.5894C18.448 21.5894 18.8651 21.3047 18.9823 20.8353L21.9371 9.01619C22.0171 8.69591 21.767 8.41124 21.4669 8.41124Z" fill="white"/>
</g>
<defs>
<linearGradient id="paint0_linear_31_2394" x1="4.39332" y1="4.39333" x2="25.6066" y2="25.6066" gradientUnits="userSpaceOnUse">
<stop stop-color="#11B2DB"/>
<stop offset="1" stop-color="#1793CE"/>
</linearGradient>
<clipPath id="clip0_31_2394">
<rect width="30" height="30" fill="white"/>
</clipPath>
</defs>
</svg>
