<svg width="35" height="35" viewBox="0 0 35 35" fill="none" xmlns="http://www.w3.org/2000/svg">
<g clip-path="url(#clip0_4_9)">
<path d="M29.7298 3.51233C28.8831 2.73107 25.462 0.247609 17.8421 0.213921C17.8421 0.213921 8.85604 -0.328117 4.47545 3.69023C2.03704 6.1294 1.17932 9.69807 1.08885 14.1226C0.998384 18.5471 0.881043 26.8393 8.87421 29.0873H8.88178L8.87648 32.5182C8.87648 32.5182 8.82538 33.907 9.73988 34.1905C10.8463 34.5342 11.4954 33.4785 12.5515 32.3403C13.1314 31.7157 13.932 30.7978 14.5349 30.0964C20.0015 30.5567 24.2057 29.5048 24.683 29.3496C25.7868 28.9919 32.0323 28.1913 33.0479 19.9003C34.0968 11.3545 32.5411 5.94885 29.7298 3.51233ZM30.6564 19.2874C29.7991 26.2102 24.7334 26.6455 23.7996 26.9449C23.4025 27.0728 19.7097 27.9915 15.0664 27.6883C15.0664 27.6883 11.6064 31.8622 10.5257 32.9478C10.3569 33.1174 10.1585 33.1859 10.026 33.1522C9.83981 33.1068 9.78871 32.8865 9.79098 32.5644C9.79401 32.1041 9.82051 26.8635 9.82051 26.8635C9.82051 26.8635 9.81634 26.8635 9.82051 26.8635C3.05942 24.986 3.45345 17.9286 3.53029 14.2331C3.60713 10.5376 4.30133 7.51024 6.3635 5.47381C10.0688 2.11787 17.7016 2.6194 17.7016 2.6194C24.1474 2.64741 27.2361 4.58845 27.9527 5.23875C30.3309 7.2748 31.5425 12.1475 30.6564 19.2852V19.2874Z" fill="#7360F2"/>
<path d="M20.9788 14.3601C20.7506 14.3601 20.5602 14.1811 20.5488 13.9505C20.4762 12.486 19.7876 11.7699 18.3815 11.6968C18.1437 11.6843 17.9613 11.4818 17.9734 11.2441C17.9859 11.0064 18.1877 10.8232 18.4261 10.8361C20.2831 10.933 21.3146 11.9951 21.4096 13.9081C21.4213 14.1459 21.2381 14.348 21.0004 14.3597C20.9932 14.3601 20.986 14.3601 20.9788 14.3601Z" fill="#7360F2"/>
<path d="M23.1901 15.1017C23.1871 15.1017 23.1837 15.1017 23.1807 15.1017C22.9426 15.0964 22.7541 14.8996 22.759 14.6615C22.7908 13.1886 22.3703 11.9959 21.4728 11.0152C20.5765 10.0367 19.3482 9.50302 17.7183 9.38379C17.481 9.36637 17.3027 9.1597 17.3201 8.92237C17.3375 8.68504 17.5449 8.50638 17.7815 8.52417C19.6154 8.65854 21.0716 9.30089 22.1091 10.433C23.1489 11.5693 23.658 12.9983 23.6213 14.68C23.6156 14.9147 23.4237 15.1017 23.1901 15.1017Z" fill="#7360F2"/>
<path d="M25.4537 15.9871C25.2171 15.9871 25.0245 15.7963 25.023 15.5594C25.0033 12.9594 24.2228 10.89 22.7038 9.40924C21.1817 7.92545 19.2585 7.165 16.987 7.14948C16.7489 7.14797 16.5574 6.95341 16.5589 6.7157C16.5604 6.47875 16.7531 6.2876 16.9897 6.2876C16.9908 6.2876 16.9916 6.2876 16.9927 6.2876C19.4943 6.30501 21.6182 7.14759 23.3049 8.79225C24.9949 10.4396 25.8625 12.7145 25.8841 15.553C25.886 15.7911 25.6944 15.9852 25.4564 15.9871C25.456 15.9871 25.4548 15.9871 25.4537 15.9871Z" fill="#7360F2"/>
<path d="M18.4889 19.7016C18.4889 19.7016 19.0946 19.7527 19.4209 19.3511L20.0568 18.5509C20.3634 18.1542 21.1037 17.901 21.8286 18.3049C22.3718 18.6145 22.8991 18.9514 23.4089 19.314C23.89 19.6679 24.8749 20.4897 24.8783 20.4897C25.3477 20.886 25.4559 21.4678 25.1365 22.081C25.1365 22.0844 25.1338 22.0908 25.1338 22.0939C24.7818 22.704 24.3352 23.254 23.8101 23.7238C23.8041 23.7268 23.8041 23.7298 23.7984 23.7328C23.3423 24.114 22.8945 24.3305 22.4543 24.3828C22.3896 24.3941 22.3237 24.3983 22.2578 24.3949C22.0637 24.3968 21.8706 24.3669 21.6863 24.3071L21.6719 24.2862C20.994 24.0951 19.8622 23.6166 17.9772 22.5768C16.8863 21.9822 15.848 21.2963 14.873 20.5264C14.3843 20.1407 13.918 19.7274 13.477 19.2883L13.43 19.2413L13.3831 19.1944L13.3362 19.1475C13.3203 19.132 13.3051 19.1164 13.2892 19.1005C12.8502 18.6592 12.4368 18.1932 12.0511 17.7046C11.2812 16.7299 10.5953 15.6916 10.0007 14.6011C8.96088 12.7157 8.48244 11.5851 8.29128 10.906L8.27047 10.8916C8.21066 10.7073 8.18114 10.5142 8.18303 10.3201C8.17962 10.2546 8.18341 10.1887 8.19476 10.1236C8.24965 9.68414 8.46654 9.23597 8.84544 8.77873C8.84846 8.77305 8.85149 8.77305 8.85452 8.76699C9.32388 8.24199 9.87425 7.79534 10.4844 7.44407C10.4874 7.44407 10.4935 7.44104 10.4973 7.44104C11.1109 7.12157 11.6926 7.22983 12.0882 7.69654C12.0912 7.69957 12.9119 8.68485 13.2639 9.16595C13.6265 9.67619 13.9634 10.2038 14.273 10.7478C14.6769 11.4723 14.4237 12.2138 14.027 12.5196L13.2268 13.1555C12.8229 13.4818 12.8763 14.0874 12.8763 14.0874C12.8763 14.0874 14.0614 18.5714 18.4889 19.7016Z" fill="#7360F2"/>
</g>
<defs>
<clipPath id="clip0_4_9">
<rect width="34.4842" height="34.4842" fill="white"/>
</clipPath>
</defs>
</svg>
