<?xml version="1.0" encoding="UTF-8" standalone="no"?>
<svg
   width="352.99869"
   height="40.999977"
   viewBox="0 0 352.99869 40.999977"
   fill="none"
   version="1.1"
   id="svg27"
   sodipodi:docname="bow-tie1.svg"
   inkscape:version="1.2.1 (9c6d41e410, 2022-07-14)"
   xmlns:inkscape="http://www.inkscape.org/namespaces/inkscape"
   xmlns:sodipodi="http://sodipodi.sourceforge.net/DTD/sodipodi-0.dtd"
   xmlns="http://www.w3.org/2000/svg"
   xmlns:svg="http://www.w3.org/2000/svg">
  <sodipodi:namedview
     id="namedview29"
     pagecolor="#ffffff"
     bordercolor="#000000"
     borderopacity="0.25"
     inkscape:showpageshadow="2"
     inkscape:pageopacity="0.0"
     inkscape:pagecheckerboard="0"
     inkscape:deskcolor="#d1d1d1"
     showgrid="false"
     showguides="true"
     inkscape:zoom="2.8284271"
     inkscape:cx="143.18912"
     inkscape:cy="-67.528697"
     inkscape:window-width="2560"
     inkscape:window-height="1369"
     inkscape:window-x="-8"
     inkscape:window-y="-8"
     inkscape:window-maximized="1"
     inkscape:current-layer="svg27" />
  <g
     id="g302"
     transform="translate(-3.3295054)">
    <g
       clip-path="url(#clip0_31_2411)"
       id="g6">
      <path
         d="m 140.702,0.0343671 c -0.105,0.0117873 -0.729,0.047148 -1.388,0.0798579 -1.346,0.066598 -1.825,0.168141 -2.618,0.554014 -0.696,0.338851 -1.354,0.998111 -1.691,1.695941 -0.601,1.24172 -0.614,2.76433 -0.043,4.9016 0.292,1.0916 1.304,5.11572 1.513,6.01392 0.694,2.9809 0.989,5.0662 0.992,7.0172 0.005,2.4494 -0.266,3.7256 -1.887,8.8883 -1.35,4.2988 -1.686,5.5516 -1.881,7.0236 -0.173,1.3103 -0.083,2.2034 0.293,2.9009 0.494,0.9179 1.779,1.6336 3.255,1.8141 0.835,0.1021 5.109,0.1014 6.451,-0.0011 5.237,-0.4002 9.726,-1.3431 14.006,-2.9423 6.338,-2.368 11.208,-5.7787 15.081,-10.5631 l 0.59,-0.7288 0.112,0.2971 c 0.161,0.4248 0.462,0.7889 0.877,0.9907 0,0 0.053,0.0244 0.118,0.0575 0.075,0.0379 0.124,0.0424 0.152,0.0408 0.004,0.0099 3.984,0.0191 3.984,0.0191 3.91,0 3.911,0 4.171,-0.1373 0.511,-0.2702 0.791,-0.6146 0.995,-1.2232 0.03,-0.0903 0.103,-0.0279 0.362,0.3119 1.112,1.4565 3.319,3.7421 4.724,4.8918 6.375,5.2192 14.613,8.2203 24.667,8.9867 1.312,0.1001 5.542,0.1015 6.404,0.003 0.347,-0.04 0.829,-0.1403 1.072,-0.2228 2.671,-0.9073 3.148,-2.4835 2.053,-6.7774 -0.269,-1.0539 -0.36,-1.3572 -1.547,-5.1459 -1.252,-3.9925 -1.599,-5.4847 -1.744,-7.4824 -0.053,-0.7371 -0.053,-1.2499 0.003,-2.0519 0.17,-2.4747 0.566,-4.4749 1.993,-10.06339 0.43,-1.68766 0.816,-3.31507 0.857,-3.61646 0.113,-0.8455 0.046,-1.99963 -0.153,-2.60888 -0.299,-0.91453 -0.791,-1.56484 -1.556,-2.057178 -0.935,-0.602096 -1.608,-0.745264 -4.006,-0.852042 -3.85,-0.171505 -7.864,0.243639 -11.797,1.22031 -7.728,1.91857 -14.679,5.7375 -20.479,11.25144 l -0.795,0.7559 -0.037,-0.5435 c -0.02,-0.2989 -0.081,-0.6494 -0.137,-0.7788 -0.134,-0.3143 -0.503,-0.7094 -0.818,-0.8764 -0.256,-0.1354 -0.269,-0.1358 -4.263,-0.1358 -3.994,0 -4.007,6e-4 -4.263,0.1358 -0.314,0.1664 -0.683,0.5609 -0.82,0.8764 -0.056,0.1294 -0.118,0.4657 -0.136,0.7472 l -0.035,0.512 -0.922,-0.863 c -7.37,-6.9 -16.597,-11.14871 -26.346,-12.132111 -1.784,-0.1798886 -4.524,-0.2732096 -5.363,-0.18258 z m 7.16,5.9486929 c 4.178,0.28171 7.851,1.21738 11.608,2.95698 3.143,1.45486 5.874,3.31226 8.746,5.94946 0.799,0.7328 0.94,0.9609 0.893,1.4419 -0.074,0.7584 -0.861,1.2195 -1.539,0.9013 -0.121,-0.0566 -0.646,-0.5593 -1.189,-1.1384 -3.701,-3.9488 -8.082,-6.76488 -13.062,-8.39659 -3.156,-1.0341 -6.022,-1.51372 -9.179,-1.53614 -1.068,-0.00737 -1.168,-0.01622 -0.757,-0.06513 1.479,-0.17652 2.979,-0.21447 4.479,-0.11331 z m 65.77,0.08664 0.694,0.08428 -1.23,0.00883 c -4.356,0.02888 -8.687,1.0344 -12.775,2.9665 -3.543,1.67389 -6.85,4.11539 -9.574,7.06719 -0.892,0.9667 -1.123,1.1382 -1.536,1.1382 -0.804,0 -1.346,-0.8693 -0.996,-1.5977 0.114,-0.2372 1.305,-1.3516 2.495,-2.3344 3.248,-2.6821 6.986,-4.73171 10.851,-5.94831 2.767,-0.87147 4.867,-1.25986 8.096,-1.4977 0.619,-0.04567 3.293,0.03095 3.975,0.11375 z m -72.134,21.8954 c 0.258,0.1735 0.434,0.4911 0.434,0.7852 0,0.1106 -0.144,0.6397 -0.319,1.1757 -0.508,1.5511 -0.694,2.3281 -0.735,3.0769 -0.025,0.4698 -0.013,0.7241 0.043,0.8579 0.104,0.2478 0.451,0.545 0.815,0.6986 0.16,0.0674 0.543,0.1793 0.543,0.1793 0,0 0.888,0.1344 0.895,0.1347 0.04,0.0013 0.04,0.0026 0.059,0.0041 0,0 4.266,0.0141 5.481,-0.1005 5.635,-0.5324 10.264,-2.1098 14.321,-4.8801 0.685,-0.468 0.25,-0.0769 -0.701,0.6298 -2.198,1.6334 -5.042,3.0573 -7.957,3.9826 -2.992,0.9499 -6.851,1.6136 -9.715,1.6712 -0.003,-0.0019 -0.536,0.0196 -0.536,0.0196 l -0.161,0.0065 -0.098,0.0048 c 0,0 -0.506,0.0103 -1.079,-0.0224 l -1.04,-0.0602 -0.416,-0.0969 c -0.375,-0.0872 -0.51,-0.217 -0.51,-0.217 -0.02,0.0143 -0.68,-0.4157 -0.966,-0.7376 -0.494,-0.5584 -0.741,-1.442 -0.67,-2.3999 0.081,-1.0931 0.713,-3.9612 0.968,-4.3935 0.277,-0.4693 0.901,-0.6174 1.344,-0.3196 z m 75.195,-0.0367 c 0.362,0.1906 0.464,0.4171 0.808,1.7982 0.403,1.6173 0.516,2.3151 0.524,3.2193 0.012,1.2958 -0.34,2.0408 -1.23,2.6109 -0.288,0.1843 -0.562,0.3042 -0.562,0.3042 l -0.372,0.1163 c 0,0 -0.387,0.1491 -1.243,0.2051 -1.58,0.1035 -4.638,-0.1139 -6.815,-0.4845 -2.968,-0.505 -5.498,-1.2498 -8.082,-2.3797 -1.94,-0.8481 -4.466,-2.3873 -5.687,-3.4649 l -0.338,-0.2987 0.454,0.312 c 2.566,1.7617 4.965,2.8745 8.157,3.7833 3.116,0.8873 6.829,1.3437 10.189,1.2526 0.764,-0.0206 1.478,-0.0554 1.587,-0.0772 0.163,-0.0326 0.354,-0.0436 0.392,-0.0512 0.014,-0.0026 0.309,-0.0559 0.392,-0.0735 0,0 0.409,-0.0502 0.644,-0.1604 0.493,-0.229 0.777,-0.5133 0.839,-0.8408 0.122,-0.6443 -0.138,-1.9734 -0.758,-3.8675 -0.159,-0.4848 -0.288,-0.99 -0.288,-1.1228 0.001,-0.6762 0.767,-1.1073 1.389,-0.7808 z"
         fill="#000000"
         id="path2" />
      <path
         d="m 180.378,13.1958 h -3.598 c -1.034,0 -1.873,0.829 -1.873,1.8517 v 9.0638 c 0,1.0227 0.839,1.8518 1.873,1.8518 h 3.598 c 1.035,0 1.873,-0.8291 1.873,-1.8518 v -9.0638 c 0,-1.0227 -0.838,-1.8517 -1.873,-1.8517 z"
         fill="#efb7ba"
         stroke="#ffffff"
         stroke-width="1.13386"
         id="path4" />
    </g>
    <path
       d="m 220.87319,19.9956 h 135.455"
       stroke="url(#paint0_linear_31_2411)"
       stroke-width="2"
       stroke-linecap="round"
       stroke-dasharray="4, 4"
       id="path8"
       style="stroke:url(#paint0_linear_31_2411)" />
    <path
       d="M 4.3295054,19.9985 H 139.78451"
       stroke="url(#paint1_linear_31_2411)"
       stroke-width="2"
       stroke-linecap="round"
       stroke-dasharray="4, 4"
       id="path10"
       style="stroke:url(#paint1_linear_31_2411)" />
  </g>
  <defs
     id="defs25">
    <linearGradient
       id="paint0_linear_31_2411"
       x1="288.48401"
       y1="19.9956"
       x2="288.48401"
       y2="20.9956"
       gradientUnits="userSpaceOnUse"
       gradientTransform="translate(0.1171875)">
      <stop
         stop-color="#E5C0C8"
         id="stop12" />
      <stop
         offset="1"
         stop-color="#194F92"
         id="stop14" />
    </linearGradient>
    <linearGradient
       id="paint1_linear_31_2411"
       x1="68.727501"
       y1="19.998501"
       x2="68.727501"
       y2="20.998501"
       gradientUnits="userSpaceOnUse"
       gradientTransform="translate(3.3295055)">
      <stop
         stop-color="#E5C0C8"
         id="stop17" />
      <stop
         offset="1"
         stop-color="#194F92"
         id="stop19" />
    </linearGradient>
    <clipPath
       id="clip0_31_2411">
      <rect
         width="90"
         height="41"
         fill="#ffffff"
         transform="translate(133.614)"
         id="rect22"
         x="0"
         y="0" />
    </clipPath>
  </defs>
</svg>
