<svg width="148" height="55" viewBox="0 0 148 55" fill="none" xmlns="http://www.w3.org/2000/svg">
<g clip-path="url(#clip0_31_2450)">
<path d="M16.874 4.77395C18.4988 4.68256 18.5602 6.98182 17.3277 7.93706C15.9305 9.01953 12.2318 8.92859 12.3697 4.7735C12.5667 -1.16272 22.7035 -1.2231 21.4523 8.01385C20.2611 16.8063 16.6559 23.1753 16.6559 32.46C16.6559 35.0712 18.0109 40.2133 20.4961 44.6744C23.4958 50.0587 27.6003 54.1619 28.0229 54.4942" stroke="#194F92" stroke-width="1.13387"/>
<path d="M38.1899 4.77395C36.5653 4.68256 36.5038 6.98182 37.7364 7.93706C39.1336 9.01953 42.8322 8.92859 42.6943 4.7735C42.4973 -1.16272 32.3606 -1.2231 33.6118 8.01385C34.8029 16.8063 38.4082 23.1753 38.4082 32.46C38.4082 33.7656 37.4957 39.229 35.1343 43.8299C32.7754 48.4261 29.2055 52.4768 27.5278 54.3764" stroke="#194F92" stroke-width="1.13387"/>
<path d="M6.3644 38.0836C8.07181 38.3343 8.77774 35.3713 7.39648 34.258C6.38877 33.4455 4.95819 33.3015 3.38659 33.9022C1.92569 34.4603 0.684252 36.3455 0.63299 38.7026C0.609513 39.7736 0.929717 41.09 1.8612 42.2197C3.74364 44.503 5.95327 45.1246 8.08845 44.9633C15.187 44.4265 22.5619 33.0171 23.7007 26.3577C27.6017 3.54934 4.5313 11.1889 12.1753 30.8856C13.1399 33.3708 15.6794 37.0361 18.0217 38.6135C18.4422 38.8967 20.3187 39.4062 22.3165 39.6295C24.5806 39.8825 26.8524 39.9018 27.4281 39.8833" stroke="#194F92" stroke-width="1.13387"/>
<path d="M48.7098 38.0836C47.0024 38.3343 46.2965 35.3713 47.6777 34.258C48.6855 33.4455 50.116 33.3015 51.6876 33.9022C53.1485 34.4603 54.39 36.3455 54.4412 38.7026C54.4646 39.7736 54.1445 41.09 53.213 42.2197C51.3306 44.503 49.121 45.1246 46.9858 44.9633C39.8871 44.4265 32.5123 33.0171 31.3734 26.3577C27.4726 3.54934 50.5429 11.1889 42.8989 30.8856C41.9343 33.3708 39.3948 37.0361 37.0525 38.6135C36.632 38.8967 34.7555 39.4062 32.7578 39.6295C30.4935 39.8825 27.9676 39.9018 27.3919 39.8833" stroke="#194F92" stroke-width="1.13387"/>
<path fill-rule="evenodd" clip-rule="evenodd" d="M147.536 23.4956H145.739V39.3769H147.536V23.4956Z" fill="#EFB7BA"/>
<path fill-rule="evenodd" clip-rule="evenodd" d="M148 18.9744C148 18.7053 147.941 18.4656 147.835 18.2503C147.724 18.0351 147.57 17.8591 147.372 17.7317C147.174 17.6047 146.937 17.5408 146.666 17.5363C146.406 17.5408 146.169 17.6096 145.966 17.7366C145.763 17.8689 145.599 18.0451 145.483 18.2601C145.367 18.4804 145.309 18.7151 145.304 18.9744C145.304 19.2435 145.362 19.4835 145.478 19.7085C145.589 19.9288 145.744 20.1049 145.942 20.2368C146.145 20.369 146.377 20.4375 146.637 20.4424C147.038 20.4375 147.362 20.3002 147.613 20.0361C147.864 19.7768 147.99 19.4197 148 18.9744V18.9744Z" fill="#EFB7BA"/>
<path fill-rule="evenodd" clip-rule="evenodd" d="M140.115 17.0956L136.058 28.7793C135.517 30.3108 135.014 31.7982 134.55 33.2366C134.087 34.68 133.7 36.0403 133.391 37.322H133.304C133 36.0596 132.633 34.7091 132.212 33.2809C131.787 31.8521 131.323 30.3498 130.811 28.7793L127.13 17.0956H125.217L132.348 39.3769H134.145L142.029 17.0956H140.115Z" fill="#EFB7BA"/>
<path fill-rule="evenodd" clip-rule="evenodd" d="M115.275 23.1132C114.294 23.1132 113.367 23.2999 112.493 23.6669C111.614 24.0335 110.837 24.5759 110.155 25.2902C109.47 26.0095 108.932 26.8964 108.54 27.9437C108.149 28.9956 107.952 30.2025 107.942 31.5676C107.946 32.835 108.131 33.97 108.488 34.9731C108.85 35.9758 109.352 36.8334 109.994 37.5427C110.641 38.2522 111.395 38.7901 112.26 39.1617C113.12 39.5384 114.058 39.7236 115.072 39.7286C115.768 39.7286 116.464 39.6272 117.164 39.422C117.859 39.2115 118.526 38.893 119.153 38.4625C119.781 38.032 120.343 37.4779 120.836 36.8127C121.329 36.1422 121.715 35.3502 122 34.4305C122.285 33.5107 122.431 32.4583 122.436 31.2742C122.431 30.0659 122.26 28.9661 121.922 27.9679C121.584 26.9746 121.1 26.1136 120.472 25.3895C119.845 24.6654 119.092 24.1074 118.217 23.711C117.338 23.3198 116.357 23.1181 115.275 23.1132ZM115.188 24.4852C115.428 24.486 115.668 24.5066 115.906 24.5469C116.144 24.5863 116.379 24.6453 116.611 24.7234C116.612 24.7234 116.613 24.7234 116.613 24.7234C116.614 24.7241 116.615 24.7248 116.615 24.7256C116.845 24.8027 117.07 24.8985 117.29 25.0123C117.292 25.0131 117.295 25.0138 117.297 25.0145C117.299 25.016 117.301 25.0175 117.303 25.0189C117.522 25.1338 117.735 25.2665 117.941 25.416C118.15 25.5676 118.35 25.7363 118.542 25.9211C118.732 26.1045 118.914 26.3034 119.084 26.5166C119.084 26.5173 119.084 26.5181 119.084 26.5188C119.253 26.7327 119.412 26.9604 119.558 27.2003C119.705 27.4405 119.838 27.6925 119.959 27.9547C120.079 28.217 120.185 28.4888 120.276 28.7686C120.367 29.0437 120.443 29.3259 120.505 29.6133C120.506 29.6178 120.508 29.6222 120.509 29.6266C120.51 29.6303 120.511 29.6339 120.512 29.6376C120.572 29.9269 120.618 30.2209 120.649 30.5177C120.68 30.8167 120.696 31.1181 120.697 31.4198C120.697 31.4205 120.697 31.4213 120.697 31.422C120.697 31.4279 120.697 31.4338 120.697 31.4396C120.695 31.7303 120.679 32.0206 120.649 32.3087C120.642 32.3602 120.635 32.4117 120.627 32.4631C120.6 32.6961 120.564 32.9273 120.518 33.1557C120.495 33.2571 120.471 33.3578 120.444 33.4578C120.401 33.6382 120.353 33.8162 120.298 33.9916C120.264 34.0956 120.228 34.1986 120.189 34.3004C120.133 34.4591 120.072 34.6151 120.007 34.768C119.956 34.8809 119.903 34.9919 119.848 35.1011C119.779 35.2395 119.706 35.3749 119.63 35.5069C119.569 35.6113 119.506 35.7135 119.441 35.8135C119.36 35.9377 119.276 36.0584 119.188 36.1752C119.118 36.2697 119.045 36.3616 118.971 36.4509C118.874 36.5649 118.775 36.6746 118.672 36.7796C118.594 36.8603 118.514 36.9382 118.433 37.0134C118.327 37.1093 118.219 37.2006 118.109 37.2869C118.022 37.3569 117.933 37.4238 117.843 37.4876C117.737 37.5597 117.629 37.6274 117.519 37.6905C117.416 37.7534 117.313 37.8122 117.207 37.867C117.097 37.9193 116.985 37.9671 116.872 38.0103C116.767 38.0563 116.66 38.0983 116.552 38.1361C116.406 38.1804 116.259 38.2172 116.111 38.2463C116.035 38.266 115.96 38.2836 115.884 38.2993C115.653 38.3369 115.421 38.3561 115.188 38.3566C114.956 38.3558 114.725 38.3367 114.496 38.2993C114.408 38.2813 114.321 38.2608 114.234 38.2375C114.098 38.2108 113.963 38.1777 113.829 38.1383C113.711 38.0969 113.595 38.0505 113.479 37.9993C113.377 37.9604 113.276 37.9177 113.177 37.8714C113.061 37.8116 112.947 37.7468 112.835 37.6773C112.736 37.6206 112.639 37.5603 112.543 37.4964C112.442 37.4247 112.342 37.3489 112.245 37.2692C112.146 37.1922 112.05 37.1113 111.955 37.0266C111.863 36.9412 111.773 36.8522 111.686 36.7597C111.595 36.6669 111.508 36.5706 111.422 36.4708C111.336 36.3683 111.253 36.2624 111.172 36.1532C111.098 36.0522 111.026 35.9485 110.956 35.8422C110.879 35.7255 110.804 35.6056 110.732 35.4826C110.669 35.3717 110.609 35.2584 110.552 35.143C110.484 35.0126 110.42 34.8795 110.36 34.7437C110.308 34.6207 110.258 34.4956 110.212 34.3688C110.162 34.2369 110.114 34.103 110.071 33.9673C110.029 33.8299 109.992 33.6909 109.957 33.5505C109.919 33.4122 109.884 33.2724 109.853 33.1314C109.824 32.9745 109.799 32.8163 109.779 32.6572C109.758 32.5343 109.74 32.4107 109.724 32.2866C109.711 32.1238 109.702 31.9605 109.698 31.797C109.689 31.6722 109.683 31.5472 109.679 31.422C109.682 31.3057 109.688 31.1895 109.696 31.0735C109.7 30.9003 109.71 30.7274 109.724 30.5552C109.739 30.4414 109.756 30.3282 109.775 30.2155C109.796 30.0445 109.822 29.8745 109.853 29.706C109.882 29.5747 109.915 29.4445 109.951 29.3156C109.987 29.1646 110.028 29.0153 110.073 28.8678C110.113 28.7442 110.157 28.6221 110.203 28.5017C110.253 28.362 110.307 28.2244 110.364 28.0892C110.42 27.9642 110.479 27.8413 110.541 27.7209C110.604 27.5932 110.671 27.4681 110.741 27.3459C110.806 27.2346 110.873 27.1257 110.943 27.0195C111.021 26.9007 111.101 26.7852 111.185 26.6732C111.257 26.5756 111.332 26.4808 111.409 26.3887C111.505 26.2762 111.603 26.168 111.705 26.0644C111.782 25.9838 111.86 25.9059 111.94 25.8306C112.048 25.7322 112.16 25.6388 112.273 25.5505C112.357 25.4837 112.442 25.4197 112.528 25.3586C112.641 25.2815 112.757 25.2094 112.874 25.1425C112.968 25.0846 113.064 25.0302 113.161 24.9792C113.287 24.9189 113.415 24.8645 113.544 24.816C113.634 24.7778 113.724 24.7425 113.814 24.7101C113.997 24.6519 114.182 24.6055 114.369 24.5712C114.406 24.5626 114.443 24.5545 114.48 24.5469C114.715 24.5072 114.951 24.4866 115.188 24.4852V24.4852Z" fill="#194F92"/>
<path fill-rule="evenodd" clip-rule="evenodd" d="M104.812 23.2019C104.696 23.1872 104.585 23.1675 104.478 23.1479C104.372 23.1286 104.261 23.1138 104.145 23.1138C103.455 23.1187 102.827 23.2801 102.251 23.5882C101.677 23.9015 101.184 24.3172 100.764 24.8506C100.343 25.3789 100.024 25.9711 99.7973 26.6364H99.6813L99.6235 23.4956H98.0003C98.0436 24.2832 98.0727 25.0709 98.092 25.8535C98.1068 26.6364 98.1159 27.424 98.1159 28.2121V39.3769H99.9132V30.6144C99.9132 29.8853 100.005 29.1808 100.189 28.4955C100.372 27.8155 100.638 27.204 100.991 26.6609C101.343 26.1178 101.778 25.6823 102.285 25.3645C102.793 25.0463 103.377 24.8799 104.029 24.8751C104.189 24.8751 104.329 24.8751 104.454 24.8799C104.58 24.8899 104.696 24.9046 104.812 24.9337V23.2019Z" fill="#194F92"/>
<path fill-rule="evenodd" clip-rule="evenodd" d="M91.6524 23.4956H89.8551V39.3769H91.6524V23.4956Z" fill="#194F92"/>
<path fill-rule="evenodd" clip-rule="evenodd" d="M92.1163 18.9744C92.1163 18.7053 92.0582 18.4656 91.9518 18.2503C91.8411 18.0351 91.686 17.8591 91.4882 17.7317C91.2902 17.6047 91.0535 17.5408 90.783 17.5363C90.522 17.5408 90.2851 17.6096 90.0826 17.7366C89.8793 17.8689 89.7151 18.0451 89.5993 18.2601C89.4835 18.4804 89.4254 18.7151 89.4205 18.9744C89.4205 19.2435 89.4787 19.4835 89.5943 19.7085C89.7055 19.9288 89.8599 20.1049 90.0584 20.2368C90.2612 20.369 90.4928 20.4375 90.7539 20.4424C91.1545 20.4375 91.4786 20.3002 91.7295 20.0361C91.9809 19.7768 92.1066 19.4197 92.1163 18.9744V18.9744Z" fill="#194F92"/>
<path fill-rule="evenodd" clip-rule="evenodd" d="M82.5799 17.0956H80.3775L75.7975 29.4986C75.4402 30.4772 75.1161 31.3823 74.8267 32.2187C74.5365 33.0605 74.2759 33.8531 74.0442 34.6019C73.8118 35.3502 73.6044 36.0841 73.4209 36.7936H73.305C73.1017 36.0546 72.8846 35.3014 72.653 34.5379C72.4159 33.77 72.16 32.9724 71.8795 32.1406C71.6043 31.309 71.2951 30.4186 70.9572 29.4691L66.5222 17.0956H64.4063L62.841 39.3769H64.5802L65.247 29.2491C65.3048 28.3341 65.3582 27.4191 65.4111 26.5045C65.4592 25.5944 65.5029 24.6989 65.5461 23.8232C65.5849 22.9524 65.6188 22.1205 65.6479 21.3329C65.677 20.5402 65.6963 19.8161 65.7109 19.1506H65.7978C66.01 19.9775 66.2515 20.8433 66.5222 21.7388C66.7926 22.6391 67.0972 23.5836 67.4303 24.5863C67.7638 25.5845 68.1259 26.6462 68.5225 27.7812L72.609 39.3769H73.8842L78.2614 27.4977C78.6574 26.4262 79.0244 25.4084 79.3676 24.4446C79.7058 23.4858 80.0247 22.5707 80.3145 21.695C80.6092 20.8193 80.8796 19.9726 81.1309 19.1506H81.2178C81.2133 19.7818 81.2178 20.4862 81.2422 21.2693C81.2615 22.057 81.2951 22.8836 81.3339 23.7499C81.3723 24.6208 81.4208 25.4964 81.4689 26.3869C81.5223 27.2724 81.5703 28.1334 81.6236 28.9703L82.2615 39.3769H84.0294L82.5799 17.0956Z" fill="#194F92"/>
</g>
<defs>
<clipPath id="clip0_31_2450">
<rect width="148" height="55" fill="white"/>
</clipPath>
</defs>
</svg>
