<svg width="65" height="49" viewBox="0 0 65 49" fill="none" xmlns="http://www.w3.org/2000/svg">
<path d="M65 40.9753L64.9764 48.2832L24.6311 31.2939V40.4838L-7.62939e-06 25.1563L0.0302887 20.0194L5.86425 19.953V20.9034L8.10969 19.8968L9.64507 19.1551L24.1545 9.80732L24.6311 19.0182L55.9114 20.2585L65 40.9753Z" fill="#7595BE"/>
<path d="M57.5469 20.1934L64.9941 0.519756L24.3749 13.0706L24.6311 4.58089L-7.62939e-06 19.9067L24.6311 35.2342V26.0447L65 40.9753L57.5469 20.1934Z" fill="#7595BE"/>
<path d="M49.9357 21.5683C49.6728 21.1558 49.2274 20.8846 48.723 20.8846C48.2182 20.8846 47.7727 21.1558 47.5098 21.5683C47.3521 21.8159 47.2604 22.1142 47.2604 22.4353C47.2604 23.2921 47.9154 23.986 48.723 23.986C49.5306 23.986 50.1856 23.2921 50.1856 22.4353C50.1856 22.1142 50.0935 21.8159 49.9357 21.5683ZM56.0356 16.2326C56.8436 16.2326 57.4982 15.5386 57.4982 14.6824C57.4982 13.8261 56.8436 13.1317 56.0356 13.1317C55.2279 13.1317 54.573 13.8261 54.573 14.6824C54.573 15.5386 55.2279 16.2326 56.0356 16.2326ZM57.2487 6.06193C56.9858 5.64939 56.5403 5.37826 56.0356 5.37826C55.5312 5.37826 55.0857 5.64939 54.8228 6.06193C54.6651 6.30945 54.573 6.60783 54.573 6.92894C54.573 7.78522 55.2279 8.47962 56.0356 8.47962C56.8436 8.47962 57.4982 7.78522 57.4982 6.92894C57.4982 6.60783 57.4065 6.30945 57.2487 6.06193ZM50.9167 18.5588C50.9167 19.4156 51.5721 20.1095 52.3793 20.1095C53.1869 20.1095 53.8419 19.4156 53.8419 18.5588C53.8419 17.7025 53.1869 17.0081 52.3793 17.0081C51.5721 17.0081 50.9167 17.7025 50.9167 18.5588ZM52.3793 12.3561C53.1869 12.3561 53.8419 11.6622 53.8419 10.8054C53.8419 9.94959 53.1869 9.25519 52.3793 9.25519C51.5721 9.25519 50.9167 9.94959 50.9167 10.8054C50.9167 11.6622 51.5721 12.3561 52.3793 12.3561ZM48.723 13.1317C47.9154 13.1317 47.2604 13.8261 47.2604 14.6824C47.2604 15.5386 47.9154 16.2326 48.723 16.2326C49.5306 16.2326 50.1856 15.5386 50.1856 14.6824C50.1856 13.8261 49.5306 13.1317 48.723 13.1317ZM45.0667 17.0081C44.2591 17.0081 43.6037 17.7025 43.6037 18.5588C43.6037 19.4156 44.2591 20.1095 45.0667 20.1095C45.8744 20.1095 46.5289 19.4156 46.5289 18.5588C46.5289 17.7025 45.8744 17.0081 45.0667 17.0081ZM45.0667 9.25519C44.2591 9.25519 43.6037 9.94959 43.6037 10.8054C43.6037 11.6622 44.2591 12.3561 45.0667 12.3561C45.8744 12.3561 46.5289 11.6622 46.5289 10.8054C46.5289 9.94959 45.8744 9.25519 45.0667 9.25519ZM42.6227 21.5683C42.3598 21.1558 41.9152 20.8846 41.41 20.8846C40.9052 20.8846 40.4602 21.1558 40.1973 21.5683C40.0395 21.8159 39.9474 22.1142 39.9474 22.4353C39.9474 23.2921 40.6024 23.986 41.41 23.986C42.2177 23.986 42.8726 23.2921 42.8726 22.4353C42.8726 22.1142 42.7805 21.8159 42.6227 21.5683ZM41.41 13.1317C40.6024 13.1317 39.9474 13.8261 39.9474 14.6824C39.9474 15.5386 40.6024 16.2326 41.41 16.2326C42.2177 16.2326 42.8726 15.5386 42.8726 14.6824C42.8726 13.8261 42.2177 13.1317 41.41 13.1317ZM37.7537 17.0081C36.9461 17.0081 36.2907 17.7025 36.2907 18.5588C36.2907 19.4156 36.9461 20.1095 37.7537 20.1095C38.5614 20.1095 39.2163 19.4156 39.2163 18.5588C39.2163 17.7025 38.5614 17.0081 37.7537 17.0081ZM35.3097 21.5683C35.0468 21.1558 34.6022 20.8846 34.0974 20.8846C33.5922 20.8846 33.1472 21.1558 32.8847 21.5683C32.727 21.8159 32.6344 22.1142 32.6344 22.4353C32.6344 23.2921 33.2898 23.986 34.0974 23.986C34.9051 23.986 35.5596 23.2921 35.5596 22.4353C35.5596 22.1142 35.4675 21.8159 35.3097 21.5683ZM34.0974 13.1317C33.2898 13.1317 32.6344 13.8261 32.6344 14.6824C32.6344 15.5386 33.2898 16.2326 34.0974 16.2326C34.9051 16.2326 35.5596 15.5386 35.5596 14.6824C35.5596 13.8261 34.9051 13.1317 34.0974 13.1317ZM30.4407 17.0081C29.6331 17.0081 28.9781 17.7025 28.9781 18.5588C28.9781 19.4156 29.6331 20.1095 30.4407 20.1095C31.2484 20.1095 31.9033 19.4156 31.9033 18.5588C31.9033 17.7025 31.2484 17.0081 30.4407 17.0081ZM27.9972 21.5683C27.7343 21.1558 27.2892 20.8846 26.7845 20.8846C26.2797 20.8846 25.8346 21.1558 25.5717 21.5683C25.414 21.8159 25.3214 22.1142 25.3214 22.4353C25.3214 23.2921 25.9768 23.986 26.7845 23.986C27.5921 23.986 28.2466 23.2921 28.2466 22.4353C28.2466 22.1142 28.1549 21.8159 27.9972 21.5683ZM23.1278 17.0081C22.3205 17.0081 21.6656 17.7025 21.6656 18.5588C21.6656 19.4156 22.3205 20.1095 23.1278 20.1095C23.9354 20.1095 24.5903 19.4156 24.5903 18.5588C24.5903 17.7025 23.9354 17.0081 23.1278 17.0081ZM20.6842 21.5683C20.4217 21.1558 19.9762 20.8846 19.4715 20.8846C18.9667 20.8846 18.5216 21.1558 18.2587 21.5683C18.101 21.8159 18.0089 22.1142 18.0089 22.4353C18.0089 23.2921 18.6638 23.986 19.4715 23.986C20.2791 23.986 20.9341 23.2921 20.9341 22.4353C20.9341 22.1142 20.8419 21.8159 20.6842 21.5683ZM19.4715 13.1317C18.6638 13.1317 18.0089 13.8261 18.0089 14.6824C18.0089 15.5386 18.6638 16.2326 19.4715 16.2326C20.2791 16.2326 20.9341 15.5386 20.9341 14.6824C20.9341 13.8261 20.2791 13.1317 19.4715 13.1317ZM15.8152 17.0081C15.0075 17.0081 14.3526 17.7025 14.3526 18.5588C14.3526 19.4156 15.0075 20.1095 15.8152 20.1095C16.6232 20.1095 17.2774 19.4156 17.2774 18.5588C17.2774 17.7025 16.6232 17.0081 15.8152 17.0081ZM13.3716 21.5683C13.1087 21.1558 12.6632 20.8846 12.1585 20.8846C11.6541 20.8846 11.2086 21.1558 10.9457 21.5683C10.788 21.8159 10.6963 22.1142 10.6963 22.4353C10.6963 23.2921 11.3508 23.986 12.1585 23.986C12.9665 23.986 13.6215 23.2921 13.6215 22.4353C13.6215 22.1142 13.529 21.8159 13.3716 21.5683ZM8.50218 17.0081C7.69495 17.0081 7.03959 17.7025 7.03959 18.5588C7.03959 19.4156 7.69495 20.1095 8.50218 20.1095C9.31025 20.1095 9.9648 19.4156 9.9648 18.5588C9.9648 17.7025 9.31025 17.0081 8.50218 17.0081ZM37.7537 27.8625C38.5614 27.8625 39.2163 27.1685 39.2163 26.3118C39.2163 25.456 38.5614 24.7616 37.7537 24.7616C36.9461 24.7616 36.2907 25.456 36.2907 26.3118C36.2907 27.1685 36.9461 27.8625 37.7537 27.8625ZM45.0667 27.8625C45.8744 27.8625 46.5289 27.1685 46.5289 26.3118C46.5289 25.456 45.8744 24.7616 45.0667 24.7616C44.2591 24.7616 43.6037 25.456 43.6037 26.3118C43.6037 27.1685 44.2591 27.8625 45.0667 27.8625ZM48.723 31.7394C49.5306 31.7394 50.1856 31.045 50.1856 30.1887C50.1856 29.3325 49.5306 28.6381 48.723 28.6381C47.9154 28.6381 47.2604 29.3325 47.2604 30.1887C47.2604 31.045 47.9154 31.7394 48.723 31.7394ZM52.3793 27.8625C53.1869 27.8625 53.8419 27.1685 53.8419 26.3118C53.8419 25.456 53.1869 24.7616 52.3793 24.7616C51.5721 24.7616 50.9167 25.456 50.9167 26.3118C50.9167 27.1685 51.5721 27.8625 52.3793 27.8625ZM56.0356 31.7394C56.8436 31.7394 57.4982 31.045 57.4982 30.1887C57.4982 29.3325 56.8436 28.6381 56.0356 28.6381C55.2279 28.6381 54.573 29.3325 54.573 30.1887C54.573 31.045 55.2279 31.7394 56.0356 31.7394ZM53.8419 34.0652C53.8419 33.2089 53.1869 32.5146 52.3793 32.5146C51.5746 32.5146 50.9226 33.204 50.9175 34.0559L42.6522 30.9986C42.7893 30.7623 42.8726 30.4867 42.8726 30.1887C42.8726 29.3325 42.2177 28.6381 41.41 28.6381C40.6617 28.6381 40.0517 29.2366 39.9651 30.005L31.7603 26.9705C31.8495 26.7698 31.9033 26.5486 31.9033 26.3118C31.9033 25.456 31.2484 24.7616 30.4407 24.7616C29.7492 24.7616 29.1725 25.2727 29.0202 25.9573L23.1075 23.7702V24.7638C22.3096 24.7758 21.6656 25.4636 21.6656 26.3118C21.6656 27.161 22.3096 27.8487 23.1075 27.8607V32.4133L20.7431 30.9416C20.8609 30.7177 20.9341 30.4635 20.9341 30.1887C20.9341 29.3325 20.2791 28.6381 19.4715 28.6381C18.9452 28.6381 18.4876 28.9355 18.2301 29.3779L15.7908 27.8603C15.7992 27.8603 15.8068 27.8625 15.8152 27.8625C16.6232 27.8625 17.2774 27.1685 17.2774 26.3118C17.2774 25.456 16.6232 24.7616 15.8152 24.7616C15.0075 24.7616 14.3526 25.456 14.3526 26.3118C14.3526 26.5981 14.4308 26.8631 14.5583 27.0932L6.21344 21.9001C6.17263 21.7833 6.12384 21.6705 6.05864 21.5683C5.79574 21.1558 5.35068 20.8846 4.84632 20.8846C4.76851 20.8846 4.69404 20.8962 4.62 20.9087L3.00978 19.9066L10.7531 15.0887C10.9226 15.7465 11.4846 16.2326 12.1585 16.2326C12.9665 16.2326 13.6215 15.5386 13.6215 14.6824C13.6215 14.2493 13.4528 13.8582 13.1828 13.5768L15.3079 12.2549C15.4665 12.3173 15.636 12.3561 15.8152 12.3561C16.5463 12.3561 17.1465 11.7861 17.2555 11.0431L23.0201 7.45609L22.9654 9.27258C22.2351 9.35955 21.6656 10.0085 21.6656 10.8054C21.6656 11.5694 22.1872 12.2004 22.8728 12.3289L22.7849 15.2443L25.3433 14.454C25.3332 14.5289 25.3214 14.6039 25.3214 14.6824C25.3214 15.5386 25.9768 16.2326 26.7845 16.2326C27.5921 16.2326 28.2466 15.5386 28.2466 14.6824C28.2466 14.293 28.1066 13.9416 27.8832 13.6691L36.3155 11.0636C36.4316 11.7964 37.0294 12.3561 37.7537 12.3561C38.5614 12.3561 39.2163 11.6622 39.2163 10.8054C39.2163 10.5918 39.1751 10.388 39.1015 10.2029L47.4253 7.6309C47.6676 8.13263 48.1551 8.47962 48.723 8.47962C49.5306 8.47962 50.1856 7.78522 50.1856 6.92894C50.1856 6.87854 50.1759 6.83127 50.1713 6.78222L58.6676 4.15714C58.9313 4.43231 59.2926 4.60312 59.6918 4.60312C60.3863 4.60312 60.9647 4.08891 61.1141 3.40076L62.4139 2.99936L60.0288 9.30024C59.9203 9.27303 59.8088 9.25519 59.6918 9.25519C58.8842 9.25519 58.2297 9.94959 58.2297 10.8054C58.2297 11.3754 58.5229 11.8682 58.9545 12.1376L55.9115 20.1777L56.1702 20.8989C56.1252 20.8944 56.0814 20.8846 56.0356 20.8846C55.5312 20.8846 55.0857 21.1558 54.8228 21.5683C54.6651 21.8159 54.573 22.1142 54.573 22.4353C54.573 23.2921 55.2279 23.986 56.0356 23.986C56.457 23.986 56.8335 23.7947 57.1002 23.4928L60.4103 32.7224C60.1975 32.5935 59.9543 32.5146 59.6918 32.5146C58.8842 32.5146 58.2297 33.2089 58.2297 34.0652C58.2297 34.922 58.8842 35.6159 59.6918 35.6159C60.335 35.6159 60.8743 35.1739 61.0707 34.5629L62.0391 37.2634C61.944 37.4694 61.886 37.6973 61.886 37.9422C61.886 38.0024 61.8965 38.0599 61.9028 38.1188L53.5239 35.0196C53.7199 34.7561 53.8419 34.4274 53.8419 34.0652Z" fill="#EFB7BA"/>
<path d="M6.05863 21.5681C6.12383 21.6703 6.17262 21.7832 6.21342 21.9001L4.61999 20.908C4.69403 20.8955 4.76849 20.8839 4.84631 20.8839C5.35067 20.8839 5.79573 21.1553 6.05863 21.5681Z" fill="#F1EFE8"/>
<path d="M13.6215 14.6821C13.6215 15.5386 12.9665 16.2327 12.1585 16.2327C11.4846 16.2327 10.9226 15.7465 10.7531 15.0885L13.1827 13.5763C13.4528 13.8578 13.6215 14.249 13.6215 14.6821Z" fill="#F1EFE8"/>
<path d="M8.50215 20.1095C7.69492 20.1095 7.03955 19.4157 7.03955 18.5591C7.03955 17.703 7.69492 17.0087 8.50215 17.0087C9.31022 17.0087 9.96477 17.703 9.96477 18.5591C9.96477 19.4157 9.31022 20.1095 8.50215 20.1095Z" fill="#F1EFE8"/>
<path d="M15.8152 20.1095C15.0075 20.1095 14.3526 19.4157 14.3526 18.5591C14.3526 17.703 15.0075 17.0087 15.8152 17.0087C16.6232 17.0087 17.2773 17.703 17.2773 18.5591C17.2773 19.4157 16.6232 20.1095 15.8152 20.1095Z" fill="#F1EFE8"/>
<path d="M15.8152 12.3562C15.636 12.3562 15.4665 12.3173 15.3079 12.2548L17.2555 11.0412C17.1465 11.7854 16.5463 12.3562 15.8152 12.3562Z" fill="#F1EFE8"/>
<path d="M15.8152 24.7622C16.6232 24.7622 17.2773 25.4565 17.2773 26.3122C17.2773 27.1687 16.6232 27.8625 15.8152 27.8625C15.8067 27.8625 15.7992 27.8603 15.7908 27.8603L14.5583 27.0934C14.4308 26.8633 14.3526 26.5984 14.3526 26.3122C14.3526 25.4565 15.0075 24.7622 15.8152 24.7622Z" fill="#F1EFE8"/>
<path d="M19.4714 28.6377C20.2791 28.6377 20.934 29.3322 20.934 30.1887C20.934 30.4635 20.8608 30.7177 20.7431 30.9417L18.2301 29.3777C18.4875 28.9353 18.9452 28.6377 19.4714 28.6377Z" fill="#F1EFE8"/>
<path d="M12.1585 23.9861C11.3508 23.9861 10.6963 23.2923 10.6963 22.4357C10.6963 22.1146 10.788 21.8164 10.9457 21.5689C11.2086 21.1564 11.6541 20.8853 12.1585 20.8853C12.6632 20.8853 13.1087 21.1564 13.3716 21.5689C13.5289 21.8164 13.6215 22.1146 13.6215 22.4357C13.6215 23.2923 12.9665 23.9861 12.1585 23.9861Z" fill="#F1EFE8"/>
<path d="M26.7844 16.2327C25.9768 16.2327 25.3214 15.5386 25.3214 14.6821C25.3214 14.6036 25.3332 14.5287 25.3433 14.4537L27.8832 13.6687C28.1065 13.9412 28.2466 14.2927 28.2466 14.6821C28.2466 15.5386 27.5921 16.2327 26.7844 16.2327Z" fill="#F1EFE8"/>
<path d="M19.4714 16.2327C18.6638 16.2327 18.0088 15.5388 18.0088 14.6827C18.0088 13.8266 18.6638 13.1323 19.4714 13.1323C20.2791 13.1323 20.934 13.8266 20.934 14.6827C20.934 15.5388 20.2791 16.2327 19.4714 16.2327Z" fill="#F1EFE8"/>
<path d="M23.1277 20.1095C22.3205 20.1095 21.6655 19.4157 21.6655 18.5591C21.6655 17.703 22.3205 17.0087 23.1277 17.0087C23.9354 17.0087 24.5903 17.703 24.5903 18.5591C24.5903 19.4157 23.9354 20.1095 23.1277 20.1095Z" fill="#F1EFE8"/>
<path d="M30.4407 20.1095C29.6331 20.1095 28.9781 19.4157 28.9781 18.5591C28.9781 17.703 29.6331 17.0087 30.4407 17.0087C31.2484 17.0087 31.9033 17.703 31.9033 18.5591C31.9033 19.4157 31.2484 20.1095 30.4407 20.1095Z" fill="#F1EFE8"/>
<path d="M21.6656 10.8057C21.6656 10.0089 22.2351 9.36007 22.9654 9.27312L22.8728 12.3289C22.1872 12.2004 21.6656 11.5695 21.6656 10.8057Z" fill="#F1EFE8"/>
<path d="M21.6656 26.3121C21.6656 25.464 22.3096 24.7764 23.1075 24.7644V27.8607C22.3096 27.8487 21.6656 27.1611 21.6656 26.3121Z" fill="#F1EFE8"/>
<path d="M30.4407 24.7612C31.2484 24.7612 31.9033 25.4557 31.9033 26.3117C31.9033 26.5486 31.8495 26.7699 31.7603 26.9706L29.0202 25.9571C29.1725 25.2724 29.7492 24.7612 30.4407 24.7612Z" fill="#F1EFE8"/>
<path d="M26.7844 23.9861C25.9768 23.9861 25.3214 23.2923 25.3214 22.4357C25.3214 22.1146 25.414 21.8164 25.5717 21.5689C25.8346 21.1564 26.2797 20.8853 26.7844 20.8853C27.2892 20.8853 27.7343 21.1564 27.9972 21.5689C28.1549 21.8164 28.2466 22.1146 28.2466 22.4357C28.2466 23.2923 27.5921 23.9861 26.7844 23.9861Z" fill="#F1EFE8"/>
<path d="M19.4714 23.9861C18.6638 23.9861 18.0088 23.2923 18.0088 22.4357C18.0088 22.1146 18.101 21.8164 18.2587 21.5689C18.5216 21.1564 18.9666 20.8853 19.4714 20.8853C19.9762 20.8853 20.4217 21.1564 20.6842 21.5689C20.8419 21.8164 20.934 22.1146 20.934 22.4357C20.934 23.2923 20.2791 23.9861 19.4714 23.9861Z" fill="#F1EFE8"/>
<path d="M41.41 16.2327C40.6023 16.2327 39.9474 15.5388 39.9474 14.6827C39.9474 13.8266 40.6023 13.1323 41.41 13.1323C42.2176 13.1323 42.8726 13.8266 42.8726 14.6827C42.8726 15.5388 42.2176 16.2327 41.41 16.2327Z" fill="#F1EFE8"/>
<path d="M34.0974 16.2327C33.2898 16.2327 32.6344 15.5388 32.6344 14.6827C32.6344 13.8266 33.2898 13.1323 34.0974 13.1323C34.9051 13.1323 35.5596 13.8266 35.5596 14.6827C35.5596 15.5388 34.9051 16.2327 34.0974 16.2327Z" fill="#F1EFE8"/>
<path d="M37.7537 20.1095C36.9461 20.1095 36.2907 19.4157 36.2907 18.5591C36.2907 17.703 36.9461 17.0087 37.7537 17.0087C38.5614 17.0087 39.2163 17.703 39.2163 18.5591C39.2163 19.4157 38.5614 20.1095 37.7537 20.1095Z" fill="#F1EFE8"/>
<path d="M45.0667 20.1095C44.259 20.1095 43.6037 19.4157 43.6037 18.5591C43.6037 17.703 44.259 17.0087 45.0667 17.0087C45.8743 17.0087 46.5289 17.703 46.5289 18.5591C46.5289 19.4157 45.8743 20.1095 45.0667 20.1095Z" fill="#F1EFE8"/>
<path d="M37.7537 12.3562C37.0294 12.3562 36.4316 11.7964 36.3155 11.0635L39.1015 10.2026C39.1751 10.3877 39.2163 10.5916 39.2163 10.8052C39.2163 11.6621 38.5614 12.3562 37.7537 12.3562Z" fill="#F1EFE8"/>
<path d="M45.0667 12.3562C44.259 12.3562 43.6037 11.6624 43.6037 10.8058C43.6037 9.95013 44.259 9.25586 45.0667 9.25586C45.8743 9.25586 46.5289 9.95013 46.5289 10.8058C46.5289 11.6624 45.8743 12.3562 45.0667 12.3562Z" fill="#F1EFE8"/>
<path d="M41.41 28.6376C42.2176 28.6376 42.8726 29.3322 42.8726 30.1886C42.8726 30.4866 42.7893 30.7622 42.6522 30.9987L39.9651 30.0048C40.0517 29.2363 40.6617 28.6376 41.41 28.6376Z" fill="#F1EFE8"/>
<path d="M37.7537 24.7622C38.5614 24.7622 39.2163 25.4565 39.2163 26.3122C39.2163 27.1687 38.5614 27.8625 37.7537 27.8625C36.9461 27.8625 36.2907 27.1687 36.2907 26.3122C36.2907 25.4565 36.9461 24.7622 37.7537 24.7622Z" fill="#F1EFE8"/>
<path d="M45.0667 24.7622C45.8743 24.7622 46.5289 25.4565 46.5289 26.3122C46.5289 27.1687 45.8743 27.8625 45.0667 27.8625C44.259 27.8625 43.6037 27.1687 43.6037 26.3122C43.6037 25.4565 44.259 24.7622 45.0667 24.7622Z" fill="#F1EFE8"/>
<path d="M48.723 28.6387C49.5306 28.6387 50.1856 29.333 50.1856 30.1891C50.1856 31.0452 49.5306 31.7395 48.723 31.7395C47.9153 31.7395 47.2604 31.0452 47.2604 30.1891C47.2604 29.333 47.9153 28.6387 48.723 28.6387Z" fill="#F1EFE8"/>
<path d="M41.41 23.9861C40.6023 23.9861 39.9474 23.2923 39.9474 22.4357C39.9474 22.1146 40.0395 21.8164 40.1973 21.5689C40.4602 21.1564 40.9052 20.8853 41.41 20.8853C41.9152 20.8853 42.3598 21.1564 42.6227 21.5689C42.7805 21.8164 42.8726 22.1146 42.8726 22.4357C42.8726 23.2923 42.2176 23.9861 41.41 23.9861Z" fill="#F1EFE8"/>
<path d="M34.0974 23.9861C33.2898 23.9861 32.6344 23.2923 32.6344 22.4357C32.6344 22.1146 32.7269 21.8164 32.8847 21.5689C33.1472 21.1564 33.5922 20.8853 34.0974 20.8853C34.6022 20.8853 35.0468 21.1564 35.3097 21.5689C35.4675 21.8164 35.5596 22.1146 35.5596 22.4357C35.5596 23.2923 34.9051 23.9861 34.0974 23.9861Z" fill="#F1EFE8"/>
<path d="M59.6918 4.60315C59.2926 4.60315 58.9313 4.43208 58.6675 4.1565L61.114 3.39898C60.9647 4.08817 60.3863 4.60315 59.6918 4.60315Z" fill="#F1EFE8"/>
<path d="M56.0355 13.1323C56.8436 13.1323 57.4982 13.8266 57.4982 14.6827C57.4982 15.5388 56.8436 16.2327 56.0355 16.2327C55.2279 16.2327 54.573 15.5388 54.573 14.6827C54.573 13.8266 55.2279 13.1323 56.0355 13.1323Z" fill="#F1EFE8"/>
<path d="M48.723 16.2327C47.9153 16.2327 47.2604 15.5388 47.2604 14.6827C47.2604 13.8266 47.9153 13.1323 48.723 13.1323C49.5306 13.1323 50.1856 13.8266 50.1856 14.6827C50.1856 15.5388 49.5306 16.2327 48.723 16.2327Z" fill="#F1EFE8"/>
<path d="M52.3793 17.0087C53.1869 17.0087 53.8419 17.703 53.8419 18.5591C53.8419 19.4157 53.1869 20.1095 52.3793 20.1095C51.5721 20.1095 50.9167 19.4157 50.9167 18.5591C50.9167 17.703 51.5721 17.0087 52.3793 17.0087Z" fill="#F1EFE8"/>
<path d="M52.3793 9.25586C53.1869 9.25586 53.8419 9.95013 53.8419 10.8058C53.8419 11.6624 53.1869 12.3562 52.3793 12.3562C51.5721 12.3562 50.9167 11.6624 50.9167 10.8058C50.9167 9.95013 51.5721 9.25586 52.3793 9.25586Z" fill="#F1EFE8"/>
<path d="M58.2296 10.8057C58.2296 9.94999 58.8842 9.25571 59.6918 9.25571C59.8088 9.25571 59.9202 9.27356 60.0288 9.30076L58.9544 12.1376C58.5228 11.8682 58.2296 11.3755 58.2296 10.8057Z" fill="#F1EFE8"/>
<path d="M56.0355 8.47961C55.2279 8.47961 54.573 7.78535 54.573 6.92922C54.573 6.60818 54.6651 6.30985 54.8228 6.06238C55.0857 5.64992 55.5312 5.37883 56.0355 5.37883C56.5403 5.37883 56.9858 5.64992 57.2487 6.06238C57.4065 6.30985 57.4982 6.60818 57.4982 6.92922C57.4982 7.78535 56.8436 8.47961 56.0355 8.47961Z" fill="#F1EFE8"/>
<path d="M48.723 8.47961C48.1551 8.47961 47.6676 8.13237 47.4253 7.63027L50.1713 6.78094C50.1759 6.83004 50.1856 6.87734 50.1856 6.92777C50.1856 7.7847 49.5306 8.47961 48.723 8.47961Z" fill="#F1EFE8"/>
<path d="M56.0355 28.6387C56.8436 28.6387 57.4982 29.333 57.4982 30.1891C57.4982 31.0452 56.8436 31.7395 56.0355 31.7395C55.2279 31.7395 54.573 31.0452 54.573 30.1891C54.573 29.333 55.2279 28.6387 56.0355 28.6387Z" fill="#F1EFE8"/>
<path d="M52.3793 32.5141C53.1869 32.5141 53.8419 33.2086 53.8419 34.0651C53.8419 34.4273 53.7199 34.756 53.5239 35.0197L50.9175 34.0557C50.9226 33.2037 51.5746 32.5141 52.3793 32.5141Z" fill="#F1EFE8"/>
<path d="M59.6918 35.616C58.8842 35.616 58.2297 34.9222 58.2297 34.0656C58.2297 33.2094 58.8842 32.5152 59.6918 32.5152C59.9543 32.5152 60.1975 32.5941 60.4103 32.723L61.0707 34.5632C60.8743 35.1741 60.335 35.616 59.6918 35.616Z" fill="#F1EFE8"/>
<path d="M52.3793 24.7622C53.1869 24.7622 53.8419 25.4565 53.8419 26.3122C53.8419 27.1687 53.1869 27.8625 52.3793 27.8625C51.5721 27.8625 50.9167 27.1687 50.9167 26.3122C50.9167 25.4565 51.5721 24.7622 52.3793 24.7622Z" fill="#F1EFE8"/>
<path d="M62.0391 37.2625L62.4139 38.3074L61.9028 38.1186C61.8965 38.0597 61.886 38.0021 61.886 37.9419C61.886 37.6968 61.944 37.4687 62.0391 37.2625Z" fill="#F1EFE8"/>
<path d="M56.0355 23.9861C55.2279 23.9861 54.5729 23.2923 54.5729 22.4357C54.5729 22.1146 54.665 21.8164 54.8228 21.5689C55.0857 21.1564 55.5312 20.8853 56.0355 20.8853C56.0814 20.8853 56.1251 20.8951 56.1701 20.8996L57.1002 23.4929C56.8335 23.7948 56.457 23.9861 56.0355 23.9861Z" fill="#F1EFE8"/>
<path d="M48.723 23.9861C47.9153 23.9861 47.2604 23.2923 47.2604 22.4357C47.2604 22.1146 47.3521 21.8164 47.5098 21.5689C47.7727 21.1564 48.2182 20.8853 48.723 20.8853C49.2274 20.8853 49.6728 21.1564 49.9357 21.5689C50.0935 21.8164 50.1856 22.1146 50.1856 22.4357C50.1856 23.2923 49.5306 23.9861 48.723 23.9861Z" fill="#F1EFE8"/>
</svg>
