<svg width="65" height="49" viewBox="0 0 65 49" fill="none" xmlns="http://www.w3.org/2000/svg">
<path d="M0 40.9753L0.0235691 48.2832L40.3689 31.2939V40.4838L65 25.1563L64.9697 20.0194L59.1357 19.953V20.9034L56.8903 19.8968L55.3549 19.1551L40.8455 9.80732L40.3689 19.0182L9.08856 20.2585L0 40.9753Z" fill="#7595BE"/>
<path d="M7.45307 20.1934L0.00590511 0.519756L40.6251 13.0706L40.3689 4.58089L65 19.9067L40.3689 35.2342V26.0447L0 40.9753L7.45307 20.1934Z" fill="#7595BE"/>
<path d="M15.0643 21.5683C15.3272 21.1558 15.7726 20.8846 16.277 20.8846C16.7818 20.8846 17.2273 21.1558 17.4902 21.5683C17.6479 21.8159 17.7396 22.1142 17.7396 22.4353C17.7396 23.2921 17.0846 23.986 16.277 23.986C15.4693 23.986 14.8144 23.2921 14.8144 22.4353C14.8144 22.1142 14.9065 21.8159 15.0643 21.5683ZM8.96444 16.2326C8.15637 16.2326 7.50182 15.5386 7.50182 14.6824C7.50182 13.8261 8.15637 13.1317 8.96444 13.1317C9.77208 13.1317 10.427 13.8261 10.427 14.6824C10.427 15.5386 9.77208 16.2326 8.96444 16.2326ZM7.75127 6.06193C8.01418 5.64939 8.45966 5.37826 8.96444 5.37826C9.4688 5.37826 9.91426 5.64939 10.1772 6.06193C10.3349 6.30945 10.427 6.60783 10.427 6.92894C10.427 7.78522 9.77208 8.47962 8.96444 8.47962C8.15637 8.47962 7.50182 7.78522 7.50182 6.92894C7.50182 6.60783 7.59353 6.30945 7.75127 6.06193ZM14.0833 18.5588C14.0833 19.4156 13.4279 20.1095 12.6207 20.1095C11.8131 20.1095 11.1581 19.4156 11.1581 18.5588C11.1581 17.7025 11.8131 17.0081 12.6207 17.0081C13.4279 17.0081 14.0833 17.7025 14.0833 18.5588ZM12.6207 12.3561C11.8131 12.3561 11.1581 11.6622 11.1581 10.8054C11.1581 9.94959 11.8131 9.25519 12.6207 9.25519C13.4279 9.25519 14.0833 9.94959 14.0833 10.8054C14.0833 11.6622 13.4279 12.3561 12.6207 12.3561ZM16.277 13.1317C17.0846 13.1317 17.7396 13.8261 17.7396 14.6824C17.7396 15.5386 17.0846 16.2326 16.277 16.2326C15.4693 16.2326 14.8144 15.5386 14.8144 14.6824C14.8144 13.8261 15.4693 13.1317 16.277 13.1317ZM19.9333 17.0081C20.7409 17.0081 21.3963 17.7025 21.3963 18.5588C21.3963 19.4156 20.7409 20.1095 19.9333 20.1095C19.1256 20.1095 18.4711 19.4156 18.4711 18.5588C18.4711 17.7025 19.1256 17.0081 19.9333 17.0081ZM19.9333 9.25519C20.7409 9.25519 21.3963 9.94959 21.3963 10.8054C21.3963 11.6622 20.7409 12.3561 19.9333 12.3561C19.1256 12.3561 18.4711 11.6622 18.4711 10.8054C18.4711 9.94959 19.1256 9.25519 19.9333 9.25519ZM22.3773 21.5683C22.6402 21.1558 23.0848 20.8846 23.59 20.8846C24.0948 20.8846 24.5398 21.1558 24.8027 21.5683C24.9605 21.8159 25.0526 22.1142 25.0526 22.4353C25.0526 23.2921 24.3976 23.986 23.59 23.986C22.7823 23.986 22.1274 23.2921 22.1274 22.4353C22.1274 22.1142 22.2195 21.8159 22.3773 21.5683ZM23.59 13.1317C24.3976 13.1317 25.0526 13.8261 25.0526 14.6824C25.0526 15.5386 24.3976 16.2326 23.59 16.2326C22.7823 16.2326 22.1274 15.5386 22.1274 14.6824C22.1274 13.8261 22.7823 13.1317 23.59 13.1317ZM27.2463 17.0081C28.0539 17.0081 28.7093 17.7025 28.7093 18.5588C28.7093 19.4156 28.0539 20.1095 27.2463 20.1095C26.4386 20.1095 25.7837 19.4156 25.7837 18.5588C25.7837 17.7025 26.4386 17.0081 27.2463 17.0081ZM29.6903 21.5683C29.9532 21.1558 30.3978 20.8846 30.9025 20.8846C31.4077 20.8846 31.8528 21.1558 32.1153 21.5683C32.273 21.8159 32.3656 22.1142 32.3656 22.4353C32.3656 23.2921 31.7102 23.986 30.9025 23.986C30.0949 23.986 29.4404 23.2921 29.4404 22.4353C29.4404 22.1142 29.5325 21.8159 29.6903 21.5683ZM30.9025 13.1317C31.7102 13.1317 32.3656 13.8261 32.3656 14.6824C32.3656 15.5386 31.7102 16.2326 30.9025 16.2326C30.0949 16.2326 29.4404 15.5386 29.4404 14.6824C29.4404 13.8261 30.0949 13.1317 30.9025 13.1317ZM34.5592 17.0081C35.3669 17.0081 36.0219 17.7025 36.0219 18.5588C36.0219 19.4156 35.3669 20.1095 34.5592 20.1095C33.7516 20.1095 33.0967 19.4156 33.0967 18.5588C33.0967 17.7025 33.7516 17.0081 34.5592 17.0081ZM37.0028 21.5683C37.2657 21.1558 37.7108 20.8846 38.2155 20.8846C38.7203 20.8846 39.1654 21.1558 39.4283 21.5683C39.586 21.8159 39.6786 22.1142 39.6786 22.4353C39.6786 23.2921 39.0232 23.986 38.2155 23.986C37.4079 23.986 36.7534 23.2921 36.7534 22.4353C36.7534 22.1142 36.8451 21.8159 37.0028 21.5683ZM41.8722 17.0081C42.6795 17.0081 43.3344 17.7025 43.3344 18.5588C43.3344 19.4156 42.6795 20.1095 41.8722 20.1095C41.0646 20.1095 40.4096 19.4156 40.4096 18.5588C40.4096 17.7025 41.0646 17.0081 41.8722 17.0081ZM44.3158 21.5683C44.5783 21.1558 45.0238 20.8846 45.5285 20.8846C46.0333 20.8846 46.4784 21.1558 46.7413 21.5683C46.899 21.8159 46.9911 22.1142 46.9911 22.4353C46.9911 23.2921 46.3362 23.986 45.5285 23.986C44.7209 23.986 44.0659 23.2921 44.0659 22.4353C44.0659 22.1142 44.1581 21.8159 44.3158 21.5683ZM45.5285 13.1317C46.3362 13.1317 46.9911 13.8261 46.9911 14.6824C46.9911 15.5386 46.3362 16.2326 45.5285 16.2326C44.7209 16.2326 44.0659 15.5386 44.0659 14.6824C44.0659 13.8261 44.7209 13.1317 45.5285 13.1317ZM49.1848 17.0081C49.9925 17.0081 50.6474 17.7025 50.6474 18.5588C50.6474 19.4156 49.9925 20.1095 49.1848 20.1095C48.3768 20.1095 47.7226 19.4156 47.7226 18.5588C47.7226 17.7025 48.3768 17.0081 49.1848 17.0081ZM51.6284 21.5683C51.8913 21.1558 52.3367 20.8846 52.8415 20.8846C53.3459 20.8846 53.7913 21.1558 54.0543 21.5683C54.212 21.8159 54.3037 22.1142 54.3037 22.4353C54.3037 23.2921 53.6492 23.986 52.8415 23.986C52.0335 23.986 51.3785 23.2921 51.3785 22.4353C51.3785 22.1142 51.471 21.8159 51.6284 21.5683ZM56.4978 17.0081C57.305 17.0081 57.9604 17.7025 57.9604 18.5588C57.9604 19.4156 57.305 20.1095 56.4978 20.1095C55.6897 20.1095 55.0352 19.4156 55.0352 18.5588C55.0352 17.7025 55.6897 17.0081 56.4978 17.0081ZM27.2463 27.8625C26.4386 27.8625 25.7837 27.1685 25.7837 26.3118C25.7837 25.456 26.4386 24.7616 27.2463 24.7616C28.0539 24.7616 28.7093 25.456 28.7093 26.3118C28.7093 27.1685 28.0539 27.8625 27.2463 27.8625ZM19.9333 27.8625C19.1256 27.8625 18.4711 27.1685 18.4711 26.3118C18.4711 25.456 19.1256 24.7616 19.9333 24.7616C20.7409 24.7616 21.3963 25.456 21.3963 26.3118C21.3963 27.1685 20.7409 27.8625 19.9333 27.8625ZM16.277 31.7394C15.4693 31.7394 14.8144 31.045 14.8144 30.1887C14.8144 29.3325 15.4693 28.6381 16.277 28.6381C17.0846 28.6381 17.7396 29.3325 17.7396 30.1887C17.7396 31.045 17.0846 31.7394 16.277 31.7394ZM12.6207 27.8625C11.8131 27.8625 11.1581 27.1685 11.1581 26.3118C11.1581 25.456 11.8131 24.7616 12.6207 24.7616C13.4279 24.7616 14.0833 25.456 14.0833 26.3118C14.0833 27.1685 13.4279 27.8625 12.6207 27.8625ZM8.96444 31.7394C8.15637 31.7394 7.50182 31.045 7.50182 30.1887C7.50182 29.3325 8.15637 28.6381 8.96444 28.6381C9.77208 28.6381 10.427 29.3325 10.427 30.1887C10.427 31.045 9.77208 31.7394 8.96444 31.7394ZM11.1581 34.0652C11.1581 33.2089 11.8131 32.5146 12.6207 32.5146C13.4254 32.5146 14.0774 33.204 14.0825 34.0559L22.3478 30.9986C22.2107 30.7623 22.1274 30.4867 22.1274 30.1887C22.1274 29.3325 22.7823 28.6381 23.59 28.6381C24.3383 28.6381 24.9483 29.2366 25.0349 30.005L33.2397 26.9705C33.1505 26.7698 33.0967 26.5486 33.0967 26.3118C33.0967 25.456 33.7516 24.7616 34.5592 24.7616C35.2508 24.7616 35.8275 25.2727 35.9798 25.9573L41.8924 23.7702V24.7638C42.6904 24.7758 43.3344 25.4636 43.3344 26.3118C43.3344 27.161 42.6904 27.8487 41.8924 27.8607V32.4133L44.2569 30.9416C44.1391 30.7177 44.0659 30.4635 44.0659 30.1887C44.0659 29.3325 44.7209 28.6381 45.5285 28.6381C46.0548 28.6381 46.5124 28.9355 46.7699 29.3779L49.2092 27.8603C49.2008 27.8603 49.1932 27.8625 49.1848 27.8625C48.3768 27.8625 47.7226 27.1685 47.7226 26.3118C47.7226 25.456 48.3768 24.7616 49.1848 24.7616C49.9925 24.7616 50.6474 25.456 50.6474 26.3118C50.6474 26.5981 50.5692 26.8631 50.4417 27.0932L58.7866 21.9001C58.8274 21.7833 58.8761 21.6705 58.9413 21.5683C59.2043 21.1558 59.6493 20.8846 60.1537 20.8846C60.2315 20.8846 60.306 20.8962 60.38 20.9087L61.9902 19.9066L54.2469 15.0887C54.0774 15.7465 53.5154 16.2326 52.8415 16.2326C52.0335 16.2326 51.3785 15.5386 51.3785 14.6824C51.3785 14.2493 51.5472 13.8582 51.8172 13.5768L49.6921 12.2549C49.5335 12.3173 49.364 12.3561 49.1848 12.3561C48.4537 12.3561 47.8535 11.7861 47.7445 11.0431L41.9799 7.45609L42.0346 9.27258C42.7649 9.35955 43.3344 10.0085 43.3344 10.8054C43.3344 11.5694 42.8128 12.2004 42.1272 12.3289L42.2151 15.2443L39.6567 14.454C39.6668 14.5289 39.6786 14.6039 39.6786 14.6824C39.6786 15.5386 39.0232 16.2326 38.2155 16.2326C37.4079 16.2326 36.7534 15.5386 36.7534 14.6824C36.7534 14.293 36.8934 13.9416 37.1168 13.6691L28.6845 11.0636C28.5684 11.7964 27.9706 12.3561 27.2463 12.3561C26.4386 12.3561 25.7837 11.6622 25.7837 10.8054C25.7837 10.5918 25.8249 10.388 25.8985 10.2029L17.5747 7.6309C17.3324 8.13263 16.8449 8.47962 16.277 8.47962C15.4693 8.47962 14.8144 7.78522 14.8144 6.92894C14.8144 6.87854 14.8241 6.83127 14.8287 6.78222L6.33243 4.15714C6.06868 4.43231 5.70734 4.60312 5.30815 4.60312C4.61365 4.60312 4.03527 4.08891 3.88594 3.40076L2.58612 2.99936L4.9712 9.30024C5.07972 9.27303 5.19121 9.25519 5.30815 9.25519C6.11579 9.25519 6.77033 9.94959 6.77033 10.8054C6.77033 11.3754 6.47713 11.8682 6.04554 12.1376L9.08852 20.1777L8.82983 20.8989C8.87484 20.8944 8.91859 20.8846 8.96444 20.8846C9.4688 20.8846 9.91426 21.1558 10.1772 21.5683C10.3349 21.8159 10.427 22.1142 10.427 22.4353C10.427 23.2921 9.77208 23.986 8.96444 23.986C8.54295 23.986 8.16646 23.7947 7.89977 23.4928L4.58967 32.7224C4.80252 32.5935 5.04566 32.5146 5.30815 32.5146C6.11579 32.5146 6.77033 33.2089 6.77033 34.0652C6.77033 34.922 6.11579 35.6159 5.30815 35.6159C4.66497 35.6159 4.12569 35.1739 3.92925 34.5629L2.96092 37.2634C3.05598 37.4694 3.11404 37.6973 3.11404 37.9422C3.11404 38.0024 3.10353 38.0599 3.09722 38.1188L11.4761 35.0196C11.2801 34.7561 11.1581 34.4274 11.1581 34.0652Z" fill="#EFB7BA"/>
<path d="M58.9414 21.5681C58.8762 21.6703 58.8274 21.7832 58.7866 21.9001L60.38 20.908C60.306 20.8955 60.2315 20.8839 60.1537 20.8839C59.6493 20.8839 59.2043 21.1553 58.9414 21.5681Z" fill="#F1EFE8"/>
<path d="M51.3785 14.6821C51.3785 15.5386 52.0335 16.2327 52.8416 16.2327C53.5155 16.2327 54.0774 15.7465 54.247 15.0885L51.8173 13.5763C51.5472 13.8578 51.3785 14.249 51.3785 14.6821Z" fill="#F1EFE8"/>
<path d="M56.4978 20.1095C57.3051 20.1095 57.9604 19.4157 57.9604 18.5591C57.9604 17.703 57.3051 17.0087 56.4978 17.0087C55.6898 17.0087 55.0352 17.703 55.0352 18.5591C55.0352 19.4157 55.6898 20.1095 56.4978 20.1095Z" fill="#F1EFE8"/>
<path d="M49.1848 20.1095C49.9925 20.1095 50.6474 19.4157 50.6474 18.5591C50.6474 17.703 49.9925 17.0087 49.1848 17.0087C48.3768 17.0087 47.7227 17.703 47.7227 18.5591C47.7227 19.4157 48.3768 20.1095 49.1848 20.1095Z" fill="#F1EFE8"/>
<path d="M49.1848 12.3561C49.364 12.3561 49.5335 12.3172 49.6921 12.2547L47.7445 11.0411C47.8535 11.7852 48.4537 12.3561 49.1848 12.3561Z" fill="#F1EFE8"/>
<path d="M49.1848 24.7622C48.3768 24.7622 47.7227 25.4565 47.7227 26.3122C47.7227 27.1687 48.3768 27.8625 49.1848 27.8625C49.1933 27.8625 49.2008 27.8603 49.2092 27.8603L50.4417 27.0934C50.5692 26.8633 50.6474 26.5984 50.6474 26.3122C50.6474 25.4565 49.9925 24.7622 49.1848 24.7622Z" fill="#F1EFE8"/>
<path d="M45.5286 28.6376C44.7209 28.6376 44.066 29.3321 44.066 30.1886C44.066 30.4634 44.1392 30.7176 44.2569 30.9415L46.7699 29.3776C46.5125 28.9351 46.0548 28.6376 45.5286 28.6376Z" fill="#F1EFE8"/>
<path d="M52.8416 23.9861C53.6492 23.9861 54.3038 23.2923 54.3038 22.4357C54.3038 22.1146 54.212 21.8164 54.0543 21.5689C53.7914 21.1564 53.3459 20.8853 52.8416 20.8853C52.3368 20.8853 51.8913 21.1564 51.6284 21.5689C51.4711 21.8164 51.3785 22.1146 51.3785 22.4357C51.3785 23.2923 52.0335 23.9861 52.8416 23.9861Z" fill="#F1EFE8"/>
<path d="M38.2156 16.2327C39.0232 16.2327 39.6786 15.5386 39.6786 14.6821C39.6786 14.6036 39.6669 14.5287 39.6568 14.4537L37.1169 13.6687C36.8935 13.9412 36.7534 14.2927 36.7534 14.6821C36.7534 15.5386 37.408 16.2327 38.2156 16.2327Z" fill="#F1EFE8"/>
<path d="M45.5286 16.2327C46.3362 16.2327 46.9912 15.5388 46.9912 14.6827C46.9912 13.8266 46.3362 13.1323 45.5286 13.1323C44.7209 13.1323 44.066 13.8266 44.066 14.6827C44.066 15.5388 44.7209 16.2327 45.5286 16.2327Z" fill="#F1EFE8"/>
<path d="M41.8723 20.1095C42.6795 20.1095 43.3344 19.4157 43.3344 18.5591C43.3344 17.703 42.6795 17.0087 41.8723 17.0087C41.0646 17.0087 40.4097 17.703 40.4097 18.5591C40.4097 19.4157 41.0646 20.1095 41.8723 20.1095Z" fill="#F1EFE8"/>
<path d="M34.5593 20.1095C35.3669 20.1095 36.0219 19.4157 36.0219 18.5591C36.0219 17.703 35.3669 17.0087 34.5593 17.0087C33.7516 17.0087 33.0967 17.703 33.0967 18.5591C33.0967 19.4157 33.7516 20.1095 34.5593 20.1095Z" fill="#F1EFE8"/>
<path d="M43.3345 10.8057C43.3345 10.0089 42.7649 9.36007 42.0347 9.27312L42.1272 12.3289C42.8129 12.2004 43.3345 11.5695 43.3345 10.8057Z" fill="#F1EFE8"/>
<path d="M43.3344 26.3121C43.3344 25.464 42.6904 24.7764 41.8925 24.7644V27.8607C42.6904 27.8487 43.3344 27.1611 43.3344 26.3121Z" fill="#F1EFE8"/>
<path d="M34.5593 24.7611C33.7516 24.7611 33.0967 25.4556 33.0967 26.3116C33.0967 26.5485 33.1505 26.7697 33.2397 26.9705L35.9798 25.957C35.8275 25.2723 35.2508 24.7611 34.5593 24.7611Z" fill="#F1EFE8"/>
<path d="M38.2156 23.9861C39.0232 23.9861 39.6786 23.2923 39.6786 22.4357C39.6786 22.1146 39.5861 21.8164 39.4283 21.5689C39.1654 21.1564 38.7204 20.8853 38.2156 20.8853C37.7108 20.8853 37.2658 21.1564 37.0029 21.5689C36.8451 21.8164 36.7534 22.1146 36.7534 22.4357C36.7534 23.2923 37.408 23.9861 38.2156 23.9861Z" fill="#F1EFE8"/>
<path d="M45.5286 23.9861C46.3362 23.9861 46.9912 23.2923 46.9912 22.4357C46.9912 22.1146 46.899 21.8164 46.7413 21.5689C46.4784 21.1564 46.0334 20.8853 45.5286 20.8853C45.0238 20.8853 44.5783 21.1564 44.3158 21.5689C44.1581 21.8164 44.066 22.1146 44.066 22.4357C44.066 23.2923 44.7209 23.9861 45.5286 23.9861Z" fill="#F1EFE8"/>
<path d="M23.59 16.2327C24.3977 16.2327 25.0526 15.5388 25.0526 14.6827C25.0526 13.8266 24.3977 13.1323 23.59 13.1323C22.7824 13.1323 22.1274 13.8266 22.1274 14.6827C22.1274 15.5388 22.7824 16.2327 23.59 16.2327Z" fill="#F1EFE8"/>
<path d="M30.9026 16.2327C31.7102 16.2327 32.3656 15.5388 32.3656 14.6827C32.3656 13.8266 31.7102 13.1323 30.9026 13.1323C30.0949 13.1323 29.4404 13.8266 29.4404 14.6827C29.4404 15.5388 30.0949 16.2327 30.9026 16.2327Z" fill="#F1EFE8"/>
<path d="M27.2463 20.1095C28.054 20.1095 28.7093 19.4157 28.7093 18.5591C28.7093 17.703 28.054 17.0087 27.2463 17.0087C26.4387 17.0087 25.7837 17.703 25.7837 18.5591C25.7837 19.4157 26.4387 20.1095 27.2463 20.1095Z" fill="#F1EFE8"/>
<path d="M19.9333 20.1095C20.741 20.1095 21.3963 19.4157 21.3963 18.5591C21.3963 17.703 20.741 17.0087 19.9333 17.0087C19.1257 17.0087 18.4711 17.703 18.4711 18.5591C18.4711 19.4157 19.1257 20.1095 19.9333 20.1095Z" fill="#F1EFE8"/>
<path d="M27.2463 12.3561C27.9707 12.3561 28.5684 11.7963 28.6845 11.0634L25.8985 10.2025C25.8249 10.3876 25.7837 10.5914 25.7837 10.8051C25.7837 11.662 26.4387 12.3561 27.2463 12.3561Z" fill="#F1EFE8"/>
<path d="M19.9333 12.3561C20.741 12.3561 21.3963 11.6623 21.3963 10.8057C21.3963 9.95001 20.741 9.25573 19.9333 9.25573C19.1257 9.25573 18.4711 9.95001 18.4711 10.8057C18.4711 11.6623 19.1257 12.3561 19.9333 12.3561Z" fill="#F1EFE8"/>
<path d="M23.59 28.6376C22.7824 28.6376 22.1274 29.3322 22.1274 30.1886C22.1274 30.4866 22.2107 30.7622 22.3479 30.9987L25.035 30.0048C24.9483 29.2363 24.3384 28.6376 23.59 28.6376Z" fill="#F1EFE8"/>
<path d="M27.2463 24.7622C26.4387 24.7622 25.7837 25.4565 25.7837 26.3122C25.7837 27.1687 26.4387 27.8625 27.2463 27.8625C28.054 27.8625 28.7093 27.1687 28.7093 26.3122C28.7093 25.4565 28.054 24.7622 27.2463 24.7622Z" fill="#F1EFE8"/>
<path d="M19.9333 24.7622C19.1257 24.7622 18.4711 25.4565 18.4711 26.3122C18.4711 27.1687 19.1257 27.8625 19.9333 27.8625C20.741 27.8625 21.3963 27.1687 21.3963 26.3122C21.3963 25.4565 20.741 24.7622 19.9333 24.7622Z" fill="#F1EFE8"/>
<path d="M16.277 28.6386C15.4693 28.6386 14.8144 29.3329 14.8144 30.189C14.8144 31.0451 15.4693 31.7394 16.277 31.7394C17.0846 31.7394 17.7396 31.0451 17.7396 30.189C17.7396 29.3329 17.0846 28.6386 16.277 28.6386Z" fill="#F1EFE8"/>
<path d="M23.59 23.9861C24.3977 23.9861 25.0526 23.2923 25.0526 22.4357C25.0526 22.1146 24.9605 21.8164 24.8028 21.5689C24.5399 21.1564 24.0948 20.8853 23.59 20.8853C23.0848 20.8853 22.6402 21.1564 22.3773 21.5689C22.2196 21.8164 22.1274 22.1146 22.1274 22.4357C22.1274 23.2923 22.7824 23.9861 23.59 23.9861Z" fill="#F1EFE8"/>
<path d="M30.9026 23.9861C31.7102 23.9861 32.3656 23.2923 32.3656 22.4357C32.3656 22.1146 32.2731 21.8164 32.1153 21.5689C31.8528 21.1564 31.4078 20.8853 30.9026 20.8853C30.3978 20.8853 29.9532 21.1564 29.6903 21.5689C29.5325 21.8164 29.4404 22.1146 29.4404 22.4357C29.4404 23.2923 30.0949 23.9861 30.9026 23.9861Z" fill="#F1EFE8"/>
<path d="M5.30819 4.60315C5.70739 4.60315 6.06873 4.43208 6.33247 4.1565L3.88599 3.39898C4.03532 4.08817 4.6137 4.60315 5.30819 4.60315Z" fill="#F1EFE8"/>
<path d="M8.96445 13.1323C8.15638 13.1323 7.50183 13.8266 7.50183 14.6827C7.50183 15.5388 8.15638 16.2327 8.96445 16.2327C9.7721 16.2327 10.427 15.5388 10.427 14.6827C10.427 13.8266 9.7721 13.1323 8.96445 13.1323Z" fill="#F1EFE8"/>
<path d="M16.277 16.2327C17.0846 16.2327 17.7396 15.5388 17.7396 14.6827C17.7396 13.8266 17.0846 13.1323 16.277 13.1323C15.4693 13.1323 14.8144 13.8266 14.8144 14.6827C14.8144 15.5388 15.4693 16.2327 16.277 16.2327Z" fill="#F1EFE8"/>
<path d="M12.6207 17.0087C11.8131 17.0087 11.1581 17.703 11.1581 18.5591C11.1581 19.4157 11.8131 20.1095 12.6207 20.1095C13.428 20.1095 14.0833 19.4157 14.0833 18.5591C14.0833 17.703 13.428 17.0087 12.6207 17.0087Z" fill="#F1EFE8"/>
<path d="M12.6207 9.25573C11.8131 9.25573 11.1581 9.95001 11.1581 10.8057C11.1581 11.6623 11.8131 12.3561 12.6207 12.3561C13.428 12.3561 14.0833 11.6623 14.0833 10.8057C14.0833 9.95001 13.428 9.25573 12.6207 9.25573Z" fill="#F1EFE8"/>
<path d="M6.77039 10.8057C6.77039 9.94999 6.11585 9.25571 5.3082 9.25571C5.19126 9.25571 5.07978 9.27356 4.97125 9.30076L6.0456 12.1376C6.47718 11.8682 6.77039 11.3755 6.77039 10.8057Z" fill="#F1EFE8"/>
<path d="M8.96445 8.47961C9.7721 8.47961 10.427 7.78535 10.427 6.92922C10.427 6.60818 10.3349 6.30985 10.1772 6.06238C9.91427 5.64992 9.46881 5.37883 8.96445 5.37883C8.45967 5.37883 8.01419 5.64992 7.75128 6.06238C7.59354 6.30985 7.50183 6.60818 7.50183 6.92922C7.50183 7.78535 8.15638 8.47961 8.96445 8.47961Z" fill="#F1EFE8"/>
<path d="M16.277 8.47961C16.8449 8.47961 17.3324 8.13237 17.5747 7.63027L14.8287 6.78094C14.8241 6.83004 14.8144 6.87734 14.8144 6.92777C14.8144 7.7847 15.4693 8.47961 16.277 8.47961Z" fill="#F1EFE8"/>
<path d="M8.96445 28.6386C8.15638 28.6386 7.50183 29.3329 7.50183 30.189C7.50183 31.0451 8.15638 31.7394 8.96445 31.7394C9.7721 31.7394 10.427 31.0451 10.427 30.189C10.427 29.3329 9.7721 28.6386 8.96445 28.6386Z" fill="#F1EFE8"/>
<path d="M12.6207 32.5141C11.8131 32.5141 11.1581 33.2086 11.1581 34.0651C11.1581 34.4273 11.2801 34.756 11.4761 35.0197L14.0825 34.0557C14.0775 33.2037 13.4254 32.5141 12.6207 32.5141Z" fill="#F1EFE8"/>
<path d="M5.30816 35.616C6.1158 35.616 6.77034 34.9222 6.77034 34.0656C6.77034 33.2094 6.1158 32.5152 5.30816 32.5152C5.04567 32.5152 4.80253 32.5941 4.58968 32.723L3.92926 34.5632C4.1257 35.1741 4.66498 35.616 5.30816 35.616Z" fill="#F1EFE8"/>
<path d="M12.6207 24.7622C11.8131 24.7622 11.1581 25.4565 11.1581 26.3122C11.1581 27.1687 11.8131 27.8625 12.6207 27.8625C13.428 27.8625 14.0833 27.1687 14.0833 26.3122C14.0833 25.4565 13.428 24.7622 12.6207 24.7622Z" fill="#F1EFE8"/>
<path d="M2.96092 37.2625L2.58612 38.3074L3.09722 38.1186C3.10353 38.0597 3.11404 38.0021 3.11404 37.9419C3.11404 37.6968 3.05598 37.4687 2.96092 37.2625Z" fill="#F1EFE8"/>
<path d="M8.96445 23.9861C9.77209 23.9861 10.427 23.2923 10.427 22.4357C10.427 22.1146 10.3349 21.8164 10.1772 21.5689C9.91427 21.1564 9.4688 20.8853 8.96445 20.8853C8.9186 20.8853 8.87484 20.8951 8.82984 20.8996L7.89978 23.4929C8.16647 23.7948 8.54296 23.9861 8.96445 23.9861Z" fill="#F1EFE8"/>
<path d="M16.277 23.9861C17.0846 23.9861 17.7396 23.2923 17.7396 22.4357C17.7396 22.1146 17.6479 21.8164 17.4902 21.5689C17.2272 21.1564 16.7818 20.8853 16.277 20.8853C15.7726 20.8853 15.3272 21.1564 15.0643 21.5689C14.9065 21.8164 14.8144 22.1146 14.8144 22.4357C14.8144 23.2923 15.4693 23.9861 16.277 23.9861Z" fill="#F1EFE8"/>
</svg>
