<svg width="168" height="119" viewBox="0 0 168 119" fill="none" xmlns="http://www.w3.org/2000/svg">
<g clip-path="url(#clip0_242_476)">
<path d="M117.547 93.1506L64.4104 45.4804L54.0029 49.7974L63.0518 61.9167L85.0458 80.4457L104.058 95.6781C104.058 95.6781 107.52 98.1706 117.547 93.1506" fill="#B9BBB9"/>
<path d="M130.587 57.4513L114.741 73.6183C114.741 73.6183 104.214 85.4142 100.426 88.364C96.6372 91.3138 92.9971 103.901 78.6565 108.378C64.316 112.855 66.357 113.696 66.357 113.696L96.7635 119L107.435 114.513C107.435 114.513 116.803 106.89 117.758 104.549C118.715 102.208 127.728 89.7868 128.923 86.8598C130.117 83.9328 151.573 62.3319 154.954 60.3979L130.587 57.4513" fill="#839C9E"/>
<path d="M80.3446 107.793L105.146 111.79L108.865 113.327L107.435 114.513L96.7634 119L66.3569 113.698C66.3569 113.698 69.416 109.799 80.3446 107.793Z" fill="#B7C4C2"/>
<path d="M119.169 102.096L92.1845 99.3997L92.8125 98.6558L119.655 101.337L119.169 102.096" fill="#617576"/>
<path d="M127.484 89.4531L101.208 87.7145L102.04 86.9656L127.952 88.6799L127.484 89.4531Z" fill="#617576"/>
<path d="M136.245 78.2856L111.31 77.3984L112.022 76.6203L136.985 77.5075L136.245 78.2856Z" fill="#617576"/>
<path d="M146.874 67.5575L120.592 67.6487L121.38 66.8429L147.711 66.7517L146.874 67.5575" fill="#617576"/>
<path d="M127.325 61.85C117.533 63.7579 109.801 53.6501 107.226 40.0325C104.448 25.3421 107.495 6.87005 118.376 2.29721L121.403 1.02416C123.031 0.338799 124.781 -0.00958345 126.547 0.000184111L152.531 0.125538L152.656 61.3633L127.325 61.85" fill="#839C9E"/>
<path d="M135.553 40.9979L107.349 40.6626L107.226 39.8584L135.562 40.1953L135.553 40.9979Z" fill="#617576"/>
<path d="M134.69 22.2197L106.664 22.8351L106.773 22.0309L134.672 21.4172L134.69 22.2197Z" fill="#617576"/>
<path d="M140.026 7.08989L111.643 8.07153L112.232 7.24779L140.366 6.27593L140.026 7.08989Z" fill="#617576"/>
<path d="M142.134 56.2598L114.09 56.1963L113.466 55.3937L141.731 55.2928L142.134 56.2598Z" fill="#617576"/>
<path d="M134.337 31.4615L126.896 31.6569L126.875 30.8559L134.318 30.6589L134.337 31.4615Z" fill="#617576"/>
<path d="M137.917 48.698L130.145 48.9031L130.124 48.1005L137.61 47.9035L137.917 48.698Z" fill="#617576"/>
<path d="M140.572 73.8007L133.151 73.2178L133.212 72.4186L141.318 73.0551L140.572 73.8007Z" fill="#617576"/>
<path d="M123.06 96.2058L115.948 95.6474L116.01 94.8481L123.573 95.4423L123.06 96.2058Z" fill="#617576"/>
<path d="M114.832 108.003L107.809 107.453L107.87 106.652L115.583 107.258L114.832 108.003" fill="#617576"/>
<path d="M123.965 71.9888H116.337L117.123 71.1862H123.965V71.9888Z" fill="#617576"/>
<path d="M115.129 82.2219L107.629 81.3428L108.348 80.5826L115.225 81.4242L115.129 82.2219" fill="#617576"/>
<path d="M104.694 93.8063L96.9479 92.8588L97.44 92.11L104.79 93.0102L104.694 93.8063" fill="#617576"/>
<path d="M95.3812 104.717L87.5926 103.764L88.4683 103.063L95.4783 103.921L95.3812 104.717" fill="#617576"/>
<path d="M117.209 49.0171L109.947 49.2075L109.639 48.4131L117.188 48.2145L117.209 49.0171Z" fill="#617576"/>
<path d="M136.27 14.2429L128.827 14.4382L128.806 13.6373L136.595 13.4322L136.27 14.2429" fill="#617576"/>
<path d="M116.232 14.0915L108.597 14.2917L108.891 13.481L116.211 13.2889L116.232 14.0915Z" fill="#617576"/>
<path d="M113.875 30.9715L106.281 31.1702L106.264 30.3676L113.854 30.169L113.875 30.9715Z" fill="#617576"/>
<path d="M165.044 17.8471C168.94 31.144 166.574 55.5125 155.694 60.0869C144.812 64.6614 137.794 52.8036 135.219 39.186C132.442 24.4956 135.488 6.02347 146.369 1.45063C157.249 -3.12385 161.124 4.4688 165.044 17.8471" fill="#6D8385"/>
<path d="M148.143 5.38218C142.339 7.82244 139.63 14.2381 138.379 19.1902C136.787 25.4919 136.635 33.1302 137.961 40.1433C139.767 49.6992 143.495 56.6342 148.187 59.1721C150.746 60.5575 153.566 60.6193 156.568 59.3577C161.048 57.4742 164.355 51.6609 165.88 42.9905C167.225 35.3458 166.919 26.7031 165.082 20.434C162.67 12.2032 160.391 6.72522 156.482 4.85473C154.253 3.78844 151.526 3.961 148.143 5.38218M156.824 59.9747C153.629 61.3177 150.617 61.2461 147.871 59.7614C143.003 57.1275 139.152 50.0232 137.307 40.2687C135.964 33.1611 136.119 25.4187 137.734 19.0258C139.023 13.9255 141.829 7.31289 147.888 4.76519C151.453 3.26587 154.359 3.09821 156.767 4.25078C160.899 6.22871 163.256 11.8369 165.719 20.2452L165.401 20.3396L165.719 20.2452C167.584 26.6071 167.896 35.367 166.535 43.1061C164.97 52.0093 161.521 58 156.824 59.9747Z" fill="#839C9E"/>
<path d="M148.904 8.35308C143.487 10.6305 140.957 16.6213 139.79 21.2446C138.303 27.1328 138.16 34.268 139.4 40.8204C141.086 49.7447 144.566 56.2223 148.946 58.5925C151.332 59.8835 153.962 59.9404 156.762 58.7635C165.902 54.9215 168.109 34.0157 164.708 22.407C162.455 14.7199 160.326 9.60495 156.68 7.85981C154.603 6.86515 152.06 7.02632 148.904 8.35308M157.018 59.3804C154.024 60.6388 151.203 60.5721 148.631 59.1818C144.074 56.7155 140.471 50.0687 138.746 40.9458C137.49 34.299 137.634 27.0596 139.144 21.0802C140.35 16.3088 142.977 10.1194 148.647 7.73609C151.988 6.33282 154.708 6.17491 156.966 7.25586C160.836 9.10681 163.041 14.3536 165.346 22.2181L165.027 22.3125L165.346 22.2181C167.089 28.1682 167.382 36.3599 166.108 43.5977C164.643 51.9278 161.416 57.5327 157.018 59.3804Z" fill="#839C9E"/>
<path d="M149.296 12.1006C144.277 14.2104 141.933 19.7633 140.85 24.0496C139.471 29.5113 139.34 36.1288 140.489 42.2091C142.054 50.4839 145.279 56.4909 149.338 58.6854C151.546 59.8803 153.978 59.934 156.571 58.8433C165.043 55.2814 167.087 35.896 163.933 25.1305C161.843 18.0018 159.87 13.2581 156.494 11.6415C154.572 10.7234 152.219 10.8732 149.296 12.1006M156.827 59.4602C154.041 60.6323 151.416 60.5689 149.022 59.2747C144.786 56.9842 141.438 50.8094 139.835 42.3328C138.668 36.1614 138.804 29.438 140.206 23.8852C141.326 19.4507 143.767 13.7009 149.04 11.4836C152.146 10.178 154.678 10.0315 156.78 11.0376C160.38 12.7615 162.429 17.6356 164.57 24.9417L164.251 25.0361L164.57 24.9417C166.189 30.4669 166.461 38.0725 165.278 44.7943C163.916 52.5334 160.916 57.7428 156.827 59.4602Z" fill="#839C9E"/>
<path d="M149.228 14.8958C144.612 16.8363 142.454 21.948 141.457 25.8941C140.187 30.926 140.065 37.0226 141.124 42.6243C142.566 50.2462 145.534 55.7763 149.268 57.7965C151.298 58.8954 153.533 58.9426 155.916 57.9414C163.716 54.6628 165.593 36.8077 162.688 26.892C160.763 20.3249 158.947 15.9572 155.843 14.4725C154.079 13.6276 151.915 13.766 149.228 14.8958V14.8958ZM156.172 58.5584C153.596 59.6426 151.167 59.584 148.954 58.3858C145.042 56.2695 141.949 50.5702 140.471 42.7496C139.395 37.0551 139.52 30.8527 140.813 25.7296C141.847 21.6354 144.102 16.3267 148.972 14.2788C151.843 13.0725 154.184 12.9374 156.129 13.8686C159.457 15.4607 161.349 19.9603 163.326 26.7015L163.007 26.7959L163.326 26.7015C164.818 31.8002 165.069 38.8182 163.978 45.0173C162.722 52.1623 159.949 56.9712 156.172 58.5584" fill="#839C9E"/>
<path d="M149.869 17.9546C142.988 20.8474 140.805 32.7687 142.668 42.6242C143.95 49.4061 146.588 54.3257 149.908 56.1213C151.704 57.0932 153.687 57.1355 155.799 56.2483C162.733 53.3327 164.399 37.4458 161.812 28.6208C160.101 22.7798 158.488 18.8955 155.733 17.5769C154.171 16.8297 152.253 16.9534 149.869 17.9546V17.9546ZM156.055 56.8653C153.75 57.8339 151.575 57.7818 149.592 56.709C146.096 54.819 143.335 49.7301 142.014 42.7496C141.054 37.6704 141.166 32.1371 142.32 27.5675C143.242 23.9112 145.258 19.169 149.611 17.3376C152.18 16.2583 154.276 16.1395 156.019 16.973C158.996 18.3974 160.687 22.4135 162.45 28.4319C163.784 32.9804 164.007 39.2397 163.034 44.7698C161.913 51.1496 159.433 55.4441 156.055 56.8653" fill="#839C9E"/>
<path d="M150.432 21.0184C144.225 23.628 142.257 34.3918 143.94 43.2917C145.097 49.4143 147.478 53.8553 150.471 55.4734C152.086 56.3476 153.87 56.3867 155.77 55.5874C162.027 52.9567 163.526 38.6114 161.191 30.6427C159.645 25.3698 158.19 21.8616 155.71 20.6749C154.305 20.0025 152.58 20.1149 150.432 21.0184V21.0184ZM156.027 56.2044C153.933 57.0851 151.957 57.0379 150.155 56.0627C146.986 54.3469 144.482 49.7383 143.286 43.4154C142.417 38.8181 142.517 33.809 143.563 29.6724C144.762 24.9205 147.049 21.7151 150.175 20.4014C152.507 19.4214 154.411 19.3123 155.995 20.0709C158.698 21.3651 160.231 25.0035 161.828 30.4538C163.036 34.5709 163.238 40.2377 162.358 45.2436C161.341 51.0227 159.093 54.9151 156.027 56.2044" fill="#839C9E"/>
<path d="M151.186 24.5933C145.974 26.7845 144.325 35.839 145.74 43.3275C146.714 48.4766 148.713 52.2095 151.224 53.5688C152.573 54.2981 154.062 54.3306 155.65 53.6616C160.906 51.4541 162.159 39.3863 160.194 32.6808C158.894 28.2447 157.672 25.2966 155.597 24.3035C154.427 23.7435 152.985 23.838 151.186 24.5933ZM155.908 54.2785C154.124 55.029 152.442 54.9883 150.908 54.1581C148.221 52.7027 146.099 48.8006 145.087 43.4512C144.353 39.5653 144.437 35.3311 145.321 31.8343C146.337 27.8101 148.278 25.0914 150.931 23.9763C152.912 23.1444 154.532 23.0533 155.883 23.6996C158.18 24.8001 159.48 27.8801 160.831 32.492C161.851 35.9725 162.023 40.7619 161.278 44.9928C160.417 49.8864 158.51 53.1846 155.908 54.2785" fill="#839C9E"/>
<path d="M151.466 28.8454C147.31 30.5922 145.996 37.8348 147.129 43.8256C147.909 47.9459 149.501 50.9282 151.502 52.0108C152.569 52.5871 153.747 52.6115 155.004 52.0824C159.197 50.321 160.19 40.6674 158.617 35.3018C157.607 31.8522 156.597 29.3956 154.958 28.611C154.035 28.1682 152.894 28.2447 151.466 28.8454V28.8454ZM155.26 52.701C153.808 53.3099 152.439 53.2773 151.188 52.6001C149.009 51.4215 147.292 48.2698 146.476 43.9509C145.884 40.8188 145.952 37.4067 146.664 34.5871C147.486 31.3313 149.059 29.1319 151.211 28.2284C152.821 27.5512 154.14 27.4779 155.244 28.007C157.112 28.9008 158.164 31.3882 159.255 35.1129C160.888 40.6837 159.907 50.7459 155.26 52.701" fill="#839C9E"/>
<path d="M151.716 32.142C148.284 33.5843 147.203 39.5784 148.142 44.5387C148.776 47.8971 150.126 50.4269 151.75 51.3059C152.62 51.7764 153.585 51.7959 154.614 51.3629C158.075 49.9075 158.889 41.9193 157.586 37.4751C156.751 34.6229 155.917 32.5897 154.572 31.9466C153.821 31.5869 152.886 31.6504 151.716 32.142ZM154.87 51.9799C153.647 52.4943 152.491 52.465 151.436 51.8936C149.608 50.9071 148.171 48.2715 147.488 44.6624C146.515 39.5132 147.575 33.1578 151.46 31.525C152.815 30.9552 153.927 30.8966 154.859 31.3427C156.432 32.0948 157.313 34.1753 158.224 37.2862C159.587 41.9388 158.761 50.3438 154.87 51.9799" fill="#839C9E"/>
<path d="M152.319 35.0527C149.906 36.0669 148.797 40.6088 149.124 44.6184C149.367 47.5991 150.244 49.8929 151.471 50.7573C152.043 51.1594 152.672 51.2587 153.394 51.0601C154.561 50.7378 155.582 49.1766 156.197 46.7738C156.751 44.6103 156.9 41.9811 156.573 40.0732C156.141 37.5434 155.645 35.725 154.632 35.0755C154.13 34.7548 153.48 34.7092 152.646 34.9387C152.535 34.9697 152.426 35.0087 152.319 35.0527V35.0527ZM153.876 51.5989C153.776 51.6413 153.674 51.6755 153.57 51.7048C152.658 51.9555 151.824 51.822 151.091 51.3059C149.683 50.3145 148.724 47.897 148.461 44.6737C148.103 40.2767 149.386 35.1455 152.47 34.2941C153.496 34.0124 154.32 34.0824 154.99 34.5122C156.214 35.2952 156.754 37.1771 157.228 39.9609C157.894 43.8582 156.74 50.3943 153.876 51.5989Z" fill="#839C9E"/>
<path d="M152.182 38.39C150.087 39.2707 149.435 42.9645 150.015 46.0266C150.405 48.0957 151.227 49.6503 152.214 50.1827C152.732 50.4643 153.286 50.4741 153.904 50.2152C155.981 49.341 156.482 44.3368 155.696 41.6556C155.181 39.8974 154.674 38.6488 153.873 38.2646C153.435 38.0546 152.881 38.0969 152.182 38.39V38.39ZM154.16 50.8322C153.357 51.1692 152.596 51.1497 151.899 50.772C150.72 50.1355 149.796 48.4506 149.361 46.1503C148.741 42.8733 149.429 38.823 151.924 37.773C152.81 37.4018 153.54 37.3644 154.158 37.6607C155.186 38.1539 155.752 39.4823 156.335 41.4668C157.201 44.4263 156.659 49.7806 154.16 50.8322" fill="#839C9E"/>
<path d="M150.6 47.2214L149.649 45.4584L155.438 42.297L156.39 44.06L150.6 47.2214Z" fill="#839C9E"/>
<path d="M125.754 62.3823L125.756 62.3802L125.754 62.3823Z" fill="#A6ADAC"/>
<path d="M125.754 62.3823L125.755 62.3807L126.116 62.0258C126.197 62.0193 126.278 62.0095 126.359 62.0014L131.741 61.7653L135.37 61.6953L125.754 62.3823" fill="#718788"/>
<path d="M126.116 62.0259L126.132 62.0112L126.359 62.0015C126.278 62.0096 126.197 62.0194 126.116 62.0259M131.741 61.7654L136.354 61.5636C136.919 61.544 137.488 61.5245 138.06 61.5033L135.37 61.6954L131.741 61.7654" fill="#718788"/>
<path d="M153.998 61.0751C154.139 60.9644 154.27 60.8651 154.391 60.7755L154.017 61.0734L153.998 61.0751Z" fill="#A6ADAC"/>
<path d="M153.88 61.0801L154.184 60.7854L154.391 60.7757C154.27 60.8652 154.139 60.9645 153.998 61.0752L153.88 61.0801" fill="#718788"/>
<path d="M98.1943 112.959C98.5002 113.691 98.1554 114.533 97.4271 114.839C96.6987 115.147 95.8603 114.8 95.556 114.067C95.2517 113.335 95.5965 112.492 96.3248 112.186C97.0532 111.879 97.89 112.226 98.1943 112.959" fill="#839C9E"/>
<path d="M86.1375 110.676C86.4418 111.409 86.0987 112.251 85.3687 112.558C84.6403 112.864 83.8035 112.518 83.4992 111.785C83.1949 111.053 83.5381 110.211 84.2664 109.903C84.9948 109.597 85.8332 109.944 86.1375 110.676Z" fill="#839C9E"/>
<path d="M138.113 76.332C140.96 73.3822 144.079 70.2583 146.874 67.5575L147.674 66.7875C149.925 64.6305 151.916 62.8007 153.313 61.6319L139.3 75.2576C138.918 75.6304 138.521 75.9885 138.113 76.332" fill="#C5CAC8"/>
<path d="M117.316 84.9927C115.218 84.9927 113.849 84.195 113.907 82.0787L115.129 82.2219L115.225 81.4243L113.988 81.2729C114.153 80.2733 114.574 79.041 115.296 77.54L135.47 78.2579C134.921 78.5998 134.356 78.9173 133.78 79.2119C129.447 81.4194 121.753 84.9927 117.316 84.9927M136.614 77.4944L115.691 76.7505C116.405 75.3765 117.352 73.7942 118.558 71.9888H123.965V71.1862H119.101C119.856 70.0874 120.701 68.9071 121.644 67.6439L146.874 67.5576C144.079 70.2583 140.96 73.3823 138.113 76.3321C137.631 76.7407 137.129 77.1282 136.614 77.4944M133.212 72.4186L133.151 73.2179L140.572 73.8007L141.318 73.0551L133.212 72.4186ZM122.25 66.8397C123.302 65.4527 124.467 63.9696 125.754 62.3824L144.275 61.5245L152.656 61.3633V61.137L153.88 61.0801L153.313 61.6319C151.916 62.8008 149.925 64.6306 147.674 66.7876L147.711 66.7517L122.25 66.8397Z" fill="#7C9394"/>
<path d="M135.47 78.2579L115.296 77.54C115.419 77.2844 115.552 77.0207 115.691 76.7505L136.614 77.4944C136.24 77.7598 135.858 78.0154 135.47 78.2579Z" fill="#667A7B"/>
<path d="M121.644 67.6438C121.842 67.3801 122.044 67.1115 122.25 66.8396L147.711 66.7517L147.674 66.7875L146.874 67.5575L121.644 67.6438" fill="#667A7B"/>
<path d="M144.275 61.5244L152.656 61.137V61.3633L144.275 61.5244Z" fill="#7C9394"/>
<path d="M140.572 73.8007L133.151 73.2178L133.212 72.4186L141.318 73.0551L140.572 73.8007Z" fill="#667A7B"/>
<path d="M118.557 71.9888C118.734 71.725 118.915 71.4581 119.101 71.1862H123.965V71.9888H118.557" fill="#667A7B"/>
<path d="M115.129 82.2219L113.907 82.0787C113.914 81.8296 113.94 81.561 113.988 81.2728L115.225 81.4242L115.129 82.2219" fill="#667A7B"/>
<path d="M149.561 60.9872C149.357 60.9481 149.144 60.9009 148.919 60.8407C149.165 60.8977 149.414 60.9449 149.666 60.9823L149.561 60.9872" fill="#7C9394"/>
<path d="M154.071 60.7903C154.115 60.7821 154.16 60.7739 154.204 60.7673L154.185 60.7854L154.071 60.7903" fill="#7C9394"/>
<path d="M149.666 60.9823C149.414 60.9449 149.165 60.8976 148.919 60.8407C148.817 60.813 148.712 60.7837 148.605 60.7511L150.11 60.6453C150.6 60.7707 151.101 60.8537 151.606 60.8976L149.666 60.9823Z" fill="#6F8385"/>
<path d="M151.606 60.8977C151.101 60.8538 150.6 60.7707 150.11 60.6454L154.663 60.3198L154.203 60.7675C154.16 60.774 154.114 60.7821 154.071 60.7903L151.606 60.8977" fill="#7C9394"/>
<path d="M125.754 62.3823L135.37 61.6953L144.275 61.5244L125.754 62.3823ZM152.656 61.137V60.9644C152.753 60.9498 152.852 60.9335 152.952 60.9156C153.321 60.8944 153.693 60.8537 154.071 60.7902L154.184 60.7853L153.88 61.08L152.656 61.137" fill="#718587"/>
<path d="M135.37 61.6953L138.06 61.5032C143.021 61.3323 148.093 61.1744 150.429 61.1027C150.626 61.119 150.806 61.1239 150.963 61.1239C151.442 61.1239 151.724 61.0702 151.754 61.0637C152.051 61.0441 152.352 61.0116 152.656 60.9644V61.1369L144.275 61.5244L135.37 61.6953M150.429 61.1027C150.171 61.0832 149.88 61.0474 149.561 60.9871L149.666 60.9823C150.105 61.0474 150.552 61.0816 151.008 61.0848C150.842 61.0914 150.647 61.0962 150.429 61.1027Z" fill="#718587"/>
<path d="M151.008 61.085C150.552 61.0817 150.105 61.0475 149.666 60.9824L151.605 60.8977C151.869 60.9205 152.136 60.9319 152.403 60.9319C152.586 60.9319 152.768 60.9254 152.952 60.9157C152.852 60.9336 152.753 60.9498 152.656 60.9645C152.352 61.0117 152.051 61.0443 151.754 61.0638C151.756 61.0638 151.756 61.0638 151.756 61.0638C151.756 61.0638 151.489 61.0719 151.008 61.085Z" fill="#6A7F7F"/>
<path d="M152.403 60.9319C152.136 60.9319 151.869 60.9205 151.605 60.8977L154.071 60.7903C153.693 60.8537 153.321 60.8944 152.952 60.9156C152.768 60.9254 152.586 60.9319 152.403 60.9319" fill="#718587"/>
<path d="M126.484 61.9851C126.762 61.9509 127.044 61.9053 127.325 61.85L130.423 61.7914C128.727 61.863 127.34 61.9298 126.484 61.9851" fill="#7C9394"/>
<path d="M125.411 62.0388C121.77 62.0388 118.273 60.0267 118.273 60.0267C116.797 59.0874 115.461 57.7264 114.283 56.1962L122.711 56.2157C124.389 56.9483 125.851 57.2706 127.121 57.2706C128.508 57.2706 129.669 56.8864 130.64 56.2336L142.134 56.2597L142.087 56.149C143.942 58.4525 146.106 60.0886 148.572 60.7544L138.587 61.4658L136.354 61.5635C134.214 61.64 132.157 61.7181 130.423 61.7914L127.325 61.85C127.044 61.9053 126.762 61.9509 126.484 61.9851C126.354 61.9949 126.236 62.003 126.132 62.0111C125.891 62.029 125.652 62.0388 125.411 62.0388M113.689 55.392C112.239 53.3554 111.055 51.1089 110.173 49.201L112.812 49.1326C115.955 52.058 118.664 54.0717 121.002 55.3659L113.689 55.392M131.718 55.3285C133.304 53.6957 134.245 51.2408 134.8 48.781L137.917 48.6979C138.061 49.0577 138.209 49.4142 138.359 49.7642C139.021 51.4736 139.521 52.5692 139.521 52.5692C140.146 53.5931 140.772 54.4966 141.394 55.2927L131.718 55.3285ZM109.814 48.4082C108.851 46.2284 108.338 44.6558 108.338 44.6558C109.612 46.0135 110.827 47.2426 111.984 48.3512L109.814 48.4082M134.968 47.9735C135.533 45.0465 135.59 42.24 135.578 40.9441C136.113 43.3714 136.791 45.7188 137.61 47.9035L134.968 47.9735Z" fill="#7C9394"/>
<path d="M142.134 56.2598L130.64 56.2337C131.029 55.9716 131.388 55.6672 131.718 55.3286L141.394 55.2928C141.583 55.5353 141.773 55.7681 141.96 55.9912C142.003 56.0432 142.045 56.097 142.087 56.1491L142.134 56.2598ZM122.711 56.2158L114.283 56.1963C114.081 55.9325 113.881 55.6639 113.689 55.3921L121.002 55.366C121.596 55.6949 122.164 55.9765 122.711 56.2158" fill="#667A7B"/>
<path d="M134.8 48.781C134.86 48.5108 134.916 48.2422 134.968 47.9736L137.61 47.9036C137.712 48.1722 137.814 48.4359 137.917 48.698L134.8 48.781Z" fill="#667A7B"/>
<path d="M110.173 49.201C110.047 48.9308 109.927 48.6655 109.814 48.4083L111.984 48.3513C112.263 48.6182 112.54 48.8787 112.812 49.1327L110.173 49.201" fill="#667A7B"/>
<path d="M148.572 60.7544C146.106 60.0886 143.942 58.4525 142.087 56.149C142.045 56.0969 142.003 56.0432 141.96 55.9911C144.443 58.9279 146.816 60.2107 148.605 60.7511L148.572 60.7544ZM138.359 49.7643C138.209 49.4143 138.061 49.0577 137.917 48.698C137.814 48.4359 137.712 48.1721 137.61 47.9035C136.791 45.7189 136.113 43.3714 135.578 40.9441C135.575 40.4672 135.562 40.1953 135.562 40.1953C136.176 43.71 137.427 47.35 138.359 49.7643Z" fill="#6F8385"/>
<path d="M136.354 61.5635L138.587 61.4658L138.06 61.5032C137.488 61.5244 136.919 61.5439 136.354 61.5635Z" fill="#718587"/>
<path d="M138.587 61.4658L148.572 60.7544C148.687 60.7853 148.802 60.8147 148.919 60.8407C149.144 60.9009 149.357 60.9481 149.561 60.9872L138.587 61.4658" fill="#778D8F"/>
<path d="M148.919 60.8407C148.802 60.8147 148.687 60.7853 148.572 60.7544L148.605 60.7512C148.712 60.7837 148.817 60.813 148.919 60.8407Z" fill="#6F8385"/>
<path d="M138.06 61.5033L138.587 61.4659L149.561 60.9872C149.88 61.0475 150.172 61.0833 150.429 61.1028C148.093 61.1745 143.021 61.3324 138.06 61.5033M150.963 61.124C150.806 61.124 150.626 61.1191 150.429 61.1028C150.647 61.0963 150.842 61.0914 151.008 61.0849C151.034 61.0866 151.06 61.0866 151.086 61.0866C151.306 61.0866 151.53 61.0784 151.755 61.0638C151.724 61.0703 151.442 61.124 150.963 61.124" fill="#718586"/>
<path d="M151.086 61.0865C151.06 61.0865 151.034 61.0865 151.008 61.0849C151.489 61.0719 151.756 61.0638 151.756 61.0638C151.756 61.0638 151.756 61.0638 151.754 61.0638C151.529 61.0784 151.306 61.0865 151.086 61.0865" fill="#6C8081"/>
<path d="M122.261 39.637C118.82 39.637 114.422 30.4115 111.682 22.7261L133.026 22.2556C131.852 25.1989 130.63 28.1633 129.391 30.7892L126.875 30.8559L126.896 31.6569L129.001 31.6015C126.786 36.1467 124.522 39.5018 122.377 39.6337C122.339 39.637 122.3 39.637 122.261 39.637M111.402 21.9284C110.314 18.793 109.528 15.9848 109.228 14.2755L116.232 14.0915L116.211 13.289L109.116 13.4762C109.095 13.2662 109.091 13.0904 109.099 12.9471C109.099 12.9471 110.232 10.2854 111.645 8.07146L139.669 7.10283C139.199 7.79145 138.756 8.54682 138.345 9.37706C137.841 10.3294 137.385 11.3371 136.977 12.392C136.833 12.7306 136.687 13.0773 136.54 13.4338L128.806 13.6373L128.827 14.4383L136.206 14.2445C135.303 16.4553 134.343 18.9314 133.348 21.4465L111.402 21.9284" fill="#89A2A3"/>
<path d="M111.671 8.02917C112.232 7.15335 112.838 6.35079 113.432 5.8152C112.802 6.49242 112.214 7.23312 111.671 8.02917ZM118.386 2.29236C119.211 1.88213 120.168 1.47514 121.301 1.06653L118.386 2.29236Z" fill="#F9FCFB"/>
<path d="M111.658 8.05029C111.662 8.04378 111.667 8.03564 111.671 8.02913C112.214 7.23307 112.802 6.49237 113.432 5.81515H113.433C114.773 4.60886 116.065 3.44489 118.386 2.29232L121.301 1.06648C121.979 0.822295 122.722 0.579736 123.54 0.335547L126.921 0.00181388L150.392 0.115781C150.392 0.115781 144.573 0.65625 140.263 6.27911L112.232 7.24772L111.658 8.05029Z" fill="#89A2A3"/>
<path d="M111.682 22.7261C111.586 22.4575 111.494 22.1921 111.402 21.9284L133.348 21.4465C133.24 21.7168 133.133 21.9854 133.026 22.2556L111.682 22.7261" fill="#697D7E"/>
<path d="M111.645 8.07153C111.65 8.06502 111.653 8.05688 111.658 8.05037L112.232 7.24779L140.263 6.27918C140.062 6.54291 139.863 6.81639 139.669 7.1029L111.645 8.07153" fill="#697D7E"/>
<path d="M126.896 31.6569L126.875 30.8559L129.391 30.7892C129.261 31.0643 129.132 31.3345 129.001 31.6015L126.896 31.6569" fill="#697D7E"/>
<path d="M128.827 14.4382L128.806 13.6373L136.54 13.4338C136.43 13.6991 136.318 13.971 136.207 14.2445L128.827 14.4382Z" fill="#697D7E"/>
<path d="M109.228 14.2755C109.175 13.9727 109.137 13.7057 109.116 13.4762L116.211 13.289L116.232 14.0916L109.228 14.2755Z" fill="#697D7E"/>
<path d="M136.977 12.392C137.385 11.3371 137.841 10.3294 138.345 9.37706C138.343 9.38195 138.34 9.38682 138.338 9.39008C137.906 10.2675 137.451 11.2801 136.977 12.392Z" fill="#768C8C"/>
<path d="M5.12225 45.0705C3.57181 43.0108 3.05737 40.8688 3.67324 39.0383C4.28774 37.2072 5.99068 35.8188 8.46576 35.1283C11.176 34.3715 14.4159 34.5495 17.5877 35.6282C20.7596 36.7069 23.4419 38.5439 25.1389 40.7987C26.6894 42.8584 27.2046 45.0016 26.5888 46.8321C26.5211 47.0335 26.4402 47.2297 26.3465 47.4203C25.5893 48.9601 23.9986 50.1272 21.7963 50.7421C19.086 51.4988 15.8461 51.3208 12.6743 50.2421C9.50258 49.1633 6.82023 47.3264 5.12225 45.0705M11.5808 53.4956C15.3938 54.7923 19.3459 54.9896 22.7094 54.0516C26.308 53.0474 28.8345 50.8748 29.8234 47.9321C29.9658 47.5111 30.0711 47.082 30.1437 46.6482L40.5181 53.4814C40.5181 53.4814 49.6316 58.8818 56.3845 59.739L54.0029 49.7974C54.0029 49.7974 51.2963 53.5513 38.6433 45.428C33.0107 41.812 29.6412 39.6836 27.6369 38.4361C25.5272 35.772 22.3623 33.6269 18.6813 32.3746C14.8683 31.0779 10.9162 30.8807 7.55262 31.8188C4.38707 32.7017 2.052 34.4893 0.862114 36.9088C0.699428 37.2403 0.557463 37.5835 0.43873 37.9382C-0.550688 40.8796 0.146132 44.149 2.40009 47.1435C4.50739 49.943 7.7669 52.1979 11.5808 53.4956Z" fill="#FADB54"/>
<path d="M18.233 11.713C17.3138 8.98455 17.4821 6.69583 18.7076 5.26884C19.934 3.84291 22.1605 3.34285 24.9782 3.86172C28.1205 4.44052 31.5015 6.19342 34.4978 8.79708C37.4941 11.4007 39.7098 14.5116 40.7345 17.5541C41.4896 19.7948 41.5109 21.7389 40.8155 23.1522C40.664 23.4598 40.4786 23.7427 40.2599 23.9983C39.0336 25.4242 36.807 25.9244 33.9903 25.4064C30.8479 24.8277 27.466 23.0738 24.4697 20.4701C21.4735 17.8664 19.2588 14.7565 18.233 11.713M48.8951 33.2708C44.8723 31.1905 42.3104 29.1113 40.9406 27.8272C41.6596 27.4057 42.2981 26.8771 42.8433 26.2432C44.8926 23.8579 45.2923 20.3808 43.9683 16.4519C42.7507 12.838 40.1803 9.19676 36.7302 6.19856C33.2801 3.20034 29.3243 1.1703 25.5931 0.483655C21.5361 -0.263688 18.1736 0.638682 16.1242 3.02404C15.7089 3.50725 15.362 4.03556 15.0821 4.6025C13.9841 6.83687 13.944 9.6832 14.9992 12.8154C16.2168 16.4293 18.7873 20.0704 22.2374 23.0686C25.6875 26.0668 29.6432 28.0969 33.3745 28.7835C34.2243 28.9404 35.043 29.0237 35.8263 29.0372C42.8361 33.9383 58.5982 45.7428 54.0029 49.7974L64.4104 45.4804C64.4104 45.4804 55.404 36.6371 48.8951 33.2708" fill="#FADB54"/>
<path d="M54.0029 49.7973L61.5471 46.5675L101.004 63.1728L107.614 66.4611C107.614 66.4611 114.137 67.0115 122.604 82.8682C122.604 82.8682 79.654 66.1194 74.1646 65.0242C68.6752 63.929 56.3845 59.739 56.3845 59.739L54.0029 49.7973Z" fill="#D3D5D3"/>
<path d="M19.0245 4.94194C20.2034 3.85528 22.083 3.44517 24.4121 3.76964C24.4042 3.76964 24.3952 3.76705 24.3864 3.76628C21.055 3.38299 19.3336 4.68023 18.8513 5.12484C18.7545 5.214 18.7076 5.26886 18.7076 5.26886C18.8069 5.15413 18.9127 5.04505 19.0245 4.94194ZM17.6483 8.46962C17.6547 9.27648 17.7923 10.2619 18.1474 11.4502C17.8093 10.3756 17.6438 9.37351 17.6483 8.46962ZM25.01 3.86714C28.1435 4.45225 31.5113 6.20173 34.4978 8.7971C34.4978 8.7971 28.991 4.67886 25.01 3.86714ZM18.781 13.102C20.2865 16.3463 23.1348 19.32 24.9298 20.8608C24.7755 20.7328 24.6228 20.6033 24.4697 20.4701C21.9285 18.2618 19.9495 15.6896 18.781 13.102" fill="#E5D5A2"/>
<path d="M18.2825 4.20098C20.3968 2.252 24.9299 2.56824 28.0776 4.09594C31.5784 5.79432 34.4978 8.79707 34.4978 8.79707C31.5114 6.2017 28.1435 4.45222 25.0101 3.86711C24.8061 3.82535 24.6068 3.79285 24.4121 3.76962C22.083 3.44514 20.2034 3.85525 19.0245 4.94192C18.9127 5.04502 18.8069 5.1541 18.7076 5.26884C18.7076 5.26884 18.6943 5.27913 18.671 5.30059C18.4828 5.4741 17.6303 6.37783 17.6483 8.46959C17.6437 9.37348 17.8093 10.3756 18.1474 11.4502C18.1474 11.4502 18.1474 11.4502 18.1473 11.4503C18.3138 12.0055 18.528 12.5572 18.781 13.102C19.9495 15.6895 21.9285 18.2618 24.4697 20.4701C24.6228 20.6032 24.7755 20.7327 24.9298 20.8608C24.9354 20.8654 24.9416 20.8711 24.9472 20.8757C23.3901 19.6214 20.4994 17.1579 18.9706 15.0049C16.8091 11.9618 15.5598 8.36946 17.6662 4.94685C17.8367 4.668 18.0447 4.42029 18.2825 4.20101" fill="#E2C450"/>
<path d="M24.9706 20.8945C25.6002 21.4013 26.0055 21.7053 26.0055 21.7053C26.003 21.7027 26.0007 21.7022 25.9971 21.6996C25.6515 21.4428 25.3087 21.1738 24.9707 20.8946" fill="#E5D5A2"/>
<path d="M24.9471 20.8756C24.9551 20.8818 24.9628 20.8882 24.9707 20.8944C25.3087 21.1736 25.6515 21.4426 25.9971 21.6995C25.7256 21.5134 25.3663 21.2345 24.9472 20.8755" fill="#E2C450"/>
<path d="M5.08839 36.9016C5.21119 36.7883 5.34011 36.6792 5.47445 36.5727C5.47189 36.5753 5.47062 36.5763 5.46883 36.5781C4.2137 37.7564 3.66231 38.8979 3.47174 39.8845C3.51385 39.5966 3.58031 39.3133 3.67336 39.0383C3.9435 38.2332 4.42454 37.5137 5.08851 36.9017M11.6666 34.6705C12.2807 34.6566 12.9079 34.6808 13.5425 34.7427L13.5596 34.7453C13.1358 34.7055 12.4637 34.6607 11.6667 34.6714M3.76899 42.5965C3.76899 42.5994 3.77157 42.6022 3.77336 42.6061C4.01349 43.1745 4.62059 44.6383 6.10155 46.2156C5.74645 45.8479 5.42019 45.4671 5.1224 45.0716C4.5055 44.252 4.0524 43.4186 3.76896 42.5966M10.3954 49.2973H10.3979C10.3977 49.2975 10.3979 49.2973 10.3954 49.2973Z" fill="#E5D5A2"/>
<path d="M4.85795 36.4537C6.47217 34.9657 8.69203 34.1937 10.9794 34.4524L13.5424 34.7427C12.9078 34.6808 12.2806 34.6565 11.6665 34.6704C9.75789 34.6959 7.13475 35.0422 5.49863 36.5504C5.49044 36.5579 5.48252 36.5654 5.47433 36.5728C5.33999 36.6793 5.21107 36.7885 5.08827 36.9017C4.4243 37.5137 3.94328 38.2332 3.67315 39.0383C3.5801 39.3133 3.51364 39.5967 3.47153 39.8846C3.23887 41.0934 3.54746 42.0697 3.76868 42.5956C4.05212 43.4175 4.50526 44.251 5.12215 45.0706C5.41994 45.4661 5.7462 45.8469 6.1013 46.2147C7.09157 47.2693 8.47273 48.3749 10.3951 49.2963C10.3951 49.2963 10.3951 49.2963 10.3977 49.2963C10.3711 49.288 6.15133 47.926 4.38253 45.5752C2.60872 43.2174 2.31716 40.9549 2.82282 39.5388C2.83382 39.5094 2.84407 39.4787 2.85602 39.4484C3.28894 38.2731 3.98547 37.2584 4.85892 36.4532" fill="#E2C450"/>
<path d="M13.5594 34.7443C13.5784 34.7469 13.5971 34.7482 13.6145 34.7494C13.7538 34.7639 13.8933 34.7802 14.033 34.7981C14.0389 34.7981 14.0422 34.7981 14.0422 34.7981L13.5595 34.743" fill="#E5D5A2"/>
<path d="M13.6145 34.7495C13.8476 34.7722 13.9953 34.7923 14.033 34.7982C13.8932 34.7802 13.7538 34.764 13.6145 34.7495Z" fill="#E2C450"/>
<path d="M35.912 29.0972C36.0846 29.2181 36.2619 29.3423 36.4445 29.4713C36.1917 29.2931 36.0108 29.1664 35.912 29.0972Z" fill="#E5D5A2"/>
<path d="M35.8263 29.0371C35.8263 29.0371 37.9423 30.4481 40.7622 32.5618C38.8545 31.177 37.2707 30.0536 36.4446 29.4712C36.2619 29.3422 36.0846 29.218 35.9121 29.0971C35.8551 29.0569 35.8263 29.0371 35.8263 29.0371Z" fill="#E2C450"/>
<path d="M37.9149 44.9604C39.9026 46.1864 42.7553 47.8529 45.6934 49.2591C45.6934 49.2591 45.6959 49.2591 45.6962 49.2616C43.7847 48.4576 41.4599 47.2372 38.6434 45.4293C38.3965 45.2708 38.1533 45.1146 37.9149 44.9617M51.817 50.6475C51.9784 50.6318 52.1323 50.6117 52.2757 50.5856C53.2786 50.4104 53.8229 49.9666 53.965 49.8356C53.9903 49.8121 54.0029 49.7986 54.0029 49.7986C54.0029 49.7986 53.9681 49.8462 53.8889 49.9193C53.6591 50.1311 53.0532 50.5563 51.817 50.6475" fill="#E5D5A2"/>
<path d="M29.3571 39.513C29.3572 39.5129 29.3572 39.5129 29.3571 39.513L35.2019 43.2232C35.2019 43.2232 36.2571 43.9379 37.9138 44.9594C38.1522 45.1123 38.3953 45.2686 38.6423 45.4271C41.4588 47.2349 43.7836 48.4554 45.695 49.2594C48.2533 50.4828 50.3771 50.7782 51.8159 50.6452C53.0521 50.5541 53.658 50.1288 53.8877 49.917C53.967 49.844 54.0018 49.7964 54.0018 49.7964L54.0899 50.1651C54.0313 50.2249 53.9715 50.2839 53.9098 50.3408C53.3686 50.8397 52.6972 51.2115 51.9354 51.3962C50.5899 51.7213 48.8593 51.7816 46.9502 50.9716C42.5724 49.1143 29.3712 39.5231 29.3561 39.512" fill="#E2C450"/>
<path d="M54.1497 45.6517C55.0206 47.33 55.1222 48.7655 54.0492 49.7547C54.0335 49.7691 54.0185 49.783 54.0029 49.7974C55.0839 48.7757 54.9905 47.323 54.1497 45.6517Z" fill="#E5D5A2"/>
<path d="M40.7623 32.5619C44.3103 35.1377 48.9821 38.622 51.9973 41.2295C53.9642 42.9304 54.8689 44.5678 55.2234 45.9634C55.5471 47.2405 55.2786 48.5288 54.5962 49.5439L54.0029 49.7974C54.0185 49.783 54.0337 49.769 54.0492 49.7547C55.1222 48.7655 55.0207 47.33 54.1498 45.6517C52.074 41.5237 45.4479 36.0739 40.7623 32.5619" fill="#E2C450"/>
<path d="M54.0029 49.7973L54.5049 49.6743C54.3784 49.8469 54.2412 50.0121 54.091 50.166L54.0029 49.7973" fill="#CEC190"/>
<path d="M42.6857 30.9839C43.109 31.1613 43.5299 31.3487 43.9477 31.5447C44.3655 31.7407 44.7863 31.934 45.1863 32.1619C45.5902 32.3842 45.9934 32.6092 46.3938 32.8387L46.6949 33.011L46.9864 33.196C47.1816 33.3212 47.377 33.4442 47.5692 33.5702C49.129 34.5632 50.5932 35.7041 51.9846 36.922C52.3271 37.2338 52.6729 37.5406 53.0116 37.8558C53.3411 38.1816 53.674 38.5041 53.9995 38.8316C54.165 38.9937 54.3212 39.1645 54.4799 39.3329C54.6391 39.5009 54.7945 39.6723 54.9514 39.8424C55.2704 40.1778 55.5643 40.5364 55.8659 40.8878C56.4632 41.5941 57.0274 42.331 57.5615 43.0859C57.693 43.2756 57.8225 43.469 57.9509 43.6615L58.1415 43.9511L58.3247 44.2457C58.5716 44.6378 58.7998 45.0415 59.0084 45.4554C58.381 44.7768 57.7483 44.1167 57.1136 43.4602C56.4726 42.8096 55.8355 42.1593 55.1827 41.5272C54.536 40.8896 53.8756 40.2665 53.2151 39.6454C52.8788 39.3415 52.549 39.0314 52.2157 38.7247L51.1999 37.8229C49.8361 36.6319 48.4577 35.4542 47.0257 34.3376C46.8469 34.1973 46.6704 34.0531 46.4938 33.9107L46.228 33.6963L45.956 33.4913C45.5929 33.2178 45.2315 32.9389 44.8717 32.6585C44.5166 32.3679 44.1423 32.1086 43.777 31.8314C43.409 31.5567 43.0462 31.2752 42.6857 30.9839" fill="#F7DF7A"/>
<path d="M31.7711 44.4858C33.3784 45.7073 34.9936 46.8828 36.6646 47.9704C37.5022 48.5093 38.3448 49.0377 39.2034 49.5399C39.4165 49.6679 39.6339 49.7879 39.8495 49.9136C40.065 50.0374 40.2794 50.1622 40.4984 50.279L41.1506 50.6412L41.8094 50.9896C42.027 51.1096 42.2493 51.2194 42.4706 51.3339C42.6909 51.4475 42.9122 51.5602 43.1355 51.669C43.3589 51.7797 43.5797 51.8929 43.8045 52.0003L44.4765 52.3212C45.3767 52.7445 46.2864 53.1494 47.2037 53.5356C48.1217 53.9232 49.0487 54.2908 49.9854 54.6419C50.4533 54.8168 50.9241 54.9852 51.3964 55.1523C51.6329 55.2355 51.8702 55.316 52.1081 55.3941C52.3461 55.4759 52.5851 55.5509 52.8264 55.6278C52.5743 55.6052 52.3257 55.57 52.0752 55.5345C51.8259 55.4958 51.5777 55.4524 51.3292 55.4074C50.8326 55.3167 50.3402 55.2069 49.8492 55.0899C48.8684 54.851 47.8986 54.5632 46.9401 54.2381C45.9827 53.9139 45.0388 53.5484 44.1082 53.1492L43.4141 52.841C43.1831 52.7373 42.9555 52.6267 42.7257 52.5199C42.4956 52.4134 42.2705 52.2985 42.0444 52.1845C41.8178 52.069 41.5899 51.9585 41.3669 51.8378C40.4692 51.3697 39.5947 50.8551 38.735 50.3173L38.0962 49.9041C37.8829 49.7686 37.6776 49.62 37.4681 49.4771C37.0476 49.1948 36.6429 48.8882 36.2354 48.588C34.6216 47.3609 33.1083 46.0006 31.7711 44.4858" fill="#F6DF7F"/>
<path d="M36.4474 8.25865C37.8232 9.30936 39.0871 10.5288 40.1526 11.9235C40.41 12.2789 40.6836 12.6234 40.9118 13.0019C41.0291 13.1872 41.1519 13.3713 41.2649 13.5607L41.5844 14.1408C41.6361 14.2379 41.6943 14.3331 41.7405 14.4333L41.8808 14.7345L42.0208 15.036C42.0669 15.1364 42.1162 15.2358 42.1537 15.3402L42.392 15.9624C42.434 16.0646 42.4633 16.1728 42.4972 16.2786L42.5958 16.5971C42.6274 16.705 42.6631 16.8092 42.69 16.9177L42.7662 17.2432C42.8158 17.4601 42.873 17.6757 42.9026 17.8975L42.9564 18.2283C42.9738 18.3378 42.9926 18.4479 43.001 18.5599C43.0202 18.7815 43.0473 19.0038 43.0594 19.2262C43.1091 20.1168 43.0471 21.014 42.872 21.8858C42.6978 22.7569 42.4075 23.5999 42.0339 24.3961C41.6425 25.1817 41.1811 25.9372 40.5819 26.5687C41.0555 25.8425 41.4205 25.06 41.712 24.2585C42.0018 23.4564 42.2035 22.6276 42.3191 21.7911C42.4343 20.9551 42.457 20.1097 42.3846 19.2728C42.3127 18.4355 42.1498 17.6087 41.9109 16.8017C41.6832 15.9921 41.3525 15.2119 40.9818 14.4531L40.6936 13.8865C40.5902 13.7018 40.4814 13.5203 40.3759 13.3356C40.2696 13.1517 40.1668 12.9665 40.0454 12.7907L39.698 12.2557L39.611 12.1215C39.5817 12.0771 39.5484 12.0344 39.5179 11.9911L39.3304 11.7314C39.2058 11.5586 39.0795 11.3853 38.9571 11.2105C38.6927 10.873 38.4276 10.5363 38.1582 10.2015L37.3184 9.22053L36.8806 8.74365C36.7369 8.5826 36.5901 8.42256 36.4474 8.25865" fill="#F5E299"/>
<path d="M22.3652 35.5975C23.8501 36.6113 25.2566 37.7669 26.4558 39.1406C27.0593 39.822 27.5877 40.5763 28.0278 41.3871C28.2413 41.7965 28.4249 42.222 28.5741 42.6637C28.7199 43.1047 28.8238 43.563 28.8777 44.0289C28.981 44.9609 28.8613 45.9227 28.5252 46.7963C28.3574 47.2329 28.1404 47.6472 27.8884 48.0359C27.6387 48.4263 27.3505 48.7886 27.0392 49.1258C26.8595 49.3223 26.6711 49.5095 26.4764 49.689C25.9992 50.1289 25.4811 50.5195 24.9441 50.8736C24.183 51.3647 23.3808 51.7914 22.5381 52.1068C23.3377 51.696 24.0979 51.2174 24.8111 50.6815C25.169 50.4153 25.5126 50.1314 25.839 49.8305C25.8416 49.8279 25.8438 49.8259 25.8464 49.8236C26.1702 49.525 26.48 49.2125 26.7619 48.8773C27.3279 48.203 27.8141 47.4575 28.1034 46.6367C28.2491 46.2282 28.355 45.8062 28.4045 45.3763C28.4556 44.9469 28.455 44.513 28.4048 44.0824C28.357 43.6514 28.2653 43.2243 28.1314 42.8091C27.9962 42.3931 27.8215 41.9904 27.6273 41.5959C27.5242 41.4013 27.4257 41.2045 27.3098 41.0158C27.2021 40.8236 27.0791 40.6396 26.9589 40.4531C26.9013 40.3595 26.8331 40.2717 26.7707 40.1806C26.7056 40.09 26.6438 39.9982 26.5769 39.9094L26.3769 39.6438L26.2765 39.5104L26.1704 39.3804C25.0523 37.9937 23.7304 36.7699 22.3652 35.5974" fill="#F4E195"/>
<path d="M63.0573 61.9212L64.1955 62.8801L63.0573 61.9212Z" fill="#C3C2C2"/>
<path d="M63.0573 61.9212C66.849 63.1179 71.3816 64.4694 74.1646 65.0242C74.3656 65.0648 74.6146 65.1249 74.9109 65.2051L75.185 65.2808L78.2218 66.2387L93.8224 71.8667L64.1965 62.8811L63.0584 61.9222" fill="#A7AAA9"/>
<path d="M63.0518 61.9167L74.9109 65.2051C74.6146 65.1249 74.3656 65.0648 74.1646 65.0242C71.3816 64.4694 66.849 63.1179 63.0573 61.9212L63.0517 61.9166" fill="#B2B3B2"/>
<path d="M118.103 75.5024C120.938 79.3534 122.604 82.8682 122.604 82.8682C121.026 79.913 119.516 77.4898 118.103 75.5024Z" fill="#D9D8D6"/>
<path d="M54.5962 49.5439L61.5471 46.5675L107.614 66.4611C111.85 68.0811 115.477 71.9355 118.103 75.5024C119.516 77.4898 121.026 79.913 122.604 82.8682C116.584 72.0563 107.409 67.2822 107.409 67.2822L62.2741 47.7643L54.5049 49.6743C54.5356 49.6307 54.566 49.5872 54.5962 49.5439" fill="#C2C3C1"/>
<path d="M54.0029 49.7974L54.5962 49.5439C54.566 49.5872 54.5355 49.6307 54.5049 49.6744L54.0029 49.7974" fill="#C0BAA0"/>
<path d="M58.253 52.4655C59.5284 52.8325 60.7969 53.2155 62.0609 53.6144C62.6936 53.8111 63.3243 54.0156 63.9559 54.2172L65.8446 54.8337C66.1134 54.9219 66.3825 55.0117 66.6516 55.1016C66.5582 55.2302 66.4757 55.3699 66.4022 55.5168C66.3723 55.5773 66.3454 55.6388 66.3202 55.7005C66.2869 55.7583 66.2547 55.8169 66.2246 55.8774C66.2057 55.9181 66.1871 55.9584 66.1689 55.9983C65.9504 55.9043 65.7312 55.8091 65.513 55.7148C64.2985 55.1855 63.0846 54.6555 61.8741 54.1148C60.6628 53.5766 59.4557 53.0269 58.253 52.4655M71.9311 56.9115C72.4075 57.0787 72.8842 57.2475 73.3605 57.4166C78.3487 59.1958 83.3042 61.0709 88.2173 63.0583L91.8945 64.5729C92.5055 64.8283 93.1146 65.0933 93.725 65.3531C94.3345 65.6138 94.9448 65.8737 95.5527 66.1397C97.9791 67.2182 100.402 68.2996 102.78 69.5255C105.157 70.7457 107.478 72.1032 109.639 73.6984C110.712 74.5071 111.756 75.3591 112.694 76.3294L113.036 76.7011L113.207 76.8871L113.292 76.9804L113.373 77.0783C113.584 77.3407 113.805 77.5951 113.995 77.874L114.141 78.0803C114.191 78.147 114.232 78.2225 114.278 78.2927C114.366 78.4372 114.459 78.575 114.535 78.727L114.654 78.9493C114.691 79.0255 114.725 79.1028 114.759 79.1792C114.795 79.2544 114.821 79.3344 114.85 79.4139C114.865 79.4527 114.878 79.4923 114.888 79.533C114.899 79.5731 114.912 79.6135 114.92 79.6548C114.906 79.6154 114.888 79.578 114.87 79.5401C114.854 79.5014 114.834 79.4652 114.814 79.4294C114.774 79.3565 114.736 79.2833 114.689 79.2147C114.645 79.1457 114.602 79.0749 114.557 79.0068L114.411 78.8071C114.318 78.6723 114.207 78.5491 114.103 78.4227C114.049 78.3605 114.001 78.295 113.943 78.2361L113.773 78.0568C113.556 77.8131 113.312 77.5921 113.076 77.3655L112.987 77.2813L112.894 77.2013L112.707 77.0408L112.336 76.7206C111.323 75.8899 110.231 75.1633 109.119 74.4757C106.881 73.117 104.531 71.9466 102.135 70.8804C100.944 70.3372 99.7222 69.838 98.5114 69.3206L94.8536 67.8114L87.5071 64.8368C82.6051 62.8564 77.7053 60.8625 72.8219 58.8225C72.3951 58.6445 71.9675 58.4651 71.5404 58.2854C71.5719 58.2312 71.6015 58.175 71.63 58.1179C71.8211 57.7293 71.9187 57.3188 71.9311 56.9115" fill="#DADBD9"/>
<path d="M67.5461 59.8069C66.1026 59.0889 65.5107 57.3292 66.2247 55.8775C66.9387 54.4257 68.6876 53.831 70.1311 54.549C71.5744 55.2671 72.1663 57.0269 71.4523 58.4787C70.7383 59.9303 68.9894 60.525 67.5461 59.8069Z" fill="#D7BB51"/>
<path d="M67.7235 59.4464C66.2801 58.7283 65.6881 56.9686 66.4022 55.5168C67.1162 54.065 68.8652 53.4704 70.3085 54.1885C71.752 54.9065 72.3439 56.6662 71.6299 58.1179C70.9158 59.5697 69.1669 60.1644 67.7235 59.4464Z" fill="#FADB54"/>
<path d="M68.8524 55.4632C69.0027 55.3246 69.1858 55.2272 69.392 55.1859C70.0761 55.0495 70.758 55.5872 70.9159 56.3877C71.0271 56.9474 70.8526 57.4867 70.5045 57.8077C70.3541 57.9462 70.1709 58.0437 69.9647 58.085C69.2816 58.2224 68.5986 57.6839 68.4407 56.8834C68.3296 56.3235 68.5041 55.7842 68.8524 55.4632" fill="#FAE279"/>
</g>
<defs>
<clipPath id="clip0_242_476">
<rect width="167.374" height="119" fill="white"/>
</clipPath>
</defs>
</svg>
