<svg width="181" height="125" viewBox="0 0 181 125" fill="none" xmlns="http://www.w3.org/2000/svg">
<path d="M86.5213 26.4022C86.5213 26.4022 84.4124 32.7224 83.9607 33.4749C83.5089 34.2274 83.6592 36.9362 88.4794 37.2369C93.2992 37.5377 102.939 38.5913 106.404 37.0864C109.868 35.5818 111.224 36.0331 111.374 34.5281C111.525 33.0236 104.897 27.3053 99.4751 23.6934C94.0524 20.082 86.5213 26.4022 86.5213 26.4022Z" fill="#17282F"/>
<path d="M86.5213 26.4023L86.7284 26.4713C86.7284 26.4717 86.201 28.0526 85.6165 29.7283C85.3246 30.5663 85.0184 31.4279 84.7558 32.1289C84.6247 32.4794 84.5046 32.7898 84.4024 33.0381C84.2988 33.2878 84.2176 33.4702 84.1481 33.5872C84.0764 33.7037 84.0105 33.9268 84.0118 34.1952C84.0131 34.6823 84.211 35.317 84.862 35.8713C85.5129 36.4252 86.6357 36.9031 88.493 37.0192C91.4144 37.2017 96.0887 37.6582 100.083 37.6582C102.688 37.6604 105.012 37.457 106.317 36.8865C108.064 36.1271 109.292 35.8578 110.063 35.6007C110.448 35.4728 110.71 35.348 110.87 35.1934C111.029 35.0394 111.12 34.8521 111.157 34.5069L111.158 34.4763C111.161 34.3532 111.08 34.1136 110.898 33.819C110.584 33.2996 109.994 32.6016 109.216 31.8116C106.881 29.438 102.859 26.2094 99.3536 23.8751C98.188 23.0995 96.9267 22.7979 95.6532 22.797C93.4263 22.7957 91.1702 23.7341 89.4777 24.6808C88.6315 25.154 87.9254 25.6276 87.4322 25.982C87.1854 26.1592 86.9918 26.3067 86.8607 26.4097C86.7948 26.4612 86.745 26.5014 86.7113 26.5285L86.6615 26.5695L86.5213 26.4023L86.7284 26.4713L86.5213 26.4023L86.3806 26.2351C86.3876 26.2295 87.5357 25.2662 89.2645 24.3002C90.9937 23.3352 93.304 22.3623 95.6532 22.3605C96.9949 22.3601 98.3518 22.6826 99.5961 23.512C102.287 25.3041 105.267 27.6088 107.582 29.6685C108.739 30.6986 109.729 31.6667 110.436 32.4842C110.79 32.8936 111.073 33.2646 111.272 33.5929C111.469 33.9224 111.592 34.2044 111.595 34.4763L111.591 34.5501C111.553 34.9573 111.418 35.2777 111.172 35.5095C110.802 35.8543 110.272 35.9987 109.52 36.2222C108.767 36.4426 107.778 36.7277 106.491 37.2868C105.058 37.9053 102.715 38.0921 100.083 38.0947C96.0582 38.0943 91.3747 37.6364 88.4654 37.4548C86.5471 37.3353 85.3264 36.8385 84.5789 36.2039C83.8305 35.5693 83.5736 34.8006 83.5749 34.1952C83.5758 33.8587 83.6492 33.5719 83.7732 33.3629C83.8165 33.2917 83.8999 33.1119 83.9982 32.8718C84.3473 32.0259 84.9279 30.3869 85.419 28.9649C85.665 28.2534 85.8887 27.5952 86.0507 27.1151C86.2133 26.6354 86.3138 26.3338 86.3138 26.3333L86.3806 26.2351L86.5213 26.4023Z" fill="#17282F"/>
<path d="M112.429 33.3245C112.429 33.3245 98.2697 36.7858 93.4499 35.1302C88.6297 33.4751 83.5089 30.4655 78.9897 30.7663C74.4714 31.0674 75.6763 31.9701 74.0196 26.7035C72.3625 21.4365 72.3625 17.8247 72.3625 17.8247L42.2376 0.218384C42.2376 0.218384 25.8197 33.4751 23.2587 38.1402C20.6981 42.8048 10.1546 80.1247 10.1546 80.1247C10.1546 80.1247 65.1324 92.3142 82.1532 97.4302C99.1736 102.547 110.471 106.911 110.471 106.911C110.471 106.911 128.847 59.8096 130.956 55.7464C133.064 51.6837 136.83 36.3344 136.83 36.3344L112.429 33.3245Z" fill="#E5C0C8"/>
<path d="M112.429 33.3244L112.48 33.5366C112.472 33.5374 103.254 35.7949 97.115 35.7971C95.6449 35.7962 94.3499 35.6692 93.3791 35.3366C91.0676 34.5426 88.7005 33.4453 86.3741 32.5501C84.0476 31.6536 81.7631 30.9626 79.6311 30.9635C79.4209 30.9635 79.2117 30.9705 79.0046 30.984C77.5768 31.0787 76.7345 31.235 76.1412 31.2363C75.8245 31.2372 75.5558 31.1887 75.3351 31.0246C75.1709 30.9024 75.0516 30.7309 74.9507 30.5174C74.7986 30.1957 74.6763 29.7658 74.5072 29.16C74.339 28.555 74.1276 27.7755 73.8113 26.7689C72.1458 21.4745 72.1441 17.8412 72.1441 17.8246H72.3625L72.2524 18.0132L42.1271 0.406906L42.2376 0.218346L42.4333 0.314804C42.4333 0.314804 38.3288 8.6293 33.904 17.5269C29.4787 26.4263 24.7367 35.9018 23.4505 38.2449C23.1425 38.8044 22.6968 39.8961 22.166 41.3578C20.3031 46.4803 17.3511 56.1916 14.8673 64.6161C13.6248 68.829 12.4994 72.7211 11.6841 75.5599C11.277 76.9793 10.9471 78.1351 10.7191 78.9365C10.491 79.7375 10.3652 80.1827 10.3652 80.184L10.1546 80.1246L10.2022 79.9116C10.2057 79.9125 65.1753 92.0994 82.2162 97.2211C99.244 102.34 110.545 106.705 110.549 106.707L110.471 106.91L110.267 106.831C110.267 106.831 114.861 95.0557 119.719 82.7719C122.148 76.6302 124.643 70.361 126.663 65.3729C127.672 62.8789 128.564 60.7052 129.268 59.027C129.974 57.3474 130.49 56.1693 130.762 55.646C131.277 54.6547 131.908 52.9368 132.555 50.932C133.527 47.9234 134.543 44.2595 135.316 41.3491C135.702 39.8939 136.028 38.6272 136.257 37.7241C136.486 36.8211 136.617 36.2838 136.618 36.2824L136.83 36.3344L136.803 36.5509L112.402 33.5409L112.429 33.3244L112.48 33.5366L112.429 33.3244L112.456 33.1079L136.857 36.1175C136.919 36.1253 136.974 36.1589 137.01 36.2104C137.045 36.2615 137.057 36.3257 137.042 36.3863C137.042 36.3876 136.1 40.226 134.894 44.5751C134.291 46.7497 133.622 49.0512 132.971 51.0664C132.319 53.0821 131.689 54.8071 131.15 55.8468C130.894 56.3395 130.374 57.522 129.671 59.1959C127.208 65.0604 122.458 77.0108 118.325 87.4924C116.258 92.7336 114.346 97.6078 112.949 101.172C112.252 102.954 111.683 104.409 111.288 105.417C110.894 106.426 110.675 106.988 110.674 106.99C110.63 107.102 110.504 107.158 110.392 107.114C110.391 107.114 110.216 107.046 109.875 106.917C107.483 106.013 96.9769 102.114 82.0903 97.6392C73.5928 95.0849 55.5912 90.7577 39.7216 87.0712C31.7863 85.2279 24.3828 83.5444 18.9627 82.3219C16.2531 81.7108 14.039 81.2145 12.5024 80.8714C10.9663 80.5279 10.11 80.3381 10.1074 80.3376C10.0489 80.3245 9.99818 80.2879 9.96716 80.2364C9.93658 80.1848 9.92828 80.1229 9.94444 80.0653C9.94489 80.0648 12.5806 70.7342 15.5371 60.8191C17.0155 55.8616 18.5739 50.7583 19.9235 46.6008C20.598 44.5219 21.2206 42.6795 21.7553 41.209C22.291 39.7367 22.7348 38.6421 23.0673 38.0349C24.3422 35.7133 29.0894 26.2281 33.5129 17.3327C35.7249 12.8841 37.8574 8.58129 39.4363 5.39107C40.2262 3.7953 40.8772 2.478 41.3311 1.56008C41.785 0.641296 42.041 0.123184 42.0419 0.12188C42.0686 0.0673141 42.1166 0.0267258 42.1747 0.00926971C42.2328 -0.00819397 42.2953 -0.000770569 42.3477 0.03022L72.4726 17.6365C72.5395 17.6753 72.581 17.7474 72.581 17.8246C72.581 17.8251 72.581 17.877 72.584 17.9839C72.6063 18.7316 72.7854 22.0532 74.2281 26.638C74.7943 28.4402 75.0315 29.5323 75.2609 30.1307C75.3749 30.4314 75.4819 30.5912 75.5955 30.6746C75.7078 30.7579 75.8616 30.7994 76.1412 30.7998C76.6589 30.8016 77.5323 30.6453 78.9753 30.5484C79.1929 30.534 79.4113 30.527 79.6311 30.527C81.8575 30.5279 84.1857 31.2407 86.5309 32.1424C88.8757 33.0455 91.2393 34.1406 93.5211 34.9241C94.4106 35.2305 95.6715 35.361 97.115 35.3606C100.136 35.361 103.957 34.7993 107.017 34.2371C108.547 33.9556 109.888 33.6745 110.846 33.4637C111.324 33.358 111.708 33.2703 111.971 33.2088C112.234 33.1472 112.376 33.1127 112.377 33.1127L112.456 33.1079L112.429 33.3244Z" fill="#17282F"/>
<path d="M109.22 41.9183C109.22 40.0895 108.262 37.1895 107.148 34.4345C110.168 33.8766 112.429 33.3245 112.429 33.3245L136.83 36.3345C136.83 36.3345 135.675 41.0388 134.287 45.9278L128.555 61.3124C127.558 63.734 126.335 66.7575 125 70.0883L121.469 77.7563C121.469 77.7563 113.813 72.7299 110.095 66.83C106.377 60.9296 104.626 59.1815 98.0648 52.626C97.6467 52.2083 97.2386 51.8194 96.841 51.4572C90.9998 46.1312 87.4252 46.5673 87.4252 46.5673L96.315 40.6072C102.439 37.7661 109.22 46.2888 109.22 41.9183Z" fill="#17282F"/>
<path d="M109.22 41.9182H109.001C109.002 41.0409 108.768 39.8716 108.392 38.5844C108.016 37.2968 107.501 35.8887 106.945 34.516C106.921 34.4553 106.925 34.3868 106.956 34.3292C106.988 34.2716 107.044 34.2314 107.108 34.2196C108.615 33.9412 109.933 33.6644 110.874 33.4571C111.344 33.3537 111.72 33.2672 111.978 33.207C112.237 33.1468 112.376 33.1127 112.377 33.1123L112.456 33.1079L136.857 36.1174C136.919 36.1253 136.974 36.1589 137.01 36.2104C137.045 36.2615 137.057 36.3256 137.042 36.3863C137.042 36.3876 135.887 41.0933 134.498 45.9875L134.492 46.0041L128.76 61.3887L128.758 61.3957C127.76 63.816 126.537 66.839 125.202 70.1694L125.198 70.1794L121.667 77.8475C121.64 77.9055 121.59 77.9483 121.529 77.9662C121.467 77.9837 121.402 77.9736 121.349 77.9387C121.338 77.9287 113.671 72.9057 109.91 66.946C108.053 64.0002 106.695 62.1011 104.981 60.1164C103.266 58.1317 101.191 56.0584 97.9101 52.78C97.4947 52.3649 97.0888 51.9782 96.6938 51.6181C91.7041 47.0709 88.4178 46.778 87.6336 46.7767C87.569 46.7767 87.5213 46.7785 87.4912 46.7806L87.4584 46.7828L87.4514 46.7837C87.3514 46.7959 87.2557 46.7374 87.2203 46.6431C87.1849 46.5484 87.2194 46.4419 87.3033 46.3856L96.1932 40.4259L96.2229 40.4089C97.1635 39.9724 98.122 39.7952 99.0635 39.7957C101.092 39.797 103.042 40.6084 104.685 41.4058C105.506 41.8052 106.252 42.2024 106.885 42.4961C107.516 42.7916 108.043 42.9758 108.38 42.9723C108.491 42.9723 108.578 42.9545 108.647 42.923C108.749 42.875 108.826 42.8008 108.894 42.6432C108.96 42.4865 109.002 42.2474 109.001 41.9182H109.22H109.438C109.437 42.4032 109.363 42.7633 109.18 43.0269C109.088 43.1574 108.966 43.2582 108.828 43.3207C108.689 43.3831 108.537 43.4088 108.38 43.4088C107.904 43.4053 107.353 43.1923 106.701 42.892C104.757 41.985 101.93 40.2278 99.0635 40.2321C98.1762 40.2321 97.2858 40.3976 96.4068 40.8048L96.3151 40.6071L96.4365 40.7882L87.5467 46.7483L87.4252 46.5672L87.3986 46.3503C87.4069 46.3494 87.4864 46.3402 87.6336 46.3402C88.5323 46.3389 91.9383 46.6894 96.9883 51.2956C97.3885 51.6605 97.7987 52.0516 98.219 52.4714C101.5 55.7494 103.581 57.8279 105.312 59.8309C107.042 61.8344 108.418 63.7592 110.28 66.7133C112.117 69.6312 114.948 72.3531 117.317 74.3386C118.501 75.3316 119.57 76.1413 120.343 76.7022C120.729 76.9828 121.041 77.2011 121.256 77.349C121.472 77.497 121.588 77.5738 121.589 77.5738L121.469 77.7563L121.27 77.665L124.801 69.997L125 70.0882L124.797 70.007C126.132 66.6758 127.355 63.6519 128.354 61.2294L128.555 61.3123L128.351 61.2364L134.082 45.8518L134.287 45.9278L134.077 45.8684C134.771 43.4259 135.406 41.0291 135.868 39.2431C136.099 38.35 136.286 37.6098 136.416 37.0925C136.546 36.5757 136.618 36.2829 136.618 36.2824L136.83 36.3344L136.803 36.5509L112.402 33.5409L112.429 33.3244L112.48 33.5365C112.478 33.537 110.214 34.09 107.188 34.6487L107.148 34.4344L107.35 34.3523C107.909 35.7346 108.43 37.1541 108.811 38.4622C109.193 39.7716 109.438 40.9667 109.438 41.9182H109.22Z" fill="#17282F"/>
<path d="M107.751 104.043L106.14 107.261L107.751 104.043Z" fill="white"/>
<path d="M107.946 104.14L106.336 107.359C106.281 107.466 106.15 107.51 106.042 107.456C105.934 107.402 105.891 107.271 105.945 107.164L107.555 103.945C107.61 103.837 107.741 103.793 107.849 103.847C107.956 103.901 108 104.032 107.946 104.14Z" fill="#17282F"/>
<path d="M104.798 102.434L102.113 107.261L104.798 102.434Z" fill="white"/>
<path d="M104.989 102.54L102.304 107.367C102.245 107.473 102.113 107.511 102.007 107.452C101.902 107.394 101.864 107.261 101.922 107.155L104.607 102.327C104.665 102.222 104.799 102.184 104.904 102.243C105.009 102.301 105.047 102.434 104.989 102.54Z" fill="#17282F"/>
<path d="M101.308 101.897L100.234 105.92L101.308 101.897Z" fill="white"/>
<path d="M101.519 101.953L100.445 105.976C100.414 106.092 100.294 106.162 100.178 106.131C100.061 106.099 99.9919 105.98 100.023 105.864L101.097 101.841C101.128 101.724 101.248 101.655 101.364 101.686C101.481 101.717 101.55 101.837 101.519 101.953Z" fill="#17282F"/>
<path d="M99.1601 100.02L96.2071 105.116L99.1601 100.02Z" fill="white"/>
<path d="M99.3493 100.129L96.3959 105.225C96.3356 105.329 96.2019 105.365 96.0975 105.304C95.9931 105.244 95.9577 105.11 96.018 105.006L98.9709 99.9102C99.0316 99.8059 99.1649 99.7705 99.2693 99.8307C99.3737 99.8914 99.4095 100.025 99.3493 100.129Z" fill="#17282F"/>
<path d="M93.5023 98.5675L91.8915 101.786L93.5023 98.5675Z" fill="white"/>
<path d="M93.6976 98.6649L92.0868 101.884C92.0331 101.991 91.902 102.035 91.7941 101.981C91.6862 101.927 91.6425 101.796 91.6962 101.688L93.3071 98.4698C93.3612 98.362 93.4923 98.3184 93.6002 98.3725C93.7081 98.4262 93.7518 98.5571 93.6976 98.6649Z" fill="#17282F"/>
<path d="M90.5494 96.9582L87.8647 101.786L90.5494 96.9582Z" fill="white"/>
<path d="M90.7403 97.0643L88.0561 101.892C87.9971 101.997 87.8643 102.035 87.759 101.977C87.6533 101.918 87.6153 101.785 87.6738 101.68L90.3585 96.8522C90.417 96.747 90.5499 96.709 90.6556 96.7675C90.7609 96.826 90.7989 96.9592 90.7403 97.0643Z" fill="#17282F"/>
<path d="M87.0595 96.4223L85.9857 100.445L87.0595 96.4223Z" fill="white"/>
<path d="M87.2705 96.4787L86.1967 100.501C86.1656 100.618 86.0459 100.687 85.9293 100.656C85.8131 100.625 85.7436 100.506 85.7746 100.389L86.8485 96.366C86.8795 96.2495 86.9992 96.1801 87.1154 96.2115C87.2321 96.2425 87.3016 96.3621 87.2705 96.4787Z" fill="#17282F"/>
<path d="M84.9118 94.5446L81.9588 99.6405L84.9118 94.5446Z" fill="white"/>
<path d="M85.1009 94.6538L82.148 99.7496C82.0873 99.854 81.9536 99.8898 81.8492 99.8291C81.7448 99.7689 81.7094 99.6353 81.7697 99.531L84.7226 94.4351C84.7833 94.3308 84.917 94.2954 85.0214 94.3556C85.1258 94.4163 85.1612 94.5494 85.1009 94.6538Z" fill="#17282F"/>
<path d="M83.6382 96.621L82.0274 99.8396L83.6382 96.621Z" fill="white"/>
<path d="M83.8335 96.7182L82.2227 99.9368C82.169 100.045 82.0375 100.089 81.9296 100.035C81.8221 99.9809 81.778 99.8495 81.8321 99.7417L83.4429 96.5231C83.4967 96.4153 83.6282 96.3717 83.7361 96.4258C83.844 96.4795 83.8877 96.6104 83.8335 96.7182Z" fill="#17282F"/>
<path d="M80.6853 95.0117L78.0006 99.8396L80.6853 95.0117Z" fill="white"/>
<path d="M80.8762 95.1177L78.1915 99.9456C78.133 100.051 77.9997 100.089 77.8944 100.03C77.7891 99.9718 77.7511 99.8387 77.8097 99.7335L80.4944 94.9056C80.5529 94.8004 80.6857 94.7624 80.7915 94.8209C80.8968 94.8794 80.9348 95.0125 80.8762 95.1177Z" fill="#17282F"/>
<path d="M77.1954 94.4756L76.1215 98.4987L77.1954 94.4756Z" fill="white"/>
<path d="M77.4064 94.5319L76.3326 98.5545C76.3015 98.671 76.1818 98.7404 76.0652 98.7094C75.9485 98.678 75.8791 98.5588 75.9101 98.4423L76.984 94.4193C77.0154 94.3027 77.1351 94.2333 77.2513 94.2647C77.368 94.2957 77.4375 94.4153 77.4064 94.5319Z" fill="#17282F"/>
<path d="M75.0477 92.5978L72.0947 97.6937L75.0477 92.5978Z" fill="white"/>
<path d="M75.2368 92.7074L72.2835 97.8029C72.2232 97.9072 72.0895 97.943 71.9851 97.8823C71.8807 97.8221 71.8453 97.6885 71.9056 97.5842L74.8585 92.4883C74.9192 92.384 75.0529 92.3486 75.1573 92.4089C75.2617 92.4695 75.2971 92.6031 75.2368 92.7074Z" fill="#17282F"/>
<path d="M71.0645 93.3085L68.3798 98.136L71.0645 93.3085Z" fill="white"/>
<path d="M71.2555 93.4145L68.5708 98.2419C68.5122 98.3475 68.3794 98.3855 68.2737 98.327C68.1684 98.2681 68.1304 98.1354 68.1889 98.0302L70.8736 93.2023C70.9322 93.0971 71.065 93.0592 71.1707 93.1177C71.276 93.1761 71.314 93.3088 71.2555 93.4145Z" fill="#17282F"/>
<path d="M67.5747 92.772L66.5008 96.795L67.5747 92.772Z" fill="white"/>
<path d="M67.7857 92.8283L66.7118 96.8514C66.6808 96.9679 66.5611 97.0369 66.4444 97.0059C66.3278 96.9749 66.2587 96.8553 66.2898 96.7388L67.3636 92.7162C67.3947 92.5996 67.5144 92.5302 67.631 92.5612C67.7477 92.5922 67.8167 92.7118 67.7857 92.8283Z" fill="#17282F"/>
<path d="M65.4269 90.8946L62.474 95.9901L65.4269 90.8946Z" fill="white"/>
<path d="M65.6161 91.0038L62.6631 96.0997C62.6028 96.2041 62.4692 96.2399 62.3647 96.1792C62.2603 96.119 62.2245 95.9854 62.2852 95.8811L65.2377 90.7852C65.2985 90.6809 65.4321 90.6455 65.5366 90.7057C65.641 90.766 65.6764 90.8995 65.6161 91.0038Z" fill="#17282F"/>
<path d="M62.8139 92.2413L61.203 95.4595L62.8139 92.2413Z" fill="white"/>
<path d="M63.0092 92.3386L61.3983 95.5568C61.3446 95.6646 61.2131 95.7082 61.1052 95.6545C60.9973 95.6004 60.9536 95.4695 61.0078 95.3617L62.6181 92.1435C62.6723 92.0357 62.8034 91.992 62.9113 92.0457C63.0192 92.0998 63.0629 92.2308 63.0092 92.3386Z" fill="#17282F"/>
<path d="M59.8609 90.6316L57.1762 95.4595L59.8609 90.6316Z" fill="white"/>
<path d="M60.0519 90.7377L57.3672 95.5652C57.3086 95.6708 57.1758 95.7088 57.0701 95.6503C56.9648 95.5918 56.9268 95.4587 56.9853 95.3535L59.67 90.5256C59.7285 90.4204 59.8614 90.3824 59.9671 90.4409C60.0724 90.4994 60.1104 90.6325 60.0519 90.7377Z" fill="#17282F"/>
<path d="M56.371 90.0956L55.2967 94.1182L56.371 90.0956Z" fill="white"/>
<path d="M56.5821 90.1514L55.5082 94.1745C55.4767 94.291 55.357 94.3604 55.2408 94.3294C55.1241 94.298 55.0547 94.1784 55.0857 94.0623L56.1596 90.0393C56.191 89.9227 56.3108 89.8533 56.427 89.8843C56.5436 89.9157 56.6131 90.0353 56.5821 90.1514Z" fill="#17282F"/>
<path d="M54.2229 88.2179L51.2704 93.3142L54.2229 88.2179Z" fill="white"/>
<path d="M54.412 88.327L51.4591 93.4234C51.3988 93.5277 51.2651 93.5635 51.1607 93.5028C51.0563 93.4426 51.0209 93.309 51.0812 93.2047L54.0341 88.1083C54.0944 88.004 54.2281 87.9687 54.3325 88.0289C54.4369 88.0891 54.4728 88.2227 54.412 88.327Z" fill="#17282F"/>
<path d="M51.9755 88.7127L50.3642 91.9313L51.9755 88.7127Z" fill="white"/>
<path d="M52.1708 88.8101L50.56 92.0287C50.5058 92.1365 50.3747 92.1801 50.2668 92.1265C50.1589 92.0723 50.1152 91.9414 50.169 91.8336L51.7802 88.615C51.8339 88.5072 51.9654 88.4635 52.0733 88.5172C52.1813 88.5713 52.225 88.7023 52.1708 88.8101Z" fill="#17282F"/>
<path d="M49.0221 87.1034L46.3379 91.9313L49.0221 87.1034Z" fill="white"/>
<path d="M49.213 87.2095L46.5288 92.037C46.4702 92.1426 46.337 92.1806 46.2317 92.1221C46.126 92.0636 46.0879 91.9305 46.1469 91.8253L48.8312 86.9974C48.8897 86.8922 49.023 86.8542 49.1283 86.9127C49.2336 86.9712 49.2716 87.1043 49.213 87.2095Z" fill="#17282F"/>
<path d="M45.5322 86.5671L44.4583 90.5901L45.5322 86.5671Z" fill="white"/>
<path d="M45.7433 86.6229L44.6694 90.6464C44.6384 90.7629 44.5186 90.8323 44.402 90.8013C44.2853 90.7699 44.2163 90.6503 44.2473 90.5342L45.3212 86.5107C45.3522 86.3942 45.4719 86.3248 45.5886 86.3558C45.7052 86.3872 45.7743 86.5068 45.7433 86.6229Z" fill="#17282F"/>
<path d="M43.3845 84.6897L40.4315 89.7856L43.3845 84.6897Z" fill="white"/>
<path d="M43.5737 84.7989L40.6207 89.8948C40.56 89.9991 40.4267 90.0349 40.3223 89.9742C40.2179 89.914 40.1821 89.7804 40.2424 89.6761L43.1953 84.5802C43.256 84.4759 43.3893 84.4405 43.4937 84.5008C43.5981 84.561 43.634 84.6946 43.5737 84.7989Z" fill="#17282F"/>
<path d="M38.9561 85.5937L37.8823 89.6167L38.9561 85.5937Z" fill="white"/>
<path d="M39.1672 85.6499L38.0933 89.6729C38.0623 89.7894 37.9426 89.8584 37.8259 89.8274C37.7097 89.7964 37.6402 89.6768 37.6713 89.5603L38.7451 85.5373C38.7762 85.4207 38.8959 85.3518 39.0125 85.3828C39.1292 85.4137 39.1982 85.5333 39.1672 85.6499Z" fill="#17282F"/>
<path d="M36.8084 83.7159L33.8555 88.8123L36.8084 83.7159Z" fill="white"/>
<path d="M36.9976 83.8255L34.0446 88.9218C33.9843 89.0262 33.8507 89.0615 33.7462 89.0013C33.6418 88.941 33.606 88.8075 33.6667 88.7032L36.6192 83.6068C36.68 83.5025 36.8136 83.4667 36.9181 83.5274C37.0225 83.5876 37.0579 83.7212 36.9976 83.8255Z" fill="#17282F"/>
<path d="M34.1954 85.0625L32.5845 88.2811L34.1954 85.0625Z" fill="white"/>
<path d="M34.3907 85.1602L32.7798 88.3788C32.7261 88.4866 32.595 88.5302 32.4871 88.4766C32.3792 88.4224 32.3351 88.2915 32.3893 88.1837L33.9996 84.9651C34.0538 84.8573 34.1849 84.8136 34.2928 84.8673C34.4007 84.9214 34.4444 85.0524 34.3907 85.1602Z" fill="#17282F"/>
<path d="M31.2424 83.4537L28.5577 88.2811L31.2424 83.4537Z" fill="white"/>
<path d="M31.4333 83.5596L28.7486 88.3871C28.6901 88.4927 28.5573 88.5307 28.452 88.4718C28.3463 88.4133 28.3083 88.2806 28.3668 88.1754L31.0515 83.3475C31.11 83.2423 31.2429 83.2043 31.3486 83.2628C31.4539 83.3213 31.4919 83.454 31.4333 83.5596Z" fill="#17282F"/>
<path d="M27.7525 82.9167L26.6787 86.9402L27.7525 82.9167Z" fill="white"/>
<path d="M27.9636 82.9731L26.8897 86.9965C26.8587 87.1131 26.739 87.182 26.6223 87.151C26.5057 87.12 26.4362 87.0004 26.4677 86.8839L27.5415 82.8604C27.5725 82.7443 27.6923 82.6749 27.8085 82.7059C27.9251 82.7369 27.9946 82.8565 27.9636 82.9731Z" fill="#17282F"/>
<path d="M25.6048 81.04L22.6518 86.1355L25.6048 81.04Z" fill="white"/>
<path d="M25.7935 81.1491L22.841 86.245C22.7803 86.3493 22.6466 86.3846 22.5422 86.3244C22.4378 86.2642 22.4024 86.1306 22.4627 86.0263L25.4156 80.9304C25.4759 80.8261 25.6096 80.7903 25.714 80.851C25.8184 80.9112 25.8543 81.0447 25.7935 81.1491Z" fill="#17282F"/>
<path d="M23.357 81.5344L21.7462 84.7526L23.357 81.5344Z" fill="white"/>
<path d="M23.5523 81.6322L21.9414 84.8503C21.8873 84.9581 21.7562 85.0018 21.6483 84.9481C21.5404 84.894 21.4967 84.763 21.5504 84.6552L23.1617 81.4371C23.2154 81.3293 23.3469 81.2856 23.4548 81.3393C23.5628 81.3934 23.6064 81.5244 23.5523 81.6322Z" fill="#17282F"/>
<path d="M20.4036 79.9251L17.7194 84.7526L20.4036 79.9251Z" fill="white"/>
<path d="M20.5945 80.0312L17.9103 84.8586C17.8517 84.9643 17.7185 85.0022 17.6132 84.9433C17.5079 84.8848 17.4699 84.7521 17.5284 84.6469L20.2127 79.819C20.2712 79.7138 20.4045 79.6759 20.5098 79.7344C20.6155 79.7929 20.6535 79.9255 20.5945 80.0312Z" fill="#17282F"/>
<path d="M16.9137 79.3886L15.8398 83.4116L16.9137 79.3886Z" fill="white"/>
<path d="M17.1248 79.4449L16.0509 83.468C16.0199 83.5845 15.9001 83.6535 15.7835 83.6225C15.6668 83.5915 15.5978 83.4719 15.6288 83.3553L16.7027 79.3323C16.7337 79.2162 16.8534 79.1468 16.9701 79.1778C17.0867 79.2088 17.1558 79.3284 17.1248 79.4449Z" fill="#17282F"/>
<path d="M14.7664 77.5115L11.813 82.6069L14.7664 77.5115Z" fill="white"/>
<path d="M14.9556 77.6205L12.0022 82.7164C11.9419 82.8207 11.8082 82.8561 11.7038 82.7958C11.5994 82.7356 11.5636 82.602 11.6243 82.4977L14.5772 77.4018C14.638 77.2975 14.7716 77.2617 14.8761 77.3224C14.9805 77.3826 15.0159 77.5162 14.9556 77.6205Z" fill="#17282F"/>
<path d="M108.663 11.9565C106.103 11.9565 103.392 13.4609 103.392 13.4609C103.392 13.4609 100.981 12.1064 98.1194 12.5581C95.2574 13.0095 93.1488 14.3637 93.1488 14.3637C93.1488 14.3637 89.5338 15.7185 85.6175 18.2767C81.7017 20.8349 77.6344 24.8981 77.6344 24.8981C77.6344 24.8981 75.2239 26.4026 74.9229 27.6064C74.8351 27.9569 74.7497 28.5006 74.7213 29.1147C75.4238 31.6415 75.3458 31.0089 78.9899 30.7662C80.1123 30.6916 81.2727 30.826 82.4554 31.0878C83.2663 30.5632 84.0023 30.058 84.5628 29.7132C86.521 28.5094 87.4254 27.3053 87.4254 27.3053L91.1911 25.9511C94.9566 24.5967 94.2034 23.6935 94.2034 23.6935C94.2034 23.6935 95.4083 24.5965 96.764 26.2516C98.1197 27.9072 103.392 29.7132 103.392 29.7132C103.392 29.7132 106.856 31.9704 108.663 33.9267C110.471 35.8829 112.278 37.2374 113.332 38.291C114.387 39.3443 114.989 42.5041 115.14 44.1592C115.29 45.8148 114.688 46.4165 113.031 45.8145C111.374 45.2126 110.47 43.7076 107.608 41.7513C104.747 39.795 99.0231 38.1404 95.7093 38.291C92.3959 38.4412 88.1782 40.0965 86.3708 41.9022C84.5634 43.7079 85.3166 46.1153 87.4254 46.5671C89.5339 47.0184 94.203 47.319 95.8597 48.3727C97.5168 49.4259 100.831 52.436 102.939 54.2421C105.048 56.0479 110.922 58.9071 112.88 61.6154C114.839 64.3242 127.491 73.6542 132.763 76.0614C138.035 78.4695 146.469 82.9839 148.578 85.2409C150.401 87.1918 153.104 99.0236 153.84 102.354C154.2 102.36 154.647 102.313 154.931 102.578C155.223 102.571 155.568 102.671 155.947 102.955C156.909 103.678 157.933 104.307 158.979 104.898C159.207 104.522 159.525 104.206 159.794 103.857C160.005 103.899 160.219 103.927 160.426 103.984C160.487 104.001 161.084 104.281 161.102 104.289C161.508 104.47 161.92 104.639 162.328 104.814C162.398 104.846 162.471 104.866 162.541 104.896C163.566 104.394 164.582 103.876 165.62 103.402C168.225 102.235 170.824 101.053 173.414 99.8493C175.255 98.9925 177.127 98.1723 178.895 97.171C178.935 97.048 178.985 96.9281 179.021 96.804C179.174 96.0483 179.48 95.3478 179.833 94.6672C180.069 94.2261 180.307 93.785 180.484 93.3175C180.489 93.2944 180.494 93.2715 180.499 93.2484C180.503 93.2304 180.507 93.2127 180.511 93.1947C180.508 93.1465 180.506 93.0973 180.505 93.0464C180.248 93.1142 179.992 93.1829 179.736 93.2516C178.957 93.4694 178.744 93.4886 178.569 92.8105C177.901 92.829 177.296 92.7509 177.834 92.0937C178.118 91.7462 178.306 91.554 178.704 91.3444C178.825 91.2804 178.979 91.0706 179.076 91.1673C179.156 91.2458 179.228 91.3296 179.296 91.4173C179.776 91.2883 180.256 91.1583 180.738 91.0356C180.641 89.4298 180.374 87.746 179.908 85.9935C177.95 78.62 173.884 71.3965 172.227 68.0859C170.57 64.7752 160.327 50.329 157.766 48.0715C155.206 45.8145 138.035 25.3489 136.378 22.4895C134.721 19.6306 128.847 18.5772 128.847 18.5772C128.847 18.5772 125.232 14.6644 123.575 13.6112C121.918 12.558 118.153 14.0626 118.153 14.0626C113.332 12.4075 111.224 11.9565 108.663 11.9565ZM179.697 92.9383C179.63 92.9769 179.533 93.0274 179.384 93.1333C179.357 93.153 179.298 93.1733 179.311 93.2043C179.324 93.2336 179.366 93.1711 179.393 93.1544C179.544 93.0629 179.643 92.9927 179.697 92.9383ZM177.693 99.9286C176.541 100.492 175.37 101.019 174.211 101.558C172.688 102.266 171.162 102.964 169.634 103.658C170.559 103.347 171.478 103.02 172.391 102.674C174.084 102.028 175.777 101.368 177.395 100.55C177.492 100.342 177.594 100.136 177.693 99.9286ZM160.697 104.436C160.693 104.426 160.7 104.457 160.705 104.466C160.725 104.501 160.748 104.533 160.771 104.565C160.76 104.523 160.715 104.478 160.697 104.436V104.436Z" fill="white"/>
<path d="M108.663 11.7378C106.166 11.7423 103.677 13.0633 103.39 13.2167C103.11 13.0687 101.487 12.2496 99.3123 12.248C98.9174 12.2476 98.5062 12.2763 98.0855 12.3427C95.2128 12.797 93.1207 14.1246 93.0508 14.1681C92.9823 14.1939 89.4032 15.5424 85.4978 18.0932C81.5723 20.6583 77.5374 24.6874 77.493 24.7305C77.4422 24.7635 76.1349 25.5798 75.3088 26.5323C75.0292 26.8575 74.8019 27.1968 74.711 27.5534C74.6188 27.9218 74.5323 28.4755 74.503 29.1045L74.5107 29.1729C74.6309 29.605 74.7285 29.9475 74.8294 30.2247C74.9312 30.501 75.0357 30.7152 75.1833 30.8832C75.2812 30.9945 75.4001 31.0812 75.5347 31.1371C75.7151 31.2117 75.9137 31.2357 76.1427 31.2362C76.736 31.2344 77.5786 31.079 79.0046 30.9842C79.2078 30.9707 79.4128 30.9638 79.619 30.9638C80.5234 30.9638 81.4558 31.0899 82.4074 31.3007C82.4646 31.3134 82.5248 31.3025 82.5738 31.2707C83.3877 30.7447 84.1247 30.2388 84.6774 29.8992C86.5434 28.7516 87.4386 27.6396 87.5554 27.4901L91.2647 26.1563C92.6229 25.6675 93.4101 25.2348 93.8732 24.8629C94.192 24.6078 94.3545 24.3724 94.4287 24.1647C94.546 24.2642 94.66 24.3594 94.8268 24.5125C95.2912 24.9394 95.9242 25.5719 96.5944 26.3903C96.9653 26.8408 97.5643 27.2695 98.2602 27.6793C98.9558 28.0879 99.7488 28.4714 100.498 28.8027C101.971 29.4548 103.249 29.8949 103.293 29.9101C103.306 29.9183 103.338 29.9389 103.422 29.9951C103.52 30.0602 103.661 30.1554 103.837 30.2758C104.188 30.5168 104.676 30.8587 105.219 31.2611C106.305 32.0655 107.617 33.1154 108.502 34.0743C110.324 36.0455 112.144 37.41 113.177 38.4445C113.649 38.908 114.071 39.9435 114.364 41.0557C114.661 42.1687 114.848 43.3645 114.922 44.179C114.936 44.3357 114.944 44.4817 114.944 44.6157C114.945 45.0609 114.863 45.3726 114.729 45.5524C114.596 45.7296 114.419 45.8202 114.095 45.8241C113.842 45.825 113.512 45.7568 113.106 45.6093C112.323 45.3251 111.705 44.8225 110.916 44.1272C110.128 43.4337 109.175 42.5581 107.732 41.5716C106.332 40.6149 104.292 39.7439 102.172 39.1049C100.052 38.4672 97.8573 38.0632 96.1438 38.0628C95.9918 38.0628 95.8439 38.0658 95.6997 38.0724C94.0111 38.1496 92.1101 38.6068 90.3962 39.2725C88.6819 39.9394 87.1561 40.8104 86.2159 41.7475C85.4789 42.4834 85.1339 43.3326 85.1343 44.1292C85.1308 45.384 85.9979 46.4889 87.3794 46.78C88.1859 46.9524 89.3369 47.1009 90.5524 47.2755C91.7673 47.4492 93.045 47.6496 94.0844 47.9206C94.7769 48.1005 95.3633 48.3152 95.7426 48.5575C96.5499 49.0699 97.7925 50.0837 99.0884 51.191C100.385 52.2993 101.74 53.5023 102.797 54.4071C103.881 55.3337 105.874 56.4952 107.848 57.7728C109.819 59.0455 111.764 60.4384 112.703 61.7426C113.221 62.4554 114.381 63.544 115.931 64.8442C117.48 66.1414 119.414 67.639 121.45 69.1274C125.526 72.1046 130.005 75.0412 132.672 76.2603C136.616 78.0612 142.347 81.0516 145.838 83.3746C147.001 84.1476 147.916 84.8506 148.419 85.3905C148.621 85.6053 148.864 86.0059 149.115 86.5376C149.368 87.0696 149.632 87.7345 149.901 88.4883C150.438 89.9963 150.992 91.8618 151.51 93.7644C152.446 97.2016 153.21 100.54 153.615 102.353C153.658 102.353 153.699 102.35 153.745 102.353C153.843 102.359 153.953 102.357 154.065 102.356C153.835 101.309 153.43 99.5043 152.778 96.898C151.853 93.2037 150.674 88.9379 149.623 86.5958C149.32 85.9245 149.034 85.4106 148.738 85.092C148.187 84.5032 147.257 83.7954 146.08 83.0115C144.904 82.2289 143.483 81.3756 141.964 80.5179C138.926 78.8026 135.496 77.0701 132.854 75.8633C130.902 74.9724 127.889 73.0989 124.796 70.9676C121.702 68.8358 118.52 66.4435 116.212 64.5099C114.675 63.2236 113.52 62.1292 113.058 61.4876C112.039 60.0834 110.068 58.6925 108.085 57.4071C106.104 56.1265 104.106 54.955 103.082 54.076C102.03 53.1751 100.673 51.971 99.3719 50.8593C98.0695 49.7471 96.8267 48.7294 95.9774 48.1886C95.5279 47.904 94.9098 47.6855 94.1951 47.4987C93.4804 47.3124 92.6691 47.161 91.8464 47.0288C90.2028 46.7647 88.5054 46.5753 87.4709 46.3536C86.2729 46.0926 85.5747 45.1824 85.5708 44.1292C85.5712 43.4592 85.8579 42.7239 86.525 42.057C87.3922 41.1884 88.8797 40.3286 90.5543 39.6792C92.2289 39.0279 94.0937 38.5818 95.7189 38.5085C95.8561 38.5024 95.9979 38.4995 96.1438 38.4995C97.79 38.4986 99.9576 38.8938 102.045 39.5232C104.133 40.1508 106.145 41.0146 107.485 41.9317C108.903 42.9015 109.834 43.7563 110.627 44.4547C111.42 45.1513 112.083 45.7017 112.957 46.0198C113.393 46.1779 113.767 46.2605 114.095 46.2609C114.509 46.2653 114.866 46.1115 115.082 45.8095C115.298 45.5101 115.379 45.1086 115.38 44.6158C115.38 44.4661 115.373 44.3075 115.357 44.1395C115.281 43.2988 115.091 42.087 114.786 40.9426C114.477 39.7977 114.069 38.7261 113.487 38.1364C112.412 37.0639 110.617 35.7198 108.824 33.7784C107.901 32.781 106.577 31.7244 105.479 30.9108C104.382 30.0981 103.513 29.5321 103.511 29.5304L103.462 29.5067C103.462 29.5063 103.28 29.4444 102.971 29.3309C102.663 29.2174 102.23 29.0537 101.734 28.852C100.741 28.45 99.4933 27.8969 98.4823 27.3028C97.8082 26.9087 97.2401 26.4911 96.9329 26.1136C95.5615 24.4397 94.3436 23.5264 94.334 23.519C94.2453 23.4526 94.1212 23.4629 94.0447 23.5433C93.9715 23.6207 93.9681 23.7384 94.0313 23.8227L94.0282 23.8245L94.0333 23.8341L94.0461 23.9044C94.0457 23.9878 94.0031 24.196 93.5994 24.5233C93.1979 24.8472 92.448 25.2668 91.1163 25.7451L87.3513 27.1C87.3111 27.1144 87.2762 27.1401 87.2509 27.1742L87.2426 27.185L87.2125 27.2221C87.1858 27.2553 87.1449 27.3046 87.089 27.3679C86.9776 27.4954 86.8079 27.6792 86.5776 27.9005C86.1167 28.3427 85.4133 28.9343 84.4491 29.5271C83.8992 29.865 83.1834 30.3545 82.4069 30.8582C81.4653 30.6547 80.5332 30.5277 79.6192 30.5277C79.4038 30.5277 79.189 30.5342 78.9754 30.5482C77.5341 30.6451 76.661 30.8012 76.1428 30.7994C75.9436 30.7994 75.8039 30.7766 75.7038 30.7342C75.6038 30.6914 75.5318 30.6331 75.451 30.5175C75.2925 30.2923 75.1466 29.83 74.9429 29.0917C74.9721 28.5069 75.0537 27.9844 75.1355 27.6588C75.1879 27.4445 75.3371 27.1871 75.5464 26.9287C75.7552 26.6698 76.0212 26.4081 76.2951 26.1684C76.843 25.6888 77.4228 25.2956 77.65 25.1467C77.7151 25.1044 77.7505 25.0828 77.7505 25.0828L77.7888 25.0521C77.7893 25.0521 77.8516 24.9896 77.97 24.8744C78.0884 24.7587 78.2618 24.5903 78.4819 24.3808C78.9228 23.9613 79.5517 23.3751 80.3027 22.7094C81.8038 21.3778 83.7941 19.7282 85.7374 18.4589C89.1451 16.2328 92.3298 14.9206 93.0664 14.6303C93.1716 14.5884 93.2257 14.5683 93.2257 14.5683L93.2673 14.5472L93.2891 14.5338L93.3575 14.4916C93.4187 14.4549 93.5101 14.4015 93.6289 14.3356C93.8666 14.2042 94.2143 14.0238 94.6503 13.8292C95.5223 13.4398 96.7476 12.9947 98.1535 12.7729C98.5498 12.7105 98.9385 12.6841 99.3125 12.6841C101.417 12.6827 103.082 13.541 103.267 13.6418L103.284 13.6508C103.351 13.6879 103.431 13.6892 103.497 13.6512C103.498 13.6512 103.536 13.63 103.613 13.5898C103.691 13.5497 103.805 13.4917 103.949 13.4223C104.239 13.2835 104.653 13.0976 105.145 12.9121C106.128 12.5411 107.426 12.1734 108.663 12.1743C111.193 12.1747 113.264 12.615 118.082 14.2688C118.131 14.2859 118.185 14.2837 118.233 14.2644C118.234 14.2644 118.263 14.2523 118.322 14.2305C118.38 14.2083 118.466 14.1771 118.575 14.1391C118.792 14.0627 119.101 13.9607 119.463 13.859C120.186 13.6552 121.125 13.4535 121.963 13.4543C122.551 13.4535 123.084 13.5548 123.458 13.7945C124.051 14.1703 124.947 14.9645 125.82 15.8021C126.695 16.6406 127.552 17.5257 128.098 18.0987C128.462 18.4811 128.686 18.7236 128.687 18.7241C128.719 18.759 128.761 18.7829 128.808 18.7912C128.808 18.7912 128.857 18.7999 128.95 18.8187C129.044 18.8375 129.18 18.8662 129.352 18.905C129.694 18.9831 130.176 19.1031 130.73 19.2694C131.839 19.6016 133.237 20.1214 134.385 20.8551C135.15 21.3439 135.801 21.9272 136.189 22.598C136.38 22.928 136.749 23.4518 137.264 24.1428C137.779 24.8324 138.439 25.6846 139.206 26.6536C140.74 28.5911 142.699 30.995 144.771 33.4917C148.914 38.4859 153.502 43.848 156.02 46.5886C156.74 47.3725 157.289 47.9397 157.623 48.2344C158.081 48.6381 158.832 49.4875 159.74 50.6096C160.65 51.7327 161.725 53.1322 162.855 54.6524C165.115 57.694 167.599 61.2208 169.446 63.9994C170.677 65.8505 171.628 67.3754 172.031 68.1828C173.693 71.5017 177.749 78.711 179.697 86.0495C180.163 87.8014 180.439 89.4869 180.536 91.0871C180.675 91.0513 180.814 91.0162 180.952 90.9816C180.852 89.3712 180.584 87.6879 180.12 85.9376C178.152 78.5289 174.074 71.2907 172.422 67.9878C171.786 66.7199 169.96 63.9185 167.778 60.7693C165.598 57.6227 163.069 54.1419 161.046 51.5514C159.695 49.823 158.578 48.4969 157.911 47.9076C157.372 47.4332 156.108 46.065 154.468 44.207C152.827 42.3471 150.8 39.9904 148.706 37.5121C144.517 32.5554 140.053 27.11 137.842 24.1856C137.212 23.3515 136.763 22.7187 136.567 22.38C136.127 21.6218 135.422 21.001 134.62 20.4881C133.817 19.9752 132.915 19.5709 132.067 19.2567C130.437 18.6527 129.073 18.4 128.959 18.3788C128.916 18.3323 128.074 17.4211 126.986 16.3347C125.869 15.22 124.556 13.9781 123.692 13.4268C123.207 13.1205 122.597 13.0198 121.963 13.0189C120.213 13.022 118.29 13.7804 118.153 13.8328C113.388 12.199 111.24 11.7367 108.663 11.7376L108.663 11.7378ZM153.821 102.586C153.858 102.568 153.731 102.603 153.712 102.642C153.748 102.623 153.785 102.604 153.821 102.586Z" fill="#17282F"/>
<path d="M115.692 20.0467C113.509 19.402 110.971 18.4706 109.43 17.2428C107.939 16.0512 106.407 15.1546 105.249 14.5575C104.67 14.259 104.185 14.0351 103.845 13.8862C103.675 13.812 103.541 13.7562 103.45 13.7195C103.36 13.6824 103.314 13.6649 103.314 13.6649C103.201 13.6217 103.144 13.4956 103.187 13.383C103.23 13.2704 103.356 13.2141 103.469 13.2568C103.481 13.2621 106.66 14.4707 109.703 16.9019C111.145 18.0581 113.657 18.9943 115.815 19.6281C115.931 19.6622 115.997 19.7835 115.963 19.8992C115.928 20.0148 115.807 20.0807 115.691 20.0467" fill="#17282F"/>
<path d="M119.769 21.0488C119.766 21.0484 118.981 20.9013 117.819 20.6176C117.702 20.5892 117.63 20.4709 117.658 20.3539C117.687 20.237 117.805 20.1649 117.923 20.1938C118.499 20.3343 118.981 20.4408 119.319 20.5124C119.657 20.584 119.849 20.6198 119.849 20.6202C119.968 20.642 120.046 20.7564 120.024 20.8747C120.002 20.9934 119.887 21.0711 119.769 21.0488Z" fill="#17282F"/>
<path d="M125.332 20.2942C125.33 20.2937 123.107 19.7669 120.504 19.0511C117.9 18.3335 114.926 17.4339 113.385 16.6657C111.914 15.9298 110.164 15.5558 108.784 15.3698C108.095 15.2769 107.498 15.2301 107.074 15.207C106.862 15.1952 106.694 15.1896 106.579 15.1865C106.464 15.1839 106.404 15.1839 106.404 15.1839C106.283 15.1839 106.185 15.0861 106.185 14.9656C106.185 14.8452 106.283 14.7474 106.404 14.7474C106.419 14.75 110.5 14.7409 113.581 16.2751C115.052 17.0119 118.029 17.918 120.621 18.6299C121.917 18.9869 123.121 19.2968 124 19.5177C124.879 19.7385 125.432 19.8691 125.433 19.8695C125.55 19.8974 125.623 20.0153 125.595 20.1322C125.567 20.2497 125.45 20.3221 125.332 20.2942Z" fill="#17282F"/>
<path d="M118.252 13.8684C118.253 13.8689 119.948 14.7344 121.719 15.6759C122.605 16.1469 123.51 16.6366 124.234 17.0473C124.595 17.2529 124.912 17.4384 125.159 17.5933C125.408 17.7509 125.581 17.867 125.688 17.9713C125.923 18.2145 126.464 18.4096 126.938 18.5152C127.174 18.5698 127.395 18.6064 127.555 18.6291C127.635 18.6405 127.7 18.6487 127.744 18.6536C127.789 18.6588 127.812 18.6605 127.812 18.661C127.932 18.6719 128.021 18.7779 128.01 18.898C127.999 19.018 127.893 19.1062 127.772 19.0953C127.766 19.0948 127.345 19.0569 126.84 18.9403C126.334 18.8199 125.746 18.6392 125.379 18.2799C125.335 18.2341 125.163 18.1106 124.927 17.9635C124.089 17.4384 122.365 16.5083 120.858 15.7139C120.104 15.3167 119.402 14.9522 118.89 14.6873C118.377 14.4223 118.054 14.2573 118.053 14.2573C117.945 14.2023 117.903 14.071 117.958 13.9636C118.013 13.8562 118.144 13.8134 118.252 13.8684Z" fill="#17282F"/>
<path d="M113.205 45.6824L113.231 45.7151C113.362 45.8819 113.99 46.6558 114.873 47.3982C115.756 48.1428 116.896 48.8447 118.015 48.9071C118.135 48.9141 118.227 49.0175 118.22 49.138C118.213 49.258 118.109 49.3501 117.989 49.3427C116.622 49.2585 115.353 48.3991 114.412 47.5776C113.472 46.7531 112.863 45.9539 112.857 45.9469C112.784 45.8509 112.803 45.7143 112.899 45.6409C112.995 45.5681 113.132 45.5864 113.205 45.6824Z" fill="#17282F"/>
<path d="M85.8091 42.5904C85.8091 42.5904 85.8091 42.5904 88.9722 43.1923C90.6005 43.5013 91.6268 44.2451 92.2371 44.9151C92.8479 45.5851 93.048 46.177 93.055 46.197L92.8475 46.266L93.017 46.1281C93.027 46.1464 93.1865 46.3232 93.1926 46.6099C93.1943 46.7466 93.1428 46.9094 93.0196 47.0394C92.8968 47.1713 92.7173 47.2725 92.4656 47.348C92.3503 47.3829 92.2284 47.3175 92.1939 47.2018C92.1589 47.0866 92.2244 46.9648 92.3402 46.9303C92.5434 46.8696 92.6495 46.7968 92.6989 46.7431C92.7474 46.6881 92.754 46.654 92.7557 46.6099C92.7561 46.5645 92.7382 46.5087 92.7159 46.4659L92.6867 46.4157L92.6784 46.4039L92.6404 46.335L92.6395 46.3323C92.6233 46.2861 92.4228 45.7462 91.8609 45.1517C91.2978 44.5576 90.3773 43.9051 88.8905 43.6209C85.7274 43.0195 85.7274 43.0195 85.7274 43.0195C85.6086 42.9968 85.5308 42.8824 85.5536 42.7641C85.5763 42.6458 85.6903 42.5681 85.8091 42.5904Z" fill="#17282F"/>
<path d="M100.51 44.7091L100.493 44.7549C100.415 44.9762 100.092 45.9736 100.092 47.1246C100.092 47.5353 100.133 47.9653 100.239 48.3869C100.268 48.5039 100.197 48.6221 100.08 48.6514C99.9627 48.6806 99.8443 48.6095 99.815 48.4925C99.6992 48.0294 99.6555 47.5641 99.6555 47.1246C99.6564 45.7182 100.097 44.5677 100.102 44.5537C100.144 44.4411 100.271 44.3844 100.383 44.4276C100.496 44.4704 100.553 44.5965 100.51 44.7091Z" fill="#17282F"/>
<path d="M99.6446 43.4608L99.6372 43.4708C99.5494 43.5961 98.7428 44.8016 98.7437 46.7291C98.7437 47.3345 98.8228 48.0119 99.0286 48.7526C99.0609 48.8687 98.9927 48.9892 98.8765 49.0215C98.7603 49.0538 98.6397 48.9857 98.6074 48.8696C98.3912 48.0905 98.3068 47.3725 98.3068 46.7291C98.3077 44.5402 99.2772 43.2233 99.2933 43.2011C99.365 43.1042 99.5017 43.0836 99.5987 43.1552C99.6957 43.2273 99.7162 43.3639 99.6446 43.4608Z" fill="#17282F"/>
<path d="M120.124 43.7885C120.117 43.8025 119.849 44.4292 119.257 45.0652C118.667 45.6998 117.736 46.3493 116.438 46.3489C116.031 46.3489 115.591 46.2851 115.118 46.1407C115.002 46.1053 114.937 45.9831 114.972 45.8679C115.008 45.7526 115.13 45.688 115.245 45.723C115.681 45.8561 116.077 45.9124 116.438 45.9124C117.583 45.9115 118.395 45.3472 118.937 44.768C119.207 44.4786 119.405 44.1874 119.534 43.9701C119.599 43.8614 119.647 43.7715 119.678 43.709L119.712 43.6383L119.722 43.6165C119.77 43.5057 119.898 43.4546 120.009 43.5017C120.12 43.5493 120.171 43.6776 120.124 43.7885Z" fill="#17282F"/>
<path d="M59.0937 56.3348C59.0937 56.3348 54.8611 65.8483 53.5011 75.0597C52.1406 84.2712 50.3271 88.8014 50.3271 88.8014L42.7698 87.7442C42.7698 87.7442 44.7345 75.0597 50.4778 66.3013C56.2221 57.5429 59.0937 56.3348 59.0937 56.3348Z" fill="#17282F"/>
<path d="M59.0937 56.3348L59.2934 56.4234C59.293 56.4239 59.2283 56.5701 59.1103 56.8473C58.2846 58.7848 54.9013 67.0674 53.7174 75.0917C52.3543 84.3206 50.5355 88.8674 50.5298 88.8822C50.4927 88.9756 50.3957 89.0315 50.2965 89.0175L42.7392 87.9604C42.6815 87.9525 42.6291 87.9211 42.5941 87.8744C42.5596 87.8277 42.5448 87.7683 42.5539 87.7107C42.5583 87.6972 44.5169 75 50.2952 66.1818C56.053 57.4051 58.9456 56.1628 59.009 56.134C59.0915 56.0991 59.1868 56.1183 59.2497 56.1821C59.3126 56.2462 59.3297 56.3418 59.2934 56.4234L59.0937 56.3348L59.1785 56.536L59.1545 56.4793L59.1794 56.5356L59.1785 56.536L59.1545 56.4793L59.1794 56.5356C59.1523 56.5456 56.3016 57.818 50.6604 66.421C47.8084 70.7696 45.8852 76.1134 44.6803 80.3669C44.0774 82.4935 43.6532 84.3476 43.3801 85.6697C43.2438 86.3306 43.1451 86.8583 43.0804 87.2205C43.0157 87.5824 42.9856 87.777 42.9856 87.7775L42.7698 87.7443L42.7999 87.5283L50.3572 88.5854L50.3271 88.8015L50.124 88.7203L50.1436 88.6701C50.3424 88.1529 52.0117 83.6471 53.2853 75.0279C54.6523 65.7759 58.891 56.2558 58.8941 56.2462L59.0937 56.3348L59.1785 56.536L59.0937 56.3348Z" fill="#17282F"/>
<path d="M74.9804 57.0103C74.9708 57.0121 73.7466 57.3482 72.5993 57.3495C72.4075 57.3495 72.2175 57.3399 72.0344 57.3172C71.9147 57.3023 71.8295 57.1932 71.8444 57.0736C71.8597 56.954 71.9689 56.8689 72.0886 56.8842C72.2494 56.9043 72.422 56.913 72.5993 56.913C73.131 56.9134 73.7016 56.8327 74.1359 56.7511C74.353 56.7105 74.5365 56.6695 74.6654 56.6393C74.7938 56.6088 74.8655 56.5891 74.8655 56.5891C74.9821 56.5573 75.1023 56.6258 75.1337 56.7423C75.1656 56.8584 75.097 56.9785 74.9804 57.0103Z" fill="#17282F"/>
<path d="M86.7262 47.2437C86.7161 47.2734 84.4246 53.5081 76.3592 56.7018C76.2469 56.7459 76.1202 56.6913 76.0757 56.5791C76.0311 56.4669 76.0862 56.3404 76.1984 56.2958C80.1505 54.7311 82.6797 52.4256 84.2237 50.5121C84.9952 49.5553 85.5199 48.6967 85.8507 48.0791C86.0162 47.7705 86.1333 47.5222 86.2089 47.352C86.2465 47.2668 86.2736 47.2014 86.291 47.1573L86.3103 47.1084L86.3159 47.094C86.3574 46.9805 86.4828 46.9225 86.5964 46.9639C86.7096 47.0054 86.7677 47.1307 86.7262 47.2437Z" fill="#17282F"/>
<path d="M81.0099 40.797C81.0125 40.8092 81.1781 41.4914 81.1781 42.4883C81.1781 43.4289 81.0309 44.6519 80.4481 45.8501C79.8666 47.0478 78.8425 48.2153 77.1246 49.0215C77.0159 49.073 76.8857 49.0263 76.8341 48.9172C76.783 48.8081 76.8297 48.678 76.939 48.6269C78.5694 47.8587 79.5096 46.7767 80.0553 45.6593C80.5992 44.5419 80.7417 43.384 80.7412 42.4883C80.7417 42.0143 80.7019 41.614 80.6621 41.3343C80.6425 41.1941 80.6228 41.0841 80.6084 41.0099L80.5909 40.9261L80.5853 40.9004C80.5569 40.783 80.6285 40.6651 80.7456 40.6368C80.8631 40.608 80.9811 40.68 81.0099 40.797Z" fill="#17282F"/>
<path d="M76.2788 40.2544C76.2657 40.24 73.079 37.2117 71.5521 32.4886C71.515 32.3738 71.5783 32.2511 71.6932 32.214C71.8077 32.1769 71.9309 32.2402 71.968 32.3545C72.7112 34.6579 73.8668 36.5574 74.8358 37.8795C75.3203 38.5403 75.7581 39.0567 76.0739 39.4072C76.2316 39.5822 76.3592 39.7158 76.4466 39.8053C76.4903 39.8502 76.5244 39.8838 76.5471 39.9061L76.5798 39.9384C76.6672 40.0213 76.6707 40.1597 76.5877 40.247C76.5043 40.3343 76.3662 40.3373 76.2788 40.2544Z" fill="#17282F"/>
<path d="M76.0796 49.1677C76.0748 49.1699 75.4286 49.5117 74.5138 49.8735C73.5985 50.2349 72.4171 50.6182 71.3236 50.6972C71.2035 50.7059 71.0986 50.6151 71.0903 50.4951C71.0816 50.375 71.172 50.2703 71.2926 50.262C72.3075 50.1904 73.4613 49.8212 74.353 49.4676C74.7995 49.2913 75.1814 49.1193 75.4509 48.9914C75.5855 48.9277 75.6925 48.8749 75.765 48.8382C75.838 48.8015 75.8751 48.7819 75.8751 48.7819C75.9822 48.7256 76.1141 48.7662 76.1705 48.8727C76.2273 48.9792 76.1862 49.111 76.0796 49.1677Z" fill="#17282F"/>
<path d="M66.444 44.521L77.5314 47.1931L66.444 44.521Z" fill="white"/>
<path d="M66.4951 44.3084L77.5825 46.9809C77.7 47.0093 77.7721 47.1272 77.7437 47.2441C77.7153 47.3615 77.5974 47.4336 77.4803 47.4052L66.3924 44.7331C66.2754 44.7047 66.2033 44.5869 66.2317 44.4694C66.2596 44.3525 66.3776 44.2804 66.4951 44.3084Z" fill="#17282F"/>
<path d="M78.953 47.4645L84.595 48.8071L78.953 47.4645Z" fill="white"/>
<path d="M79.0037 47.2525L84.6457 48.5947C84.7632 48.6226 84.8353 48.7405 84.8074 48.8579C84.7794 48.9749 84.6619 49.0473 84.5443 49.0194L78.9028 47.6772C78.7853 47.6493 78.7127 47.5314 78.7407 47.414C78.7687 47.2971 78.8866 47.2246 79.0037 47.2525Z" fill="#17282F"/>
<path d="M63.3346 50.9372L63.315 50.9634C63.1066 51.2467 61.3512 53.7608 61.3525 57.4953C61.3525 59.1893 61.7111 61.136 62.74 63.2529C64.8196 67.5313 66.3933 72.886 66.3942 78.0221C66.3942 81.5781 65.6379 85.0328 63.7562 87.9384C61.5228 91.3849 58.1732 94.854 55.3902 98.5759C52.605 102.298 50.3974 106.258 50.3988 110.665C50.3988 110.86 50.4031 111.056 50.4119 111.253C50.6163 115.843 51.9418 119.2 53.2132 121.411C53.8489 122.516 54.4714 123.334 54.9332 123.875C55.1639 124.145 55.3548 124.345 55.4868 124.478C55.5527 124.544 55.6043 124.593 55.6388 124.625L55.6777 124.661L55.689 124.671L55.4016 125C55.3754 124.978 50.3904 120.605 49.9754 111.273C49.9667 111.069 49.9619 110.867 49.9619 110.665C49.9636 106.105 52.2367 102.063 55.0403 98.3144C57.846 94.5655 61.1926 91.0955 63.3897 87.7014C65.2133 84.8857 65.9573 81.5178 65.9573 78.0221C65.9582 72.9755 64.4033 67.671 62.3473 63.4437C61.2891 61.2678 60.9151 59.2508 60.9156 57.4953C60.9173 53.3623 62.9733 50.6919 62.9882 50.671L63.3346 50.9372Z" fill="#17282F"/>
<path d="M32.9104 27.857C31.6985 27.9041 30.4796 28.1329 29.5633 28.7253C27.1198 30.3049 20.9389 40.2129 19.5016 41.6489C18.0642 43.085 12.7466 47.2492 12.7466 47.2492C12.7466 47.2492 8.00349 49.6903 7.14108 55.0036C6.27866 60.3168 6.99696 77.261 7.28443 79.8458C7.57189 82.4306 5.84716 89.1791 4.841 93.6307C3.83484 98.0819 1.53557 103.97 0.960182 105.406C-4.44368 119.717 14.192 120.241 26.1445 120.537C25.6102 119.844 25.815 119.166 26.3442 118.991C26.3069 118.496 26.6271 118.16 27.0783 118.147C27.4423 118.137 27.8902 118.337 28.3006 118.83C28.6646 119.268 29.0672 119.669 29.4884 120.052C29.6595 118.57 30.5519 111.199 31.7194 108.995C33.013 106.555 35.8878 100.955 39.337 97.7949C42.7867 94.6361 49.2538 80.8507 49.8288 80.1322C50.4037 79.4147 53.7097 74.2451 54.1409 69.6503C54.5721 65.0551 59.1718 56.7263 60.6092 54.2855C62.0465 51.8443 63.1968 49.8339 66.6461 48.1111C70.0957 46.3879 70.0955 45.5261 70.0955 45.5261C70.0955 45.5261 73.4008 45.3824 75.4131 45.0952C77.4254 44.808 78.5756 43.2284 78.4319 41.936C78.2881 40.6436 75.8446 40.0696 74.8384 39.6388C73.8322 39.2079 72.2515 37.6283 70.5262 36.1919C68.8018 34.7563 65.496 34.1823 65.496 34.1823L64.0586 33.0334C62.6213 31.8846 57.4467 30.1613 52.8475 29.4433C48.2484 28.7253 46.5229 28.7251 43.3612 28.2943C40.199 27.8635 39.049 28.5814 39.049 28.5814C39.049 28.5814 38.3311 28.4379 37.4683 28.2943C36.9292 28.2046 34.9301 27.7785 32.9104 27.857Z" fill="white"/>
<path d="M33.4159 27.6295C32.0236 27.6313 30.5507 27.83 29.4449 28.5419C28.8691 28.9164 28.1551 29.6685 27.3438 30.6422C26.5352 31.6156 25.6395 32.8075 24.743 34.0463C22.9513 36.522 21.155 39.1842 20.0724 40.6146C19.764 41.0222 19.5121 41.3307 19.3473 41.4943C18.8218 42.0203 17.7366 42.9439 16.5942 43.8837C15.4504 44.8247 14.2454 45.7864 13.4647 46.4054C12.9478 46.8147 12.624 47.0675 12.6186 47.0722C12.5638 47.1009 11.4067 47.7053 10.1138 48.9782C8.79829 50.2741 7.36623 52.2532 6.92541 54.9685C6.61871 56.8633 6.51242 60.1652 6.51198 63.781C6.51198 67.1187 6.604 70.7178 6.71933 73.6932C6.83467 76.6704 6.97267 79.0163 7.06748 79.8696C7.08801 80.0542 7.0982 80.265 7.0982 80.4981C7.09908 81.931 6.71572 84.1818 6.21374 86.5772C5.71219 88.9744 5.09406 91.5223 4.62789 93.5829C3.62872 98.0079 1.33051 103.895 0.757301 105.325C0.576767 105.777 0.433495 106.365 0.341957 107.024C0.385429 107.012 0.430313 107.003 0.477646 107.002C0.517754 107.001 0.559532 107.004 0.602425 107.013C0.660309 107.025 0.719978 107.035 0.779701 107.047C0.867836 106.433 1.00188 105.89 1.1637 105.487C1.74039 104.045 4.04141 98.1572 5.0541 93.6794C5.51852 91.6236 6.13795 89.073 6.64126 86.6667C7.14455 84.2583 7.53442 82.0013 7.53529 80.4981C7.53529 80.2528 7.52471 80.0263 7.502 79.8216C7.41025 78.998 7.27067 76.6453 7.15577 73.6759C7.04043 70.7053 6.94842 67.1109 6.94842 63.781C6.94798 60.1774 7.05726 56.8762 7.35609 55.0382C7.75148 52.6027 8.98081 50.7828 10.1809 49.5319C11.3807 48.2814 12.5494 47.6055 12.7985 47.4693L12.8464 47.443L12.881 47.4213C12.8819 47.4209 14.2117 46.379 15.7225 45.1573C17.2346 43.9338 18.9205 42.5375 19.6558 41.8038C19.9468 41.5117 20.3808 40.9445 20.9313 40.1868C21.4804 39.4299 22.1386 38.4881 22.8512 37.4707C24.2767 35.4359 25.9218 33.0973 27.333 31.3462C28.2701 30.1799 29.1163 29.2711 29.6816 28.9089C30.6633 28.2712 32.0655 28.0638 33.4159 28.0655C35.229 28.0655 36.9291 28.4257 37.4324 28.5099C37.8619 28.5815 38.2555 28.6531 38.5421 28.7068C38.8283 28.7605 39.0057 28.7957 39.0061 28.7957C39.0603 28.8065 39.1166 28.7961 39.1635 28.7669V28.7674L39.1662 28.7661L39.1841 28.7564C39.2016 28.7473 39.2298 28.7328 39.2705 28.7149C39.3522 28.6796 39.4816 28.6302 39.666 28.58C40.0352 28.4792 40.6239 28.3748 41.4829 28.3748C41.9984 28.3748 42.6115 28.4127 43.3324 28.5109C46.5081 28.9431 48.2241 28.9419 52.8137 29.6586C56.2415 30.1933 60.0078 31.2956 62.2591 32.2877C63.0088 32.6173 63.5912 32.9379 63.9224 33.2033L65.3597 34.3523L65.4589 34.3964C65.4589 34.3964 65.5073 34.4049 65.5991 34.4232C65.6913 34.4416 65.8249 34.4688 65.9914 34.5063C66.3239 34.5818 66.7859 34.6974 67.3002 34.8567C68.3281 35.1745 69.5663 35.6746 70.3868 36.3599C71.2444 37.0735 72.0694 37.8267 72.8103 38.4583C73.5531 39.0903 74.2026 39.6015 74.7527 39.8394C75.1481 40.0083 75.7231 40.1876 76.2989 40.4167C76.8738 40.6437 77.4443 40.9226 77.8034 41.253C78.0446 41.4743 78.1865 41.7057 78.2149 41.9602C78.2219 42.0243 78.2258 42.0899 78.2258 42.1558C78.2306 43.2715 77.1876 44.6236 75.3824 44.8789C73.8887 45.0924 71.6524 45.2274 70.6319 45.2811C70.2911 45.299 70.0864 45.3079 70.086 45.3079C69.9755 45.3129 69.8928 45.4018 69.8837 45.51L69.878 45.5087L69.8767 45.5132C69.874 45.5236 69.8665 45.5493 69.8459 45.5899C69.8053 45.6715 69.7127 45.8151 69.51 46.0176C69.105 46.4231 68.2603 47.0607 66.5481 47.9153C64.8019 48.7874 63.624 49.7412 62.7083 50.7848C61.7926 51.8284 61.1393 52.9553 60.421 54.1748C59.6993 55.4004 58.1876 58.0968 56.8 61.0678C55.4129 64.0411 54.1466 67.2771 53.9233 69.6297C53.6088 73.0124 51.6826 76.7698 50.4982 78.7248C50.1046 79.3756 49.79 79.8326 49.6585 79.9959C49.617 80.0487 49.5768 80.1139 49.5222 80.2069C49.4681 80.299 49.403 80.4152 49.327 80.5553C49.1759 80.8355 48.9805 81.2091 48.7485 81.6582C48.285 82.5565 47.6731 83.7567 46.9719 85.1032C45.5704 87.7958 43.8106 91.076 42.1657 93.6874C41.0713 95.4277 40.0214 96.8739 39.1892 97.6343C35.6958 100.838 32.8223 106.451 31.5261 108.893C31.1844 109.541 30.8805 110.58 30.6013 111.794C30.3235 113.006 30.0756 114.388 29.8686 115.693C29.5516 117.689 29.3751 119.153 29.2913 119.871C29.4208 119.993 29.5521 120.112 29.6855 120.229C29.7026 120.081 29.7039 120.065 29.7374 119.789C29.8033 119.249 29.8998 118.491 30.0222 117.62C30.2668 115.88 30.6154 113.688 31.0269 111.892C31.3004 110.696 31.6066 109.671 31.912 109.098C33.203 106.657 36.0786 101.071 39.4842 97.9559C40.3213 97.1877 41.2978 95.8558 42.3289 94.2456C43.3586 92.6359 44.4369 90.7504 45.4513 88.8928C47.478 85.1797 49.2541 81.5659 49.8448 80.5214C49.9212 80.3853 49.9822 80.2894 49.9996 80.2689C50.156 80.0729 50.47 79.6144 50.8719 78.9505C51.2725 78.2879 51.7565 77.4254 52.2357 76.4403C53.1943 74.4696 54.1379 72.0113 54.3585 69.67C54.5665 67.4278 55.8165 64.2024 57.1962 61.2526C58.575 58.2999 60.0817 55.6107 60.7973 54.396C61.5164 53.1738 62.1569 52.0751 63.0372 51.0725C63.918 50.0699 65.0406 49.1571 66.744 48.3059C68.4815 47.4373 69.3614 46.7826 69.8184 46.3264C70.0896 46.0563 70.1959 45.8735 70.2517 45.7357C70.4935 45.7247 73.4912 45.5893 75.4445 45.3111C77.4384 45.0244 78.6574 43.532 78.6623 42.1558C78.6623 42.0742 78.6579 41.9929 78.6488 41.9122C78.6051 41.5207 78.3878 41.195 78.0991 40.9314C77.8085 40.6669 77.4411 40.4522 77.0527 40.2671C76.2777 39.8987 75.4047 39.6447 74.9241 39.4378C74.468 39.2449 73.8238 38.7511 73.0938 38.1265C72.3611 37.5019 71.534 36.7466 70.6664 36.0242C69.7625 35.2739 68.4853 34.7685 67.4294 34.4398C66.4294 34.1301 65.6787 33.9942 65.592 33.9788L64.1956 32.8625C63.8076 32.5539 63.2041 32.2279 62.4356 31.8887C61.6676 31.5505 60.7359 31.2028 59.7061 30.8689C57.6466 30.2011 55.1952 29.5891 52.8814 29.2277C48.2727 28.5083 46.539 28.5071 43.3912 28.0781C42.6525 27.9772 42.0193 27.9387 41.4828 27.9387C39.9266 27.9383 39.2102 28.2536 39.0176 28.3543C38.9535 28.3417 38.3299 28.2171 37.5041 28.0793C37.0196 27.999 35.2801 27.6292 33.4159 27.6292L33.4159 27.6295Z" fill="#17282F"/>
<path d="M36.1968 52.1301C35.7153 52.6862 34.966 53.0136 34.3374 53.2187C33.7082 53.4221 33.1953 53.495 33.1875 53.4963C33.0677 53.5133 32.9572 53.4304 32.9402 53.3113C32.9231 53.1921 33.0061 53.0812 33.1254 53.0642C33.1254 53.0642 33.1529 53.0607 33.2071 53.0511C33.3972 53.0184 33.8948 52.9206 34.4287 52.7259C34.9634 52.533 35.5314 52.2379 35.8652 51.846C35.9438 51.7543 36.0819 51.7439 36.1732 51.8224C36.2649 51.901 36.2754 52.0385 36.1968 52.1301Z" fill="#17282F"/>
<path d="M65.5248 34.3981C65.5239 34.3981 65.1211 34.4518 64.45 34.5439C62.4368 34.8197 58.0172 35.4391 54.8965 35.9764C50.8094 36.6787 47.822 39.5088 45.8097 41.3783C45.0468 42.0853 43.5597 43.7073 41.9829 45.4803C40.4049 47.2546 38.7307 49.1851 37.5751 50.5256C37.4965 50.6172 37.3584 50.6273 37.2671 50.5487C37.1758 50.4701 37.1653 50.3322 37.244 50.241C38.4009 48.8992 40.0755 46.9678 41.6561 45.1905C43.2385 43.4122 44.7209 41.7929 45.5126 41.0583C47.5244 39.1941 50.5739 36.2806 54.8227 35.5465C58.998 34.8271 65.4658 33.9655 65.4671 33.9655C65.5868 33.9494 65.6965 34.0336 65.7126 34.1528C65.7284 34.2724 65.6445 34.3824 65.5248 34.3981Z" fill="#17282F"/>
<path d="M32.0127 36.1227C30.6032 38.251 28.705 40.6874 27.0325 42.7825C26.1963 43.8301 25.4169 44.7916 24.7839 45.5852C24.1513 46.3778 23.6637 47.0055 23.4208 47.3704C23.3535 47.4707 23.2181 47.4978 23.1176 47.431C23.0171 47.3638 22.99 47.2285 23.0573 47.1281C23.319 46.7366 23.807 46.1094 24.4422 45.3132C26.3449 42.9279 29.5556 39.0428 31.6483 35.8818C31.7147 35.7814 31.8501 35.7539 31.9506 35.8202C32.0515 35.8866 32.0791 36.0219 32.0127 36.1227Z" fill="#17282F"/>
<path d="M39.1279 28.7854L39.0903 28.8007C38.6953 28.9631 35.3125 30.4567 33.059 34.433C32.9992 34.5378 32.8659 34.5749 32.7611 34.5155C32.6562 34.4562 32.6191 34.3226 32.6789 34.2178C35.1618 29.8434 38.9461 28.3882 38.971 28.3782C39.0833 28.335 39.21 28.3908 39.2532 28.5035C39.2965 28.6161 39.2401 28.7422 39.1279 28.7854Z" fill="#17282F"/>
<path d="M19.096 44.0851C19.0955 44.0855 18.4485 44.876 17.746 45.7035C17.3952 46.1173 17.0304 46.5403 16.7246 46.8794C16.5716 47.0492 16.4336 47.198 16.3178 47.3155C16.2003 47.4342 16.1138 47.5171 16.0295 47.5747C15.9364 47.6363 15.7664 47.7698 15.5738 47.9291C15.2841 48.1688 14.9364 48.4708 14.6615 48.7122C14.3872 48.954 14.1862 49.1343 14.1858 49.1347C14.0962 49.2154 13.9581 49.2085 13.8773 49.1185C13.7969 49.0291 13.8039 48.8911 13.8935 48.8104C13.8944 48.81 14.2544 48.4861 14.669 48.126C14.8765 47.9457 15.0976 47.7563 15.2955 47.5931C15.4938 47.4289 15.6651 47.2932 15.7874 47.2116C15.811 47.1972 15.9001 47.1186 16.0063 47.0095C16.3877 46.6223 17.0802 45.8175 17.6717 45.1152C17.9675 44.7638 18.2392 44.4369 18.4372 44.1981C18.6346 43.9594 18.7578 43.8088 18.7578 43.8083C18.8343 43.7154 18.9719 43.7014 19.0654 43.7778C19.1589 43.8542 19.1724 43.9917 19.096 44.0851Z" fill="#17282F"/>
<path d="M15.2059 59.3752C15.1631 59.9688 15.1421 60.4568 15.1316 60.7955C15.1207 61.1342 15.1212 61.3215 15.1212 61.3219C15.1212 61.4424 15.0233 61.5402 14.9027 61.5402C14.7817 61.5402 14.6843 61.4424 14.6843 61.3219C14.6843 61.3176 14.6843 60.5445 14.7699 59.3442C14.7786 59.2242 14.8831 59.1334 15.0032 59.1421C15.1238 59.1509 15.2142 59.2552 15.2059 59.3752Z" fill="#17282F"/>
<path d="M19.0667 52.2989C19.0667 52.2989 19.0156 52.3417 18.9221 52.4233C18.5953 52.7092 17.7679 53.4612 16.9972 54.384C16.2243 55.3041 15.5174 56.4044 15.4069 57.328C15.382 57.5279 15.3588 57.7239 15.3383 57.9142C15.3252 58.0342 15.2173 58.1207 15.0971 58.1076C14.9774 58.0949 14.8909 57.9871 14.9036 57.8671C14.925 57.6741 14.9482 57.476 14.9735 57.2739C15.0521 56.6515 15.3361 56.0181 15.7088 55.4097C16.8294 53.5891 18.7792 51.972 18.7871 51.9637C18.8802 51.8864 19.0178 51.8991 19.0951 51.9916C19.172 52.0842 19.1598 52.2217 19.0667 52.2989Z" fill="#17282F"/>
<path d="M44.8708 75.2892L44.5838 73.71C44.5728 73.6502 44.5877 73.5887 44.6239 73.5402L44.6768 73.5795L44.6235 73.5411L44.6239 73.5402L44.6768 73.5795L44.6235 73.5411C44.6305 73.5311 45.0303 72.9794 45.3029 71.6176C45.4422 70.924 45.4789 70.1086 45.4785 69.4709C45.4785 69.1519 45.4698 68.8765 45.4606 68.6818C45.4518 68.4871 45.4431 68.375 45.4431 68.3745C45.44 68.3313 45.4492 68.289 45.4706 68.251C45.4733 68.2471 46.763 65.9542 47.4952 64.9285C47.6953 64.6518 47.7752 64.2489 47.7744 63.8268C47.7744 63.4056 47.6979 62.9731 47.6206 62.6488C47.5817 62.4864 47.5428 62.3511 47.514 62.2573C47.5 62.2101 47.4878 62.1734 47.4795 62.1486L47.4672 62.1128C47.4331 62.0172 47.4694 61.9107 47.555 61.8561C47.5555 61.8557 47.6791 61.7762 47.9168 61.6196C48.6285 61.1499 50.3507 59.9941 52.7191 58.2731C53.4775 57.7231 54.3426 56.7572 55.1971 55.6215C56.4816 53.9179 57.7521 51.8333 58.6992 50.1772C59.1728 49.3488 59.566 48.6277 59.8408 48.1136C59.978 47.8565 60.0855 47.6513 60.1589 47.5104C60.2323 47.3698 60.2707 47.2943 60.2707 47.2939C60.3035 47.2297 60.3664 47.1852 60.4385 47.176L60.4844 47.1695C60.7155 47.1328 61.7981 46.9333 63.5413 46.187C64.5313 45.7636 65.6034 45.1573 66.4243 44.6575C66.835 44.4079 67.1836 44.1848 67.4292 44.0242C67.6743 43.8636 67.8154 43.7671 67.8158 43.7667C67.9028 43.7069 68.0194 43.7178 68.0941 43.7924L68.1234 43.8208C68.2711 43.9609 68.9662 44.5947 70.2078 45.3389C70.3113 45.4009 70.3445 45.5349 70.2825 45.6383C70.2205 45.7417 70.0863 45.7754 69.9828 45.7134C68.5271 44.8404 67.7953 44.1111 67.7848 44.101L67.9395 43.9465L68.0631 44.1263C68.057 44.1298 65.7559 45.7129 63.7134 46.5881C61.6814 47.458 60.5115 47.6068 60.4927 47.6094L60.4656 47.3929L60.66 47.4916C60.6587 47.4946 59.5429 49.6884 58.0286 52.1733C57.2715 53.4159 56.4152 54.731 55.5462 55.8842C54.6763 57.037 53.7986 58.0273 52.976 58.6262C49.8098 60.9269 47.794 62.2215 47.7914 62.2232L47.673 62.0394L47.8788 61.9661C47.8818 61.9783 48.2095 62.8832 48.2112 63.8268C48.2099 64.2982 48.13 64.7888 47.8508 65.1821C47.5004 65.6723 46.9971 66.4972 46.586 67.1943C46.3798 67.5435 46.1963 67.8612 46.0639 68.0917C45.932 68.3221 45.8516 68.4644 45.8516 68.4649L45.6611 68.3579L45.8787 68.3409C45.8791 68.3448 45.9154 68.8167 45.9154 69.4709C45.9154 70.1252 45.88 70.9611 45.7315 71.7031C45.4383 73.1692 44.9931 73.7764 44.9735 73.8017L44.7987 73.6712L45.0136 73.6319L45.3007 75.2111C45.3225 75.3298 45.2434 75.4433 45.1251 75.4651C45.0062 75.4865 44.8926 75.4079 44.8708 75.2892Z" fill="#17282F"/>
<path d="M45.4462 78.449L45.2312 77.2678C45.2094 77.1491 45.2884 77.0356 45.4068 77.0138C45.5257 76.9924 45.6393 77.071 45.6611 77.1897L45.876 78.3708C45.8975 78.4891 45.8188 78.603 45.7 78.6244C45.5816 78.6458 45.4676 78.5672 45.4462 78.449Z" fill="#17282F"/>
</svg>
