<svg width="169" height="121" viewBox="0 0 169 121" fill="none" xmlns="http://www.w3.org/2000/svg">
<path d="M141.479 20.7844C141.96 20.7844 142.35 20.3945 142.35 19.9126V2.87187C142.35 2.39002 141.96 2.00008 141.479 2.00008C140.999 2.00008 140.609 2.39002 140.609 2.87187V19.9126C140.609 20.3945 140.999 20.7844 141.479 20.7844Z" fill="#FADB54"/>
<path d="M142.458 19.5153C142.422 19.5153 142.385 19.5128 142.35 19.5128V2.87185C142.35 2.70047 142.301 2.54148 142.216 2.40736C142.344 2.55887 142.458 2.7526 142.458 2.9662V19.5153Z" fill="#E6D390"/>
<path d="M142.35 19.5128C142.191 19.5103 142.034 19.5078 141.875 19.5078V2.09694C141.875 2.09694 142.056 2.21616 142.216 2.40741C142.301 2.54153 142.35 2.70052 142.35 2.87189V19.5128Z" fill="#E3C64E"/>
<path d="M141.346 2.01001V2.00007H141.479C141.434 2.00007 141.39 2.00504 141.346 2.01001ZM141.612 2.01001C141.569 2.00256 141.524 2.00007 141.479 2.00007H141.612V2.01001Z" fill="#FDF7E3"/>
<path d="M141.612 19.5078H141.346V2.01002C141.39 2.00505 141.434 2.00007 141.479 2.00007C141.524 2.00007 141.569 2.00256 141.612 2.01002V19.5078Z" fill="#F9E282"/>
<path d="M123.175 32.207C123.656 32.207 124.046 31.8171 124.046 31.3377V14.2945C124.046 13.8126 123.656 13.4252 123.175 13.4252C122.695 13.4252 122.305 13.8126 122.305 14.2945V31.3377C122.305 31.8171 122.695 32.207 123.175 32.207Z" fill="#FADB54"/>
<path d="M124.154 19.5078H124.046V14.2945C124.046 14.1231 123.997 13.9641 123.912 13.83C124.04 13.9815 124.154 14.1777 124.154 14.3888V19.5078Z" fill="#E6D390"/>
<path d="M124.046 19.5078H123.57V13.5195C123.57 13.5195 123.752 13.6412 123.912 13.83C123.997 13.9641 124.046 14.1231 124.046 14.2945V19.5078Z" fill="#E3C64E"/>
<path d="M123.042 13.4326V13.4252H123.175C123.13 13.4252 123.086 13.4276 123.042 13.4326ZM123.308 13.4326C123.265 13.4276 123.22 13.4252 123.175 13.4252H123.308V13.4326Z" fill="#FDF7E3"/>
<path d="M123.308 19.5078H123.042V13.4326C123.086 13.4277 123.13 13.4252 123.175 13.4252C123.22 13.4252 123.265 13.4277 123.308 13.4326V19.5078Z" fill="#F9E282"/>
<path d="M141.854 19.5078H26.5276C17.8113 19.5078 10.7451 26.574 10.7451 35.2919V49.6428V65.6504C10.7451 70.6377 14.7888 74.6836 19.7771 74.6836H26.7491C31.7372 74.6836 35.7811 70.6377 35.7811 65.6504C35.7811 64.1527 36.9945 62.9382 38.4917 62.9382H71.5685H102.861C110.476 62.9382 116.649 69.1126 116.649 76.7302V77.5126C116.649 85.1277 110.476 91.3022 102.861 91.3022H13.8987C6.28379 91.3022 0.110413 97.4768 0.110413 105.092V111.636C0.110413 116.805 4.29983 120.995 9.4677 120.995H116.649H122.409H156.699C161.744 120.995 165.834 116.904 165.834 111.858V43.4906C165.834 30.2449 155.098 19.5078 141.854 19.5078Z" fill="#E5C0C8"/>
<path d="M136.885 96.1952C136.717 96.1952 136.551 96.1877 136.387 96.1728H137.383C137.219 96.1877 137.053 96.1952 136.885 96.1952ZM137.046 94.4144C135.073 94.4144 133.005 93.6394 132.016 93.2147C131.635 92.4696 131.421 91.6251 131.421 90.731V90.4131C131.445 90.4156 131.469 90.4156 131.493 90.4156H141.242C141.38 90.4156 141.513 90.3907 141.635 90.3435C141.181 93.5202 139.167 94.4144 137.046 94.4144ZM141.717 88.3069C141.573 88.2373 141.412 88.2001 141.242 88.2001H131.493C131.469 88.2001 131.445 88.2001 131.421 88.2026V87.6214C131.421 84.6012 133.867 82.1547 136.885 82.1547C138.553 82.1547 140.047 82.9023 141.049 84.0821C141.078 84.1616 141.101 84.2435 141.12 84.3255C141.478 85.8654 141.667 87.1818 141.717 88.3069Z" fill="#E66F8A"/>
<path d="M21.583 89.7275C21.5216 89.7275 21.4702 89.6828 21.4638 89.6208L21.1601 86.7496H22.0533L21.7163 89.6108C21.7084 89.6779 21.6513 89.7275 21.583 89.7275Z" fill="#839C9E"/>
<path d="M23.8667 69.4554H23.1967V34.8026H23.8667V69.4554Z" fill="#E5C0C8"/>
<path d="M25.8712 69.4554H25.2012V34.8026H25.8712V69.4554Z" fill="#E5C0C8"/>
<path d="M48.282 120.995H49.1684V91.3022H48.282V120.995Z" fill="#D69AA7"/>
<path d="M151.627 41.3522C151.627 48.9374 145.476 55.0896 137.89 55.0896C130.304 55.0896 124.154 48.9374 124.154 41.3522C124.154 33.7644 130.304 27.6122 137.89 27.6122C145.476 27.6122 151.627 33.7644 151.627 41.3522Z" fill="#839C9E"/>
<path d="M137.89 55.0896C137.182 55.0896 136.487 55.035 135.808 54.9332C131.048 54.2079 127.09 51.0412 125.255 46.7493C130.039 49.002 133.926 49.9558 137.08 49.9533C146.079 49.9508 149.112 42.1991 149.95 34.7678C150.039 34.9317 150.125 35.0957 150.207 35.2621C150.236 35.3192 150.265 35.3788 150.293 35.4384C150.423 35.7092 150.543 35.9848 150.655 36.2655C150.678 36.3251 150.701 36.3847 150.724 36.4419C150.828 36.7151 150.924 36.9907 151.011 37.2714C151.029 37.3285 151.047 37.3882 151.064 37.4478C151.145 37.7185 151.217 37.9966 151.281 38.2748C151.294 38.3344 151.308 38.394 151.32 38.4511C151.379 38.7244 151.429 39.0001 151.471 39.2782C151.48 39.3379 151.489 39.3974 151.497 39.4571C151.535 39.7303 151.564 40.006 151.586 40.2842C151.59 40.3413 151.595 40.4034 151.598 40.4605C151.617 40.7561 151.627 41.0516 151.627 41.3522C151.627 41.3894 151.626 41.4267 151.626 41.4664C151.624 41.7421 151.614 42.0203 151.595 42.2935C151.591 42.3531 151.586 42.4102 151.582 42.4698C151.559 42.748 151.529 43.0237 151.49 43.2969C151.481 43.3565 151.473 43.4161 151.464 43.4757C151.42 43.7539 151.369 44.0296 151.309 44.3028C151.296 44.3624 151.283 44.4196 151.269 44.4792C151.204 44.7573 151.131 45.033 151.049 45.3062C151.031 45.3658 151.013 45.4255 150.994 45.4826C150.906 45.7633 150.809 46.0389 150.704 46.3096C150.681 46.3717 150.658 46.4289 150.634 46.4885C150.521 46.7692 150.399 47.0448 150.268 47.3156C150.239 47.3752 150.21 47.4348 150.181 47.4919C150.04 47.775 149.89 48.0507 149.731 48.3215C149.696 48.3786 149.66 48.4382 149.624 48.4978C149.452 48.7809 149.27 49.0567 149.078 49.3249C149.035 49.3845 148.992 49.4441 148.949 49.5012C148.739 49.7869 148.519 50.0626 148.288 50.3283C148.236 50.3879 148.185 50.4475 148.132 50.5071C147.875 50.7928 147.607 51.0685 147.328 51.3342C147.265 51.3938 147.201 51.4534 147.137 51.5106C146.817 51.8012 146.484 52.0769 146.138 52.3377C146.058 52.3973 145.978 52.4569 145.897 52.5165C145.481 52.8145 145.047 53.0902 144.598 53.3436C144.49 53.4032 144.381 53.4628 144.272 53.5199C143.659 53.8428 143.018 54.1185 142.355 54.347C142.173 54.4091 141.988 54.4687 141.801 54.5233C140.562 54.8909 139.249 55.0896 137.89 55.0896Z" fill="#799193"/>
<path d="M131.492 42.897C129.809 42.897 128.415 42.3381 127.679 41.2056C126.133 38.8237 128.078 34.8174 132.023 32.2542C134.091 30.9105 136.298 30.23 138.153 30.23C139.837 30.23 141.231 30.7913 141.966 31.9239C143.513 34.3033 141.568 38.3121 137.623 40.8753C135.554 42.219 133.347 42.897 131.492 42.897Z" fill="#92ACAC"/>
<path d="M102.861 91.3022H88.0309L103.382 91.2923C108.63 90.5273 111.827 88.4013 113.765 85.9548C111.242 89.2085 107.296 91.3022 102.861 91.3022ZM115.186 83.6996C116.126 81.7945 116.493 79.8845 116.62 78.4067C116.499 80.3018 115.996 82.0901 115.186 83.6996ZM116.609 75.6746C114.815 64.1924 105.631 63.0549 103.366 62.9481C110.395 63.2014 116.082 68.7177 116.609 75.6722" fill="#EEF9FA"/>
<path d="M101.438 93.0581C94.3145 93.0581 88.0309 91.3022 88.0309 91.3022H102.861C107.296 91.3022 111.242 89.2084 113.765 85.9547C114.344 85.222 114.811 84.462 115.186 83.6995C115.996 82.09 116.499 80.3017 116.62 78.4066C116.76 76.7798 116.609 75.6746 116.609 75.6746C116.082 68.7177 110.395 63.2013 103.366 62.948C103.186 62.9405 103.049 62.9381 102.964 62.9381C102.896 62.9381 102.861 62.9381 102.861 62.9381H71.5685C77.5355 62.9381 89.2669 60.3426 99.8643 60.3426C111.366 60.3426 121.53 63.4025 121.53 76.1564C121.53 90.0504 110.764 93.0581 101.438 93.0581Z" fill="#DBCACE"/>
<path d="M106.727 40.7635C106.727 42.3506 105.441 43.6346 103.855 43.6346C102.269 43.6346 100.984 42.3506 100.984 40.7635C100.984 39.1789 102.269 37.8923 103.855 37.8923C105.441 37.8923 106.727 39.1789 106.727 40.7635Z" fill="#E1C554"/>
<path d="M106.329 40.3487C106.329 41.9358 105.043 43.2198 103.457 43.2198C101.871 43.2198 100.586 41.9358 100.586 40.3487C100.586 38.7641 101.871 37.4775 103.457 37.4775C105.043 37.4775 106.329 38.7641 106.329 40.3487Z" fill="#FADB54"/>
<path d="M103.457 43.2198C102.747 43.2198 102.097 42.964 101.595 42.5368C101.289 42.2736 101.038 41.9507 100.864 41.5831C101.948 42.0277 102.812 42.2189 103.496 42.2189C105.519 42.2189 105.974 40.5524 105.917 38.8659C106.178 39.3006 106.329 39.8072 106.329 40.3487C106.329 41.9358 105.043 43.2198 103.457 43.2198Z" fill="#EFD154"/>
<path d="M102.709 40.2915C102.251 40.2915 101.846 40.0432 101.715 39.6408C101.547 39.1192 101.9 38.5405 102.504 38.3443C102.639 38.3021 102.775 38.2797 102.907 38.2797C103.365 38.2797 103.77 38.5306 103.901 38.9329C104.069 39.452 103.716 40.0332 103.112 40.2269C102.977 40.2716 102.841 40.2915 102.709 40.2915Z" fill="#FADF67"/>
<path d="M92.9221 40.9721C92.9221 42.5567 91.6365 43.8433 90.0506 43.8433C88.465 43.8433 87.1791 42.5567 87.1791 40.9721C87.1791 39.385 88.465 38.1009 90.0506 38.1009C91.6365 38.1009 92.9221 39.385 92.9221 40.9721Z" fill="#E1C554"/>
<path d="M92.5235 40.5573C92.5235 42.1419 91.2379 43.4285 89.652 43.4285C88.0664 43.4285 86.7808 42.1419 86.7808 40.5573C86.7808 38.9702 88.0664 37.6861 89.652 37.6861C91.2379 37.6861 92.5235 38.9702 92.5235 40.5573Z" fill="#FADB54"/>
<path d="M89.652 43.4285C88.9418 43.4285 88.2919 43.1702 87.7907 42.743C87.4843 42.4822 87.2335 42.1568 87.0584 41.7892C88.1426 42.2363 89.0069 42.4276 89.6913 42.4276C91.7137 42.4276 92.1687 40.7585 92.1118 39.0745C92.3733 39.5067 92.5235 40.0134 92.5235 40.5573C92.5235 42.1419 91.2379 43.4285 89.652 43.4285Z" fill="#EFD154"/>
<path d="M88.9041 40.5002C88.4466 40.5002 88.0406 40.2494 87.9102 39.847C87.7421 39.3279 88.0955 38.7467 88.6989 38.553C88.834 38.5083 88.9704 38.4884 89.1022 38.4884C89.5597 38.4884 89.9657 38.7368 90.0961 39.1417C90.2639 39.6608 89.9108 40.2395 89.3073 40.4357C89.1723 40.4779 89.0359 40.5002 88.9041 40.5002Z" fill="#FADF67"/>
<path d="M79.1169 41.1783C79.1169 42.7654 77.8315 44.052 76.2456 44.052C74.6597 44.052 73.3744 42.7654 73.3744 41.1783C73.3744 39.5937 74.6597 38.3071 76.2456 38.3071C77.8315 38.3071 79.1169 39.5937 79.1169 41.1783Z" fill="#E1C554"/>
<path d="M78.7185 40.7635C78.7185 42.3506 77.4332 43.6346 75.8473 43.6346C74.2614 43.6346 72.976 42.3506 72.976 40.7635C72.976 39.1789 74.2614 37.8923 75.8473 37.8923C77.4332 37.8923 78.7185 39.1789 78.7185 40.7635Z" fill="#FADB54"/>
<path d="M75.8473 43.6346C75.137 43.6346 74.4869 43.3788 73.9855 42.9516C73.6793 42.6883 73.4287 42.3655 73.2537 41.9979C74.3381 42.4424 75.2019 42.6337 75.886 42.6337C77.9087 42.6337 78.3637 40.9671 78.307 39.2807C78.5683 39.7153 78.7185 40.222 78.7185 40.7635C78.7185 42.3506 77.4331 43.6346 75.8473 43.6346Z" fill="#EFD154"/>
<path d="M75.0991 40.7064C74.6416 40.7064 74.2356 40.458 74.1052 40.0532C73.9373 39.5341 74.2905 38.9554 74.8942 38.7592C75.0293 38.7169 75.1654 38.6946 75.2972 38.6946C75.7547 38.6946 76.1607 38.9454 76.2911 39.3478C76.4592 39.8669 76.1058 40.4481 75.5024 40.6418C75.3673 40.6865 75.2309 40.7064 75.0991 40.7064Z" fill="#FADF67"/>
<path d="M65.3122 41.3869C65.3122 42.9715 64.0265 44.2581 62.4409 44.2581C60.855 44.2581 59.5694 42.9715 59.5694 41.3869C59.5694 39.7998 60.855 38.5157 62.4409 38.5157C64.0265 38.5157 65.3122 39.7998 65.3122 41.3869Z" fill="#E1C554"/>
<path d="M64.9138 40.972C64.9138 42.5567 63.6282 43.8433 62.0423 43.8433C60.4564 43.8433 59.1711 42.5567 59.1711 40.972C59.1711 39.3849 60.4564 38.1009 62.0423 38.1009C63.6282 38.1009 64.9138 39.3849 64.9138 40.972Z" fill="#FADB54"/>
<path d="M62.0423 43.8433C61.3321 43.8433 60.6824 43.5849 60.181 43.1577C59.8746 42.8969 59.624 42.5741 59.4489 42.2065C60.5332 42.6511 61.3969 42.8423 62.0813 42.8423C64.104 42.8423 64.5589 41.1732 64.5021 39.4893C64.7633 39.9214 64.9138 40.4281 64.9138 40.972C64.9138 42.5567 63.6282 43.8433 62.0423 43.8433Z" fill="#EFD154"/>
<path d="M61.2941 40.9149C60.8366 40.9149 60.4309 40.6641 60.3005 40.2617C60.1326 39.7426 60.4855 39.1614 61.0892 38.9677C61.2241 38.923 61.3604 38.9031 61.4923 38.9031C61.9499 38.9031 62.356 39.1515 62.4861 39.5563C62.6542 40.0754 62.3011 40.6541 61.6974 40.8503C61.5623 40.8926 61.4262 40.9149 61.2941 40.9149Z" fill="#FADF67"/>
<path d="M40.9725 19.5078H33.0603C33.0603 17.4513 34.7266 15.7847 36.7824 15.7847H37.2502C39.3059 15.7847 40.9725 17.4513 40.9725 19.5078Z" fill="#FADB54"/>
<path d="M40.9725 19.5078H33.0603C33.0603 19.401 33.0648 19.2967 33.0735 19.1924C33.2153 19.1924 33.3551 19.1949 33.4917 19.1949C38.9424 19.1949 40.2749 18.2387 40.2235 17.2675C40.6936 17.8909 40.9725 18.6658 40.9725 19.5078Z" fill="#F3D454"/>
<path d="M36.7772 17.0192C35.6209 17.0192 34.6586 16.8403 34.4557 16.6019C34.6926 16.4106 34.9531 16.2492 35.2325 16.1225C35.6465 16.0455 36.1864 15.9983 36.7772 15.9983C38.0809 15.9983 39.1381 16.2268 39.1381 16.5075C39.1381 16.7906 38.0809 17.0192 36.7772 17.0192Z" fill="#FADF67"/>
<path d="M14.5427 55.6235C14.5427 55.6235 7.90641 22.1828 29.0909 22.1828C51.2651 22.1828 51.417 22.1828 150.664 22.1927C150.7 22.2126 150.737 22.2349 150.773 22.2548L136.107 22.7019L29.8565 27.1601C29.8565 27.1601 29.4763 27.0881 28.8361 27.0881C25.4116 27.0881 14.5427 29.1719 14.5427 55.6235ZM152.634 22.1977C152.629 22.1952 152.625 22.1952 152.62 22.1927C152.7 22.1927 152.787 22.1927 152.867 22.1927L152.634 22.1977Z" fill="#D7CED0"/>
<path d="M159.365 111.403C158.877 97.1886 157.305 46.0911 159.496 34.8026C159.496 34.8026 164.535 87.6089 160.292 111.4L159.365 111.403Z" fill="#DACBCE"/>
<path d="M165.834 43.4906C165.834 43.4906 163.749 29.8897 150.773 22.2548L152.634 22.1977C158.263 25.0415 165.316 31.067 165.834 43.4906ZM152.62 22.1927C151.965 22.1927 151.311 22.1927 150.664 22.1927C149.14 21.3035 147.467 20.4963 145.63 19.8033C145.63 19.8033 148.794 20.2628 152.62 22.1927Z" fill="#D7CED0"/>
<path d="M150.773 22.2548C150.737 22.2349 150.7 22.2125 150.664 22.1927C151.311 22.1927 151.965 22.1927 152.62 22.1927C152.625 22.1952 152.629 22.1952 152.634 22.1976L150.773 22.2548Z" fill="#9FC5C8"/>
<path d="M156.89 121C156.767 121 156.699 120.998 156.699 120.998H131.421H47.4491H9.46768C9.46346 120.995 9.459 120.995 9.45477 120.995C9.45924 120.995 9.46321 120.995 9.46768 120.995H48.282H49.1684H116.649H122.409H156.699C161.744 120.995 165.834 116.904 165.834 111.857V111.383C167.323 120.632 158.326 121 156.89 121ZM5.8765 120.282C-1.28897 117.995 0.110401 111.91 0.110401 111.91C0.2224 115.687 2.57041 118.906 5.8765 120.282Z" fill="#C7D8D7"/>
<path d="M156.699 120.995H49.1684V111.753L159.365 111.403C159.445 113.743 159.496 115.084 159.496 115.084C159.792 113.956 160.056 112.724 160.292 111.4L165.834 111.383V111.858C165.834 116.904 161.744 120.995 156.699 120.995ZM48.282 120.995H9.46769C9.46322 120.995 9.45925 120.995 9.45478 120.995C8.0718 120.851 6.88922 120.605 5.87651 120.282C2.57042 118.906 0.222406 115.687 0.11438 111.91L48.282 111.756V120.995Z" fill="#9C878C"/>
<path d="M49.1684 120.995H48.282V111.756L49.1684 111.753V120.995Z" fill="#B64F66"/>
<path d="M159.496 115.084C159.496 115.084 159.445 113.743 159.365 111.403L160.292 111.4C160.056 112.724 159.792 113.956 159.496 115.084Z" fill="#9FC5C8"/>
<path d="M22.8798 98.4702C22.6548 98.4702 22.4298 98.4653 22.2048 98.4504L18.6576 98.1871C17.475 98.0902 16.2924 98.0033 15.1101 97.9014C12.7452 97.7027 10.3806 97.4916 8.01566 97.2408C10.3806 96.9924 12.7452 96.7788 15.1101 96.5826C16.2924 96.4783 17.475 96.3913 18.6576 96.2945L22.2048 96.0312C22.43 96.0163 22.655 96.0114 22.8803 96.0114C23.2463 96.0114 23.6124 96.0263 23.9784 96.0362C24.2931 96.0437 24.6077 96.0436 24.9223 96.0436C25.0234 96.0436 25.1242 96.0436 25.2253 96.0436C25.3132 96.0436 25.4009 96.0436 25.4888 96.0436C25.5767 96.0436 25.6644 96.0436 25.7523 96.0436H29.2995H36.3942H48.282V98.438H36.3942H29.2995H25.7523C25.678 98.438 25.6038 98.438 25.5295 98.438C25.4282 98.438 25.3266 98.438 25.2253 98.438C25.1252 98.438 25.0252 98.438 24.9251 98.438C24.6094 98.438 24.2941 98.438 23.9784 98.4454C23.6124 98.4553 23.2461 98.4702 22.8798 98.4702ZM107.341 98.438H93.1516H64.773H49.1683V96.0436H64.773H93.1516H107.341L110.888 96.3119C112.071 96.4063 113.253 96.4956 114.436 96.5975C115.618 96.6943 116.801 96.7962 117.983 96.903L119.757 97.0694L120.644 97.1514L121.53 97.2408L120.644 97.3302L119.757 97.4121L117.983 97.5786C116.801 97.6854 115.618 97.7872 114.436 97.8841C113.253 97.9859 112.071 98.0753 110.888 98.1697L107.341 98.438Z" fill="#D7CED0"/>
<path d="M48.282 98.438H49.1684V96.045H48.282V98.438Z" fill="#96B2B4"/>
<path d="M23.5185 74.8053V74.6836H25.9209C25.0771 74.7606 24.2752 74.7978 23.5185 74.8053ZM30.2047 73.9981C30.9353 73.6951 31.6172 73.3002 32.2363 72.8258C31.1558 73.7423 30.276 73.9807 30.2047 73.9981ZM35.7903 65.4243C35.9045 64.0335 37.0702 62.9381 38.4917 62.9381H49.9377C49.9377 62.9381 44.2906 62.9381 39.6964 62.9381C36.9361 62.9381 36.0543 64.3216 35.7903 65.4243Z" fill="#C7D8D7"/>
<path d="M25.9209 74.6836H23.5185V74.4601H19.6949V74.5768C16.9299 74.2117 15.3647 73.5337 15.3647 73.5337C16.9379 73.6777 18.3814 73.7448 19.7093 73.7448C30.9288 73.7448 33.7681 68.9561 34.3395 65.4442C34.6546 63.5069 36.3147 62.0986 38.246 62.0986C38.3421 62.0986 38.439 62.1036 38.5361 62.111L49.9377 62.9381H38.4917C37.0702 62.9381 35.9045 64.0335 35.7903 65.4243C35.6147 66.1595 35.712 66.768 35.712 66.768C34.8473 70.0018 33.4211 71.8224 32.2363 72.8258C31.6172 73.3002 30.9353 73.6951 30.2047 73.9981C30.2017 73.9981 30.2002 74.0006 30.2002 74.0006C28.6784 74.3458 27.2478 74.5619 25.9209 74.6836Z" fill="#CF8B9A"/>
<path d="M21.6068 86.7346C20.5506 86.7346 19.6949 85.8777 19.6949 84.8222V74.4601H23.5185V84.8222C23.5185 85.8777 22.6627 86.7346 21.6068 86.7346Z" fill="#FADB54"/>
<path d="M22.0513 86.7644L22.0533 86.7495H21.7345C21.6927 86.7445 21.6503 86.7395 21.6068 86.7346H20.902C20.902 86.7346 20.8916 86.7346 20.8732 86.7346C20.69 86.7346 19.6949 86.67 19.6949 85.2394C19.6949 85.2394 19.7162 85.2642 19.756 85.3039C19.9693 86.1261 20.717 86.7346 21.6068 86.7346C22.6627 86.7346 23.5185 85.8777 23.5185 84.8221V80.8332V85.5275C23.5185 85.5275 23.4832 86.752 22.0513 86.7644Z" fill="#ECD57C"/>
<path d="M22.0285 86.7644C21.9364 86.7644 21.8383 86.7594 21.7345 86.7495H22.0533L22.0513 86.7644C22.0439 86.7644 22.0362 86.7644 22.0285 86.7644Z" fill="#CBBC6C"/>
<path d="M21.6068 86.7346C20.717 86.7346 19.9693 86.1261 19.756 85.304C19.9027 85.448 20.2988 85.7884 20.7821 85.7884C21.6654 85.7884 22.8396 84.6533 23.3136 79.122V79.4375H23.3032V79.5269H23.3136V79.9491H23.2977V80.036H23.3136V80.4583H23.2923V80.5477H23.3136V80.8333H23.5185V84.8222C23.5185 85.8777 22.6628 86.7346 21.6068 86.7346ZM23.5185 78.8016H23.34C23.4363 77.5722 23.4991 76.1366 23.5185 74.4601V74.6836V78.8016Z" fill="#ECCD54"/>
<path d="M20.5574 83.4114C20.3642 83.4114 20.2075 81.5784 20.2075 79.3157C20.2075 77.0531 20.3642 75.2201 20.5574 75.2201C20.7506 75.2201 20.907 77.0531 20.907 79.3157C20.907 81.5784 20.7506 83.4114 20.5574 83.4114Z" fill="#FADF67"/>
<path d="M23.9675 80.8334H23.3136V78.8017H23.9675C24.5287 78.8017 24.9832 79.2563 24.9832 79.8176C24.9832 80.3789 24.5287 80.8334 23.9675 80.8334Z" fill="#FADB54"/>
<path d="M24.1272 79.0153H23.3087V78.9258H24.1272V79.0153Z" fill="#CAB24E"/>
<path d="M23.3032 79.5269H24.1218V79.4382H23.3032V79.5269Z" fill="#CAB24E"/>
<path d="M23.2978 80.036H24.1163V79.9474H23.2978V80.036Z" fill="#CAB24E"/>
<path d="M23.2923 80.5477H24.1107V80.4591H23.2923V80.5477Z" fill="#CAB24E"/>
<path d="M24.7095 80.2894C24.608 80.2894 24.5258 80.0684 24.5258 79.7952C24.5258 79.522 24.608 79.3009 24.7095 79.3009C24.8106 79.3009 24.8928 79.522 24.8928 79.7952C24.8928 80.0684 24.8106 80.2894 24.7095 80.2894Z" fill="#FADF67"/>
<path d="M134.704 96.1727C134.463 96.1727 132.012 96.0957 131.421 92.9414C131.421 92.9414 131.641 93.0532 132.016 93.2146C132.85 94.844 134.476 95.9989 136.387 96.1727H134.723C134.723 96.1727 134.716 96.1727 134.704 96.1727ZM139.208 96.1727H137.383C140.168 95.9219 142.35 93.5797 142.35 90.7309V89.3078V92.3652C142.35 92.3652 142.231 95.7679 139.208 96.1727Z" fill="#AB475D"/>
<path d="M137.383 96.1727H136.387C134.476 95.9989 132.85 94.844 132.016 93.2146C133.005 93.6394 135.073 94.4143 137.046 94.4143C139.167 94.4143 141.181 93.5201 141.635 90.3434C142.053 90.1845 142.35 89.7821 142.35 89.3078V90.7309C142.35 93.5797 140.168 95.9219 137.383 96.1727Z" fill="#55232E"/>
<path d="M142.35 89.3077V87.6213C142.35 86.2701 141.86 85.0357 141.049 84.082C140.839 83.4809 140.32 82.8674 138.815 82.1546C138.815 82.1546 141.75 82.1546 142.35 85.4306V89.3077Z" fill="#D6CFD1"/>
<path d="M142.35 89.3077C142.35 88.8656 142.091 88.4856 141.717 88.3068C141.667 87.1817 141.478 85.8653 141.12 84.3254C141.101 84.2434 141.078 84.1615 141.049 84.082C141.86 85.0357 142.35 86.2701 142.35 87.6213V89.3077Z" fill="#BB5A6F"/>
<path d="M141.241 90.4155H131.493C130.881 90.4155 130.385 89.9188 130.385 89.3078C130.385 88.6968 130.881 88.2001 131.493 88.2001H141.241C141.853 88.2001 142.35 88.6968 142.35 89.3078C142.35 89.9188 141.853 90.4155 141.241 90.4155Z" fill="#FADB54"/>
<path d="M135.648 89.3077C133.613 89.3077 131.963 89.1985 131.963 89.0668C131.963 88.9327 133.613 88.8234 135.648 88.8234C137.683 88.8234 139.333 88.9327 139.333 89.0668C139.333 89.1985 137.683 89.3077 135.648 89.3077Z" fill="#F9DE6C"/>
</svg>
