<svg width="441" height="71" viewBox="0 0 441 71" fill="none" xmlns="http://www.w3.org/2000/svg">
<path d="M64.8922 30C63.9277 31.8141 62.8917 33.9295 61.1256 35.1143C59.7733 36.0216 58.1695 36.4674 56.556 36.5452C54.9585 36.6223 53.5943 36.3907 52.0463 36.0236C48.7931 35.2523 45.5026 34.506 42.1962 33.9973C40.5649 33.7463 38.9234 33.4763 37.2711 33.4157C35.4078 33.3473 33.5319 33.4065 31.6675 33.4065C29.1759 33.4065 26.6713 34.0604 24.5868 35.4651C22.81 36.6626 20.9661 37.9165 19.0109 38.7977C16.4413 39.9559 13.5044 39.804 10.7578 39.804C7.40974 39.804 3.96533 38.8586 1 37.3115" stroke="url(#paint0_linear_29_59)" stroke-width="2" stroke-linecap="round" stroke-dasharray="4 4"/>
<g clip-path="url(#clip0_29_59)">
<path d="M129.141 43.4711L60.715 28.5965C60.5887 28.5693 60.4692 28.526 60.3584 28.4696C60.113 28.3449 59.9114 28.1552 59.7718 27.9275L59.7706 27.9256C59.5883 27.6285 59.5111 27.2672 59.5757 26.9005C59.579 26.8808 59.5831 26.8614 59.5872 26.842C59.6954 26.3437 60.0447 25.9588 60.4862 25.7835C60.7494 25.6794 61.0445 25.6497 61.3417 25.7139L61.4021 25.7285L129.141 43.4711ZM68.2455 29.3427C68.38 29.2549 68.4822 29.1187 68.5219 28.9508L68.4447 28.4626L68.0448 28.1731L61.7564 26.6667C61.4484 26.5929 61.1394 26.753 61.0154 27.0326C61.0006 27.0679 60.9881 27.1052 60.978 27.1442C60.9594 27.2225 60.9563 27.3012 60.9654 27.3767C60.9775 27.4681 61.0086 27.5547 61.0561 27.632C61.1148 27.7277 61.1991 27.8088 61.302 27.8637C61.3495 27.8886 61.4008 27.9088 61.4552 27.922L67.7437 29.4282C67.9229 29.4711 68.1024 29.4345 68.2455 29.3427Z" fill="url(#paint1_linear_29_59)"/>
</g>
<path d="M66 27.7754C66.0686 27.227 67.4732 26.4668 67.901 26.2433C69.848 25.2262 71.8127 24.3163 73.9445 23.7464C78.6857 22.479 83.3522 21.4256 88.3013 21.3915C98.7047 21.3197 108.684 23.8632 118.831 25.8177C131.911 28.3371 144.786 31.902 157.731 35.0106C163.553 36.4088 169.386 37.5059 175.308 38.387C181.826 39.3568 188.331 40.4547 194.928 40.6853C208.932 41.1746 223.605 41.3266 237.289 37.9331C251.636 34.3751 264.836 27.4941 279.225 24.0586C298.29 19.5064 317.498 17.7411 336.993 19.9444C346.205 20.9857 355.176 22.8861 364.089 25.3921C370.341 27.1498 376.722 28.3933 383.042 29.8751C389.548 31.4003 396.08 32.763 402.705 33.6487C408.009 34.3579 413.287 34.613 418.637 34.6559C425.793 34.7134 432.327 33.2255 439.335 31.8612" stroke="url(#paint2_linear_29_59)" stroke-width="2" stroke-linecap="round" stroke-dasharray="4 4"/>
<defs>
<linearGradient id="paint0_linear_29_59" x1="32.9461" y1="30" x2="32.9461" y2="39.8106" gradientUnits="userSpaceOnUse">
<stop stop-color="#CBD5F0"/>
<stop offset="1" stop-color="#EFB7BA"/>
</linearGradient>
<linearGradient id="paint1_linear_29_59" x1="94.0275" y1="36.5769" x2="94.7147" y2="33.7081" gradientUnits="userSpaceOnUse">
<stop stop-color="#353533"/>
<stop offset="0.0443919" stop-color="#353533"/>
<stop offset="0.264045" stop-color="#7B7B7A"/>
<stop offset="0.522472" stop-color="#232321"/>
<stop offset="0.581976" stop-color="#232321"/>
<stop offset="0.876404" stop-color="#868685"/>
<stop offset="1" stop-color="#3E3E3C"/>
</linearGradient>
<linearGradient id="paint2_linear_29_59" x1="252.667" y1="19" x2="252.667" y2="40.948" gradientUnits="userSpaceOnUse">
<stop stop-color="#CBD5F0"/>
<stop offset="1" stop-color="#EFB7BA"/>
</linearGradient>
<clipPath id="clip0_29_59">
<rect width="51" height="51" fill="white" transform="translate(85.6696 70.1406) rotate(-121.529)"/>
</clipPath>
</defs>
</svg>
