<svg width="51" height="50" viewBox="0 0 51 50" fill="none" xmlns="http://www.w3.org/2000/svg">
<g clip-path="url(#clip0_112_598)">
<path d="M41.1686 48.8213C39.4068 32.145 40.2649 36.7765 37.6732 13.4882L37.0945 12.5924L35.2334 10.53L32.8199 6.65679L31.9838 4.03491L28.996 4.59438L24.6386 4.77046L23.1861 4.71177L19.799 4.30044L19.7823 4.40571L19.8971 4.63618L19.7236 4.79556L14.7833 48.6588L15.2008 49.6984L15.7039 50.0001H19.9577C20.4756 50.0001 20.9186 49.6291 21.0083 49.1191L24.5882 17.8024C24.8342 16.9958 25.976 16.9958 26.222 17.8024L29.7012 49.1191C29.791 49.6291 30.2339 50.0001 30.7518 50.0001H40.1075C40.7411 50.0001 41.2352 49.4514 41.1686 48.8213Z" fill="#EEE1DD"/>
<path d="M19.9313 4.3166L18.9124 4.19287L18.5416 5.23164C18.5416 5.23164 16.5966 9.12168 16.5295 9.29619C16.4624 9.4707 13.5784 12.6093 13.5784 12.6093L13.1368 13.4883C10.5422 36.8008 11.407 32.1114 9.64152 48.8213C9.57501 49.4514 10.0691 50.0001 10.7026 50.0001H15.704C15.0305 49.3845 15.0876 48.5835 15.0876 48.5835C15.0876 48.5835 19.1889 11.2823 19.9313 4.3166Z" fill="#EFD9D1"/>
<path d="M34.8538 44.7683C34.4692 44.7683 34.1405 44.4756 34.1035 44.0848C33.9526 42.4916 33.8522 41.3049 33.7551 40.1573C33.4712 36.8031 33.203 33.635 31.7714 21.0269C31.7244 20.613 32.0219 20.2392 32.436 20.1922C32.8506 20.145 33.2237 20.4427 33.2708 20.8568C34.7049 33.4862 34.9739 36.6648 35.2587 40.03C35.3556 41.1739 35.4557 42.3568 35.6059 43.9426C35.6451 44.3575 35.3407 44.7256 34.9258 44.7649C34.9017 44.7672 34.8777 44.7683 34.8538 44.7683Z" fill="#A66B6B"/>
<path d="M15.9564 44.7684C15.9325 44.7684 15.9085 44.7672 15.8843 44.7649C15.4694 44.7257 15.165 44.3574 15.2043 43.9426C15.3551 42.3514 15.4552 41.1678 15.552 40.0232C15.8359 36.6665 16.1041 33.496 17.5394 20.8566C17.5864 20.4428 17.9603 20.1453 18.3742 20.1921C18.7883 20.2392 19.0859 20.6129 19.0388 21.027C17.606 33.6448 17.3387 36.8049 17.0557 40.1504C16.9586 41.2987 16.8581 42.4861 16.7067 44.0849C16.6696 44.4756 16.341 44.7684 15.9564 44.7684Z" fill="#A66B6B"/>
<path d="M27.9146 4.59448L25.4051 4.69507L25.0833 5.02183V13.3085C25.0833 13.8462 25.6723 14.1762 26.1309 13.8955L28.0408 12.726C28.2451 12.6009 28.3696 12.3787 28.3696 12.1391V4.90581L27.9146 4.59448Z" fill="#EFD9D1"/>
<path d="M19.0278 3.97393L14.6348 3.35352L14.2577 3.56602C13.8248 7.35361 13.4547 10.632 13.1368 13.4881C17.2742 11.1096 18.7952 6.51426 19.2719 4.54922L19.0278 3.97393Z" fill="#BFBFBF"/>
<path d="M36.5525 3.56597L35.9629 3.33667L31.8046 4.26206L31.5383 4.54917C32.015 6.51421 33.536 11.1094 37.6733 13.4879C37.3554 10.6318 36.9854 7.35317 36.5525 3.56597Z" fill="#EFD9D1"/>
<path d="M25.0833 1.54404L25.0836 1.54316C23.7102 1.52539 22.3653 1.396 21.1219 1.21338L20.5202 1.43174L20.0989 2.40635L19.7824 4.40586L19.8972 4.63633C21.5372 4.85518 23.2942 5.00508 25.0837 5.02129L25.4051 4.59443V1.95361L25.0833 1.54404Z" fill="#BFBFBF"/>
<path d="M21.156 1.21851C19.9919 1.04878 18.9157 0.831982 17.9901 0.614502L17.7661 0.847021L17.3637 3.7645L17.5242 4.26235C18.278 4.39927 19.0731 4.52632 19.8971 4.63628C19.9661 3.99136 20.0131 3.54517 20.0338 3.33687C20.1656 2.01138 20.6734 1.44868 21.156 1.21851Z" fill="#9F9696"/>
<path d="M17.9901 0.614434C17.1245 0.411016 16.3891 0.207403 15.8355 0.0424617C15.2434 -0.134003 14.6361 0.265216 14.5656 0.878887C14.4596 1.80262 14.357 2.69734 14.2577 3.56609C15.2125 3.79969 16.3165 4.04295 17.5243 4.26229L17.9901 0.614434Z" fill="#766D6D"/>
<path d="M33.5065 3.87349L33.0956 0.855322L32.8199 0.614502C30.836 1.08071 28.1646 1.54644 25.4051 1.54644C25.2977 1.54644 25.1904 1.54546 25.0832 1.54399V5.02183C25.1904 5.0228 25.2977 5.02358 25.4051 5.02358C28.2065 5.02358 30.9421 4.68794 33.2859 4.26226L33.5065 3.87349Z" fill="#A66B6B"/>
<path d="M33.2859 4.26225C34.4937 4.04292 35.5977 3.79966 36.5525 3.56606C36.4531 2.69692 36.3506 1.8019 36.2444 0.87788C36.174 0.264696 35.5675 -0.134425 34.9761 0.0419422C34.4223 0.207079 33.6863 0.41079 32.8199 0.614403L33.2859 4.26225Z" fill="#BFBFBF"/>
</g>
<defs>
<clipPath id="clip0_112_598">
<rect width="50" height="50" fill="white" transform="translate(0.40509)"/>
</clipPath>
</defs>
</svg>
