<svg width="51" height="50" viewBox="0 0 51 50" fill="none" xmlns="http://www.w3.org/2000/svg">
<g clip-path="url(#clip0_118_907)">
<path d="M48.1909 32.5321C42.9874 42.8756 36.6766 44.4155 27.0036 40.6486L25.5583 30.8943L23.5093 41.3442C23.8631 40.9719 3.11767 40.4551 2.72864 32.5342C4.69492 16.7117 10.3755 1.1465 10.3755 1.1465C16.3008 3.18627 33.5326 3.18201 39.442 1.1465C39.442 1.1465 45.6454 16.5819 48.1909 32.5321Z" fill="#44A54B"/>
<path d="M24.5356 28.1612C22.9513 28.644 22.1767 26.2916 23.9864 26.0916C24.6641 26.1767 25.1006 25.9576 25.0355 25.294C25.0249 25.2515 24.1201 5.79606 24.1149 5.73863C24.0321 4.40502 25.9597 4.24762 26.0054 5.60037L26.9191 25.0473C27.1462 26.1257 26.178 28.2143 24.5356 28.1612Z" fill="#348938"/>
<path d="M8.75601 23.0798C7.43576 23.0947 7.38647 20.5763 8.64334 20.3381C11.2715 20.0105 16.6176 14.6272 16.8201 10.9156C16.9591 9.24167 19.105 9.45437 18.9483 11.1602C18.8533 15.7821 12.3119 22.8713 8.75601 23.0798Z" fill="#E2D154"/>
<path d="M41.0616 23.0798C42.3818 23.0947 42.4329 20.5763 41.1742 20.3381C38.5478 20.0105 33.2017 14.6272 32.9975 10.9156C32.8584 9.24167 30.7126 9.45437 30.8693 11.1602C30.9643 15.7821 37.5057 22.8713 41.0616 23.0798Z" fill="#E2D154"/>
<path d="M40.1937 4.09226C32.3215 7.52945 17.4995 7.39544 9.68369 3.75831L10.636 -3.43323e-05C19.7686 2.81182 30.0296 2.37367 39.2625 0.0829206L40.1937 4.09226Z" fill="#348938"/>
<path d="M26.2871 4.58996C26.3118 6.27665 24.1395 6.27665 24.1624 4.58996C24.1466 2.91178 26.303 2.91391 26.2871 4.58996Z" fill="#EAD349"/>
<path d="M17.5436 1.46337C17.2232 2.89482 16.9944 4.36031 16.8623 5.85132C15.8097 5.65138 14.8573 5.4323 14.0194 5.2111C14.1655 3.76901 14.3926 2.34819 14.7007 0.957151C15.5579 1.13156 16.5173 1.30598 17.5436 1.46337Z" fill="#44A54B"/>
<path d="M35.8528 5.43856C35.0096 5.64062 34.0537 5.84055 32.9993 6.01709C32.8655 4.43888 32.6261 2.88407 32.2828 1.37179C33.2915 1.22077 34.2596 1.057 35.1345 0.901735C35.4637 2.38424 35.7031 3.90076 35.8528 5.43856Z" fill="#44A54B"/>
<path d="M25.4087 5.16211C25.1552 5.16211 24.9035 4.96432 24.9088 4.5687C24.9035 4.17521 25.1552 3.9774 25.4069 3.9774C25.6587 3.9774 25.9104 4.17521 25.9069 4.5687C25.9122 4.96432 25.6604 5.16211 25.4087 5.16211Z" fill="#F2E592"/>
<path d="M31.0787 41.9055C28.7076 41.3653 27.0036 40.6485 27.0036 40.6485L25.5583 30.8942L23.5093 41.344C23.5093 41.344 11.0708 40.2571 5.42899 36.7157L3.29547 33.3274C10.3755 41.0143 19.4324 33.4104 25.2257 29.0373C26.6198 28.5013 30.2179 39.2596 31.0787 41.9055Z" fill="#348938"/>
<path d="M23.6994 40.3742C23.6237 42.7202 23.5216 45.9724 23.1185 48.0441C22.2331 52.0874 13.9032 48.8608 9.31403 47.2677C5.58918 45.6704 -0.929325 42.633 0.111029 38.7598C0.799317 37.1859 1.86079 34.7164 2.72864 32.532C6.29682 38.1962 19.3303 40.7677 23.6994 40.3742Z" fill="#E2D154"/>
<path d="M50.2082 41.6399C46.0503 46.9127 34.7596 49.9841 29.9891 49.9819C28.9276 49.8947 28.021 49.1928 27.801 48.0443C27.3996 45.9726 27.0036 43.1203 27.0036 40.6488C31.4537 40.7445 44.341 38.3942 48.1909 32.5322C49.0605 34.7166 50.122 37.1861 50.8085 38.7579C51.2486 39.7639 50.8807 40.804 50.2082 41.6399Z" fill="#E2D154"/>
</g>
<defs>
<clipPath id="clip0_118_907">
<rect width="51" height="50" fill="white"/>
</clipPath>
</defs>
</svg>
