<svg width="50" height="50" viewBox="0 0 50 50" fill="none" xmlns="http://www.w3.org/2000/svg">
<g clip-path="url(#clip0_115_658)">
<path d="M25.3465 4.04102H19.0175V4.53467L18.6229 4.829L13.4375 48.3947L14.1239 49.7528L14.5399 50H16.7357C17.2536 50 17.6966 49.6289 17.7863 49.1189C18.5222 44.9411 19.9018 36.9558 20.4536 32.7411C20.9952 28.6051 23.0274 21.5919 24.1831 17.8023C24.3061 17.399 24.653 17.1974 25 17.1974L25.3465 16.7172V15.3086L25 14.6374L25.3465 14.2858V4.04102Z" fill="#5291D9"/>
<path d="M18.1482 4.38867L17.2885 5.16445L16.6945 7.99805L14.8837 9.23887L13.7436 9.20537L13.1949 9.38887C12.2689 17.6444 11.0387 28.9028 10.6617 33.7204C10.2457 39.0362 9.61593 45.2309 9.23663 48.8213C9.16993 49.4513 9.66398 50 10.2975 50H14.54C13.9213 49.3631 13.9279 48.4073 13.9279 48.4073L19.0174 4.53467L18.7867 4.04102H18.4027L18.1482 4.38867Z" fill="#0972D0"/>
<path d="M40.7636 48.8213C40.3843 45.2309 39.7544 39.0362 39.3384 33.7204C38.9614 28.9028 37.7313 17.6445 36.8052 9.38887L36.1312 9.37305L34.3285 9.13408L33.005 7.52451L32.4539 4.68662L31.852 4.38867L31.6846 4.04102H25.6819V13.984L25 14.6375V17.1974C25.347 17.1974 25.6938 17.399 25.8169 17.8023C26.9726 21.5919 29.0047 28.6051 29.5464 32.7411C30.0982 36.9558 31.4778 44.9412 32.2137 49.1189C32.3035 49.6289 32.7464 50 33.2643 50H39.7025C40.336 50.0001 40.8301 49.4514 40.7636 48.8213Z" fill="#85AFE4"/>
<path d="M27.8616 4.53833H25.3968L25 5.03521V14.6374H26.8294C27.7092 14.6374 28.4223 13.9242 28.4223 13.0445V4.86323L27.8616 4.53833Z" fill="#0067C7"/>
<path d="M36.1313 3.42886L35.6836 3.19849L32.0954 4.06616L31.852 4.38862C31.8875 6.42446 32.4632 10.7158 36.8053 9.38882C36.5491 7.10552 36.3163 5.05288 36.1313 3.42886Z" fill="#5291D9"/>
<path d="M17.7509 3.85649L14.3975 3.1355L13.8688 3.42876C13.6837 5.05288 13.451 7.10532 13.1948 9.38872C17.5369 10.7157 18.1126 6.42446 18.1481 4.38853L17.7509 3.85649Z" fill="#0067C7"/>
<path d="M25 1.54634C22.9661 1.54634 20.9804 1.29312 19.282 0.973389L18.9329 1.23667L18.4973 1.14956L18.2766 4.18452L18.849 4.25054L19.0173 4.53462C20.8821 4.83032 22.9224 5.03511 24.9999 5.03511L25.3967 4.53813V1.99546L25 1.54634Z" fill="#0067C7"/>
<path d="M18.4973 1.14959L17.9898 1.04813L17.7918 0.662384C16.8362 0.443243 16.0275 0.220391 15.4303 0.0424617C14.8383 -0.134003 14.231 0.265216 14.1605 0.878888C14.0874 1.51512 13.9879 2.38367 13.8688 3.42889C14.9128 3.71092 16.1532 4.01024 17.5236 4.27303L17.7592 4.12488L18.2766 4.18455L18.4973 1.14959Z" fill="#0054A4"/>
<path d="M31.1312 4.23384L32.0953 4.06616L32.4538 4.27729C33.833 4.01343 35.0815 3.71245 36.1312 3.42886C36.012 2.38306 35.9124 1.51421 35.8394 0.87788C35.769 0.264696 35.1624 -0.134425 34.571 0.0419422C33.969 0.221434 33.1519 0.446434 32.1857 0.667431L32.0282 0.88286L30.8545 1.09829L30.6954 0.977587C29.002 1.29536 27.0248 1.54624 24.9999 1.54624V5.0352C27.069 5.0352 29.1012 4.83198 30.9599 4.53823L31.1312 4.23384Z" fill="#0972D0"/>
<path d="M30.96 4.53838C31.4721 4.45742 31.971 4.36982 32.4538 4.27734L32.1857 0.66748C31.7211 0.77373 31.2222 0.878906 30.6954 0.977734L30.96 4.53838Z" fill="#5291D9"/>
<path d="M17.5237 4.273C18.0064 4.36558 18.5054 4.45347 19.0175 4.53472L19.282 0.973486C18.7551 0.874268 18.2562 0.768799 17.7919 0.662354L17.5237 4.273Z" fill="#0972D0"/>
</g>
<defs>
<clipPath id="clip0_115_658">
<rect width="50" height="50" fill="white"/>
</clipPath>
</defs>
</svg>
