<svg width="50" height="50" viewBox="0 0 50 50" fill="none" xmlns="http://www.w3.org/2000/svg">
<g clip-path="url(#clip0_118_922)">
<path d="M32.2883 0.326855L31.997 0C31.997 0 29.546 3.28926 25 3.28926C23.9769 3.28926 23.061 3.12187 22.2542 2.86367L21.9259 3.36191L23.2589 6.9083L26.101 8.46768L30.9973 9.21855L31.5085 8.79463L32.6151 5.80586L32.8163 3.00986L32.2883 0.326855Z" fill="#00D3B5"/>
<path d="M31.6769 8.33994C31.0126 8.4918 30.2671 8.57656 29.4267 8.57656C24.4762 8.57656 22.7533 5.69414 22.2542 2.86367C19.476 1.97451 18.003 0 18.003 0L17.3986 0.720898L17.1723 3.63848L17.713 7.31055L19.8131 10.2532L21.8755 11.2845L25 11.6114L28.4149 11.3599L31.5086 8.79443L31.6769 8.33994Z" fill="#00B8A0"/>
<path d="M11.0761 2.16895C11.0761 2.16895 6.8 6.50791 3.61309 12.2648C3.26543 12.8929 3.21055 13.6427 3.46719 14.3131C4.26816 16.4056 6.4584 20.8398 10.8084 21.4942L11.8654 19.9365V3.28623L11.0761 2.16895Z" fill="#5CE2C5"/>
<path d="M46.3869 12.2648C43.2 6.50801 38.9239 2.16895 38.9239 2.16895L37.8215 4.16963L38.3245 19.9867L39.1916 21.4941C43.5416 20.8397 45.7317 16.4055 46.5328 14.313C46.7894 13.6427 46.7346 12.8928 46.3869 12.2648Z" fill="#8AECDC"/>
<path d="M41.2098 46.1594C40.6235 41.541 39.1339 28.7042 39.1339 17.4924C39.1339 3.5335 38.924 2.16904 38.924 2.16904L31.997 0C31.997 0 34.7258 11.1252 25 11.1252C21.6098 11.1252 19.734 9.77285 18.7274 8.01162H17.734L15.9231 11.0665L14.3301 41.9188L14.1624 48.5756L14.6694 49.1645C21.638 50.2987 28.7474 50.2785 35.7108 49.1022C37.0284 48.8797 38.3698 48.6271 39.6722 48.3429C40.6726 48.1244 41.3387 47.1751 41.2098 46.1594Z" fill="#5CE2C5"/>
<path d="M14.6695 49.1644C15.3526 43.1854 16.3331 33.02 16.3331 23.9238C16.3331 17.7605 16.374 14.0524 16.4197 11.8331C16.453 10.2173 17.3516 8.77197 18.7272 8.01162C16.8462 4.72041 18.003 0 18.003 0L11.076 2.16904C11.076 2.16904 10.8661 3.5335 10.8661 17.4924C10.8661 28.7042 9.37645 41.541 8.79022 46.1594C8.66132 47.1751 9.32743 48.1244 10.3277 48.3428C11.6301 48.6271 12.9714 48.8796 14.2891 49.1021C14.4159 49.1235 14.5428 49.1437 14.6695 49.1644Z" fill="#00D3B5"/>
</g>
<defs>
<clipPath id="clip0_118_922">
<rect width="50" height="50" fill="white"/>
</clipPath>
</defs>
</svg>
