<svg width="51" height="50" viewBox="0 0 51 50" fill="none" xmlns="http://www.w3.org/2000/svg">
<g clip-path="url(#clip0_112_499)">
<path d="M44.4336 50H39.0264L35.517 43.6785H44.4336V50Z" fill="#C4DAFC"/>
<path d="M11.7838 50H6.37657V43.6785H16.2925L11.7838 50Z" fill="#D9E9FD"/>
<path d="M25.365 4.97383L18.6206 3.125L14.2704 5.18975L10.4327 7.0293C6.44581 8.90156 3.86964 12.9575 3.86964 17.3622V45.1433H13.2464L14.7091 50H25.3667L27.5413 28.0253L25.365 4.97383Z" fill="#EBF3FE"/>
<path d="M46.9405 17.3622C46.9405 12.9575 44.3644 8.90156 40.3774 7.0293L36.463 5.18975L32.1128 3.125L25.365 4.97383L25.3667 50H36.0644L37.5453 45.1433H46.9404V17.3622H46.9405Z" fill="#D9E9FD"/>
<path d="M11.7838 50H14.7091V45.1432L13.2464 43.342L11.7838 45.1432V50Z" fill="#C4DAFC"/>
<path d="M11.7838 17.0757H14.7091V45.1433H11.7838V17.0757Z" fill="#D9E9FD"/>
<path d="M17.8129 0L20.2888 3.90605L25.365 4.97383L27.5413 3.06348L25.3667 0L17.8129 0Z" fill="#C4DAFC"/>
<path d="M25.3667 0L25.365 4.97383L30.6255 3.8665L32.9204 0H25.3667Z" fill="#B4C5F2"/>
<path d="M30.8152 20.9907H37.5216V23.9204H30.8152V20.9907Z" fill="#B4C5F2"/>
<path d="M36.0644 45.1432V50H39.0264V45.1432L37.5453 43.342L36.0644 45.1432Z" fill="#B4C5F2"/>
<path d="M36.0644 17.0757H39.0264V45.1433H36.0644V17.0757Z" fill="#C4DAFC"/>
<path d="M17.8129 0L25.365 4.97383L20.7512 9.0331L14.2704 5.18975L17.8129 0Z" fill="#D9E9FD"/>
<path d="M32.9204 0L25.365 4.97383L29.9821 9.0331L36.4629 5.18975L32.9204 0Z" fill="#C4DAFC"/>
</g>
<defs>
<clipPath id="clip0_112_499">
<rect width="50" height="50" fill="white" transform="translate(0.40509)"/>
</clipPath>
</defs>
</svg>
