<svg width="50" height="50" viewBox="0 0 50 50" fill="none" xmlns="http://www.w3.org/2000/svg">
<g clip-path="url(#clip0_115_714)">
<path d="M49.2836 43.2724C48.6021 39.0215 46.6613 26.7941 46.0147 21.4063C45.4697 16.8653 43.5753 10.5604 42.4536 7.08945C42.2295 6.3959 41.8561 5.76074 41.3592 5.22754L40.2359 6.03848L38.5173 10.5847L45.6434 44.7461L46.7355 45.2422L48.035 45.0184C48.8593 44.8764 49.416 44.0982 49.2836 43.2724Z" fill="#E79380"/>
<path d="M24.3139 0V0.782031L27.4064 6.43525L30.3641 0.832324V0.00117188V0L24.3139 0Z" fill="#D9694B"/>
<path d="M24.3139 0H19.636V0.00117188V0.404785L23.0325 7.14522H27.0316L27.4832 6.28965L24.3139 0Z" fill="#C55639"/>
<path d="M45.8958 43.8497L39.0016 9.30396L37.1745 14.1373L36.5136 19.0668L37.1745 20.5063L41.9736 44.5538C42.1357 45.3654 42.9147 45.9001 43.7303 45.7597L46.7356 45.2421C46.3166 44.9016 46.0095 44.4192 45.8958 43.8497Z" fill="#DF7E66"/>
<path d="M11.8454 10.989L11.6643 11.0856L11.1162 12.1867L10.0882 12.5611L7.11123 18.5433L3.64941 43.4802L4.11895 44.9474L4.68994 45.4877L6.26992 45.7598C7.08555 45.9002 7.86455 45.3654 8.02656 44.5539L12.8257 20.5064L13.5255 18.1366L12.3686 12.3768L11.8454 10.989Z" fill="#E79380"/>
<path d="M8.64083 5.22754C8.14395 5.76074 7.77042 6.3959 7.5464 7.08945C6.42472 10.5604 4.53028 16.8653 3.98536 21.4063C3.33878 26.7944 1.39786 39.0227 0.716415 43.2729C0.584091 44.0985 1.14063 44.8764 1.96466 45.0183L4.68995 45.4876C4.2212 44.7446 4.34532 43.9664 4.34532 43.9664C4.34532 43.9664 6.78497 29.3787 7.74073 23.5939C8.69649 17.8092 11.1162 12.1865 11.1162 12.1865L12.0935 11.6468L9.90372 5.83731L8.64083 5.22754Z" fill="#DF7E66"/>
<path d="M37.1695 22.5034C37.0494 19.2109 37.5538 15.9264 38.6579 12.8222L41.3593 5.22764C40.6385 4.4542 39.746 3.86094 38.7538 3.4959L33.3209 2.17627L32.7911 2.56777L29.9461 8.25195L27.5889 7.19561H22.179L20.291 8.25195L19.7252 7.16387L18.9479 7.86074L18.2705 7.56445L11.6642 11.0856L11.1161 12.1867L11.3422 12.8222C12.4463 15.9263 12.9507 19.2109 12.8306 22.5034C12.5304 30.7316 11.4605 43.7904 11.0734 48.358C10.9985 49.242 11.6959 50.0001 12.5831 50.0001H23.3425L23.5608 49.7011H26.5202L26.6578 50.0001H37.419C38.3051 50.0001 39.0017 49.2425 38.9268 48.3596C38.5398 43.7934 37.4697 30.7325 37.1695 22.5034Z" fill="#EEE1DD"/>
<path d="M18.9479 7.86074L19.2085 6.16992L17.3986 2.68945L16.6836 2.15723L11.4872 3.40723C10.4178 3.80068 9.44658 4.42187 8.64081 5.22764H8.64072L11.1161 12.1866L18.9479 7.86074Z" fill="#E1D3CE"/>
<path d="M26.6387 6.91318L26.53 6.8877H23.47L23.3424 7.08662V7.25313V50.0001H26.6577V7.25332V7.11182L26.6387 6.91318Z" fill="#ECAA9A"/>
<path d="M19.911 18.1364H16.0546C15.6379 18.1364 15.3001 17.7986 15.3001 17.3819C15.3001 16.9651 15.6379 16.6274 16.0546 16.6274H19.911C20.3277 16.6274 20.6655 16.9652 20.6655 17.3819C20.6655 17.7986 20.3277 18.1364 19.911 18.1364Z" fill="#CCBEB9"/>
<path d="M33.9456 18.1364H30.0891C29.6724 18.1364 29.3346 17.7986 29.3346 17.3819C29.3346 16.9651 29.6724 16.6274 30.0891 16.6274H33.9456C34.3623 16.6274 34.7001 16.9652 34.7001 17.3819C34.7001 17.7986 34.3623 18.1364 33.9456 18.1364Z" fill="#CCBEB9"/>
<path d="M23.3787 6.34884L20.4846 0.524626C20.2337 0.0198409 19.5994 -0.154475 19.1259 0.151286L17.2859 1.33927C16.6855 1.72697 16.4624 2.49767 16.763 3.14611L19.0752 8.13537C19.3837 8.80119 20.187 9.07277 20.8362 8.73078L22.9729 7.60539C23.427 7.36623 23.6071 6.80841 23.3787 6.34884Z" fill="#DF7E66"/>
<path d="M26.6213 6.34884L29.5154 0.524626C29.7663 0.0198409 30.4006 -0.154475 30.8741 0.151286L32.7141 1.33927C33.3144 1.72697 33.5376 2.49767 33.237 3.14611L30.9248 8.13537C30.6163 8.80119 29.813 9.07277 29.1638 8.73078L27.027 7.60539C26.573 7.36623 26.3929 6.80841 26.6213 6.34884Z" fill="#DF7E66"/>
</g>
<defs>
<clipPath id="clip0_115_714">
<rect width="50" height="50" fill="white"/>
</clipPath>
</defs>
</svg>
