<svg width="50" height="50" viewBox="0 0 50 50" fill="none" xmlns="http://www.w3.org/2000/svg">
<path d="M16.531 0H10.4557V19.4187L7.04523 24.7815V29.6442L9.74347 33.5516L7.04523 37.459V50H22.6728L24.9968 47.6759L29.2361 32.3035L24.9968 7.49307L16.531 0Z" fill="#696B7E"/>
<path d="M39.538 19.4187V0H33.4754L24.9968 7.49307V47.6759L27.3209 50H42.9548V37.459L40.0334 33.5516L42.9548 29.6442V24.7815L39.538 19.4187Z" fill="#4E5167"/>
<path d="M16.531 0V12.9033L24.9968 21.3755L28.7721 9.86172L24.9968 0H16.531Z" fill="#4E5167"/>
<path d="M24.9968 0V21.3755L33.4754 12.9033V0H24.9968Z" fill="#383D55"/>
<path d="M12.8318 37.459H7.04523V29.6443H17.0678V33.2231C17.0678 35.5588 15.1675 37.459 12.8318 37.459Z" fill="#4E5167"/>
<path d="M42.9548 37.459H37.1745C34.8389 37.459 32.9386 35.5588 32.9386 33.2231V29.6443H42.9548V37.459Z" fill="#383D55"/>
</svg>
