<svg width="51" height="50" viewBox="0 0 51 50" fill="none" xmlns="http://www.w3.org/2000/svg">
<g clip-path="url(#clip0_112_584)">
<path d="M18.0943 0H11.5565L0.40509 40.1246C0.40509 40.1246 4.09923 43.3771 10.3836 44.9151L23.5259 44.7408L25.4051 44.7561V2.70156L18.0943 0Z" fill="#8C4D62"/>
<path d="M50.4051 40.1246L39.2536 0H33.5451L25.5032 2.73779L25.4051 2.70156V44.7561L40.4266 44.8783C46.6092 43.6136 50.4051 40.1246 50.4051 40.1246Z" fill="#6A2D4F"/>
<path d="M18.0943 0L10.3836 44.9151L11.0028 45.4585C14.1545 48.2237 19.5379 49.92 25.4051 49.9971L28.9988 25.5731L25.4051 0H18.0943Z" fill="#A66B6B"/>
<path d="M33.5451 0H25.4051V49.9971C25.4087 49.9971 25.4122 49.9973 25.4157 49.9973C25.5532 49.9991 25.6896 49.9999 25.8261 49.9999C31.7701 49.9998 36.8776 48.3352 39.884 45.4066L40.4265 44.8782L33.5451 0Z" fill="#8C4D62"/>
<path d="M23.9393 3.63086V6.56143H25.4051L26.8709 5.09619L25.4051 3.63086H23.9393Z" fill="#E7D0A8"/>
<path d="M25.4051 3.63086H26.8709V6.56133H25.4051V3.63086Z" fill="#C9AC93"/>
<path d="M23.9393 12.4224H25.4051L26.5905 10.9572L25.4051 9.49194H23.9393V12.4224Z" fill="#E7D0A8"/>
<path d="M25.4051 9.49194H26.8709V12.4224H25.4051V9.49194Z" fill="#C9AC93"/>
</g>
<defs>
<clipPath id="clip0_112_584">
<rect width="50" height="50" fill="white" transform="translate(0.40509)"/>
</clipPath>
</defs>
</svg>
