<svg width="46" height="55" viewBox="0 0 46 55" fill="none" xmlns="http://www.w3.org/2000/svg">
<g clip-path="url(#clip0_312_122)">
<path fill-rule="evenodd" clip-rule="evenodd" d="M8.52456 55C8.27089 54.8534 8.12117 54.5718 8.13257 54.2786L9.76913 24.7387L7.85598 30.34C7.68315 30.8585 7.29117 31.2979 6.78418 31.5685C6.25387 31.8502 5.64307 31.918 5.10152 31.7376L1.54022 30.6104C1.50571 30.5991 1.45953 30.588 1.42487 30.5653C0.306883 30.0245 -0.223138 28.92 0.0880136 27.8381C0.0880136 27.8268 0.0995471 27.8156 0.0995471 27.8041L7.59088 5.61258C8.0289 4.17008 9.66548 4.17008 10.2072 4.17008C18.8645 4.17008 27.1329 4.17008 35.7928 4.17008C36.3345 4.17008 37.9711 4.17008 38.4091 5.62406L45.9003 27.8158C45.9003 27.8271 45.9121 27.8382 45.9121 27.8496C46.2231 28.9314 45.693 30.0246 44.5752 30.5768C44.5404 30.5993 44.5061 30.6106 44.4598 30.6219L40.8869 31.749C40.3566 31.918 39.746 31.8619 39.2158 31.58C38.7086 31.3095 38.3167 30.8585 38.1438 30.3515L36.2307 24.7502L37.8675 54.2786C37.8787 54.5753 37.7255 54.8507 37.4721 55H8.52456Z" fill="#D7E4FC"/>
<path fill-rule="evenodd" clip-rule="evenodd" d="M19.5855 54.9998L19.5857 27.6746C19.5857 27.6426 19.5875 27.611 19.5911 27.5801C19.5957 27.5022 19.6126 27.4236 19.6432 27.3467L21.6487 22.0835L15.0216 4.33242C15.0216 4.32094 15.0216 4.32094 15.0101 4.30996L14.9625 4.16984H30.1902L30.1426 4.30996C30.1426 4.32127 30.131 4.33242 30.131 4.33242L21.1993 27.7366V54.9998H19.5855" fill="#A7ACD2"/>
<path fill-rule="evenodd" clip-rule="evenodd" d="M20.0091 27.4626C20.0137 27.3848 20.0305 27.3061 20.0611 27.2294L22.0665 21.966L15.4396 4.21494C15.4396 4.20362 15.4396 4.20362 15.428 4.19231C15.3012 3.82053 15.1514 3.39217 15.1514 2.93003C15.1514 2.68207 15.1514 2.35523 15.3012 2.00575C15.4971 1.22825 15.9928 0.766111 16.5114 0.383019C16.5805 0.326604 16.6613 0.292654 16.7419 0.270187C17.1338 0.146373 17.5718 -0.000240367 18.0442 -0.000240367H27.9558C28.4282 -0.000240367 28.8664 0.146376 29.2466 0.270356C29.3274 0.292656 29.4079 0.33792 29.477 0.383019C29.9957 0.766278 30.4915 1.2171 30.6873 2.00592C30.8373 2.35539 30.8373 2.68224 30.8373 2.9302C30.8373 3.39217 30.6873 3.8207 30.5605 4.19247C30.5605 4.20379 30.549 4.21494 30.549 4.21494L21.6171 27.6192V54.9998H20.0035V27.5571C20.0035 27.5251 20.0055 27.4935 20.0091 27.4626Z" fill="#7588A4"/>
<path fill-rule="evenodd" clip-rule="evenodd" d="M18.8092 3.38121L22.9468 14.4651L27.1768 3.38121H18.8092Z" fill="#BDD7FB"/>
<path fill-rule="evenodd" clip-rule="evenodd" d="M9.76911 16.6381C9.76911 16.2024 9.40795 15.8491 8.96242 15.8491C8.51683 15.8491 8.15553 16.2024 8.15553 16.6381V29.4629L9.76911 24.7388V16.6381" fill="#A7ACD2"/>
<path fill-rule="evenodd" clip-rule="evenodd" d="M36.2307 16.6496C36.2307 16.2139 36.592 15.8605 37.0375 15.8605C37.483 15.8605 37.8443 16.2139 37.8443 16.6496V29.4744L36.2307 24.7503V16.6496" fill="#A7ACD2"/>
<path fill-rule="evenodd" clip-rule="evenodd" d="M36.8472 35.8736L37.3654 45.2192H30.3601C29.9317 45.2192 29.5912 44.8862 29.5912 44.4674V36.6256C29.5912 36.2066 29.9317 35.8736 30.3601 35.8736H36.8472Z" fill="#7588A4"/>
<path fill-rule="evenodd" clip-rule="evenodd" d="M24.5382 33.6177C23.1871 33.6177 22.1215 32.5757 22.1215 31.2544C22.1215 29.9761 23.2309 28.8911 24.5382 28.8911C25.8455 28.8911 26.9548 29.976 26.9548 31.2544C26.9548 32.5757 25.8894 33.6177 24.5382 33.6177Z" fill="#7286A4"/>
<path fill-rule="evenodd" clip-rule="evenodd" d="M24.5382 41.4592C23.231 41.4592 22.1215 40.3744 22.1215 39.0959C22.1215 37.7746 23.1871 36.7327 24.5382 36.7327C25.8894 36.7327 26.9548 37.7746 26.9548 39.0959C26.9548 40.3744 25.8455 41.4592 24.5382 41.4592Z" fill="#7286A4"/>
<path fill-rule="evenodd" clip-rule="evenodd" d="M24.5382 49.1936C23.231 49.1936 22.1215 48.1087 22.1215 46.8303C22.1215 45.5519 23.2309 44.467 24.5382 44.467C25.8455 44.467 26.9548 45.5519 26.9548 46.8303C26.9548 48.1087 25.8455 49.1936 24.5382 49.1936" fill="#7286A4"/>
<path fill-rule="evenodd" clip-rule="evenodd" d="M9.13897 35.8736L8.62093 45.2192H15.6261C16.0545 45.2192 16.3951 44.8862 16.3951 44.4674V36.6256C16.3951 36.2066 16.0545 35.8736 15.6261 35.8736H9.13897Z" fill="#7588A4"/>
<path fill-rule="evenodd" clip-rule="evenodd" d="M26.5936 30.0329C26.1628 29.3546 25.3928 28.8909 24.5382 28.8909C23.2309 28.8909 22.1215 29.976 22.1215 31.2542C22.1215 32.2078 22.6764 33.0159 23.4933 33.3918C23.2743 33.0352 23.149 32.6152 23.149 32.1622C23.149 30.8839 24.2582 29.7989 25.5655 29.7989C25.9302 29.7989 26.2794 29.8833 26.5936 30.0329" fill="#91A9D0"/>
<path fill-rule="evenodd" clip-rule="evenodd" d="M26.5936 37.8747C26.1628 37.1964 25.3928 36.7327 24.5382 36.7327C23.2309 36.7327 22.1215 37.8178 22.1215 39.096C22.1215 40.0496 22.6764 40.8577 23.4933 41.2336C23.2743 40.877 23.149 40.457 23.149 40.004C23.149 38.7257 24.2582 37.6407 25.5655 37.6407C25.9302 37.6407 26.2794 37.7251 26.5936 37.8747" fill="#91A9D0"/>
<path fill-rule="evenodd" clip-rule="evenodd" d="M26.5936 45.6089C26.1628 44.9307 25.3928 44.4671 24.5382 44.4671C23.2309 44.4671 22.1215 45.5521 22.1215 46.8304C22.1215 47.784 22.6764 48.5921 23.4933 48.968C23.2743 48.6114 23.149 48.1913 23.149 47.7384C23.149 46.4601 24.2582 45.3751 25.5655 45.3751C25.9302 45.3751 26.2794 45.4594 26.5936 45.6089" fill="#91A9D0"/>
</g>
<defs>
<clipPath id="clip0_312_122">
<rect width="46" height="55" fill="white"/>
</clipPath>
</defs>
</svg>
