<svg width="50" height="50" viewBox="0 0 50 50" fill="none" xmlns="http://www.w3.org/2000/svg">
<g clip-path="url(#clip0_115_686)">
<path d="M22.0281 0C22.0281 0 20.7596 3.48057 20.1657 3.10967V48.1156C21.6343 47.2228 23.298 46.7764 24.9616 46.7764L27.1271 24.0578L24.9616 1.17168C23.8721 1.15693 22.7834 0.750488 22.0281 0V0Z" fill="#85AFE4"/>
<path d="M27.8913 0.0012207C27.1335 0.811963 26.0472 1.18628 24.9616 1.17163V46.7763C26.6253 46.7763 28.289 47.2227 29.7575 48.1156C29.7575 33.5053 29.7575 16.6555 29.7575 2.04526C29.1915 2.39868 27.8913 0.0012207 27.8913 0.0012207Z" fill="#6590C8"/>
<path d="M8.76114 7.90083V31.0151H13.7523L16.6819 50H22.0319V0.0012207L16.6324 0.0127441C12.2825 0.0220215 8.76114 3.55083 8.76114 7.90083Z" fill="#C9D3E2"/>
<path d="M33.3675 0.0128418L27.8912 0.0012207V50H33.318L36.2477 31.0151H41.2388V7.90093C41.2389 3.55093 37.7175 0.0220215 33.3675 0.0128418Z" fill="#C9D3E2"/>
<path d="M33.3181 8.77319H36.2478V50H33.3181V8.77319Z" fill="#85AFE4"/>
<path d="M13.7523 8.77319H16.6819V50H13.7523V8.77319Z" fill="#85AFE4"/>
</g>
<defs>
<clipPath id="clip0_115_686">
<rect width="50" height="50" fill="white"/>
</clipPath>
</defs>
</svg>
