<svg width="48" height="51" viewBox="0 0 48 51" fill="none" xmlns="http://www.w3.org/2000/svg">
<path d="M47.0929 43.7406C46.4323 39.5958 44.5512 27.6732 43.9246 22.4195C43.3964 17.9917 41.5602 11.8439 40.4731 8.45957C40.2559 7.78337 39.8939 7.16394 39.4123 6.64404L38.3586 7.21945L36.5417 11.3491L43.2185 44.3293L43.7718 45.4426L44.6528 45.6561L45.8827 45.443C46.6816 45.3048 47.2212 44.546 47.0929 43.7406Z" fill="#85AFE4"/>
<path d="M22.8293 0.408592L25.6418 16.3046L28.3542 1.39141L28 0.408592H27.9999C27.3666 0.138915 26.6858 0 25.998 0H23.3146L22.8293 0.408592Z" fill="#0067C7"/>
<path d="M10.651 13.6946L10.3181 14.049L9.7172 14.1521L8.04044 16.3045L6.36769 21.8439L3.16115 44.9195L3.77765 45.8843L5.40167 46.1657C6.1922 46.3027 6.94728 45.7811 7.10421 44.9897L11.7559 21.5416L12.7353 20.3426L10.7472 14.017L10.651 13.6946Z" fill="#85AFE4"/>
<path d="M7.69972 6.64404C7.21818 7.16394 6.85607 7.78327 6.63888 8.45957C5.55177 11.8439 3.71555 17.9918 3.18733 22.4195C2.56057 27.6734 0.679321 39.5969 0.0188729 43.7412C-0.109447 44.5462 0.430005 45.3047 1.22873 45.4431L3.89934 45.9058C3.46574 45.2106 3.5467 44.3464 3.5467 44.3464C3.5467 44.3464 5.79347 29.3506 7.10138 22.519C8.40929 15.6874 10.318 14.0494 10.318 14.0494L10.7124 13.9008L8.75333 7.33764L7.69972 6.64404Z" fill="#5291D9"/>
<path d="M43.6726 44.1744L36.9683 10.3789L35.824 12.9799L34.6168 19.4319L35.356 21.5418L40.0076 44.99C40.1646 45.7813 40.9197 46.3029 41.7102 46.1659L44.6528 45.6561C44.1622 45.3228 43.7973 44.8029 43.6726 44.1744Z" fill="#5291D9"/>
<path d="M23.3146 0H21.1138C20.4261 0 19.7453 0.138915 19.1119 0.408592L18.7213 1.51795L23.2317 25.9599H23.8856L25.8519 15.149L23.3146 0Z" fill="#0067C7"/>
<path d="M36.3646 40.0539L35.3043 39.1846V36.3845L36.0591 35.857C35.7581 31.5648 35.4807 27.0605 35.3512 23.4892C35.2348 20.2788 35.7237 17.0761 36.7939 14.0493L38.3586 9.62415L38.071 9.02448L32.1269 7.33765L31.9761 8.86424L28.3543 10.8546L29.964 15.0042L21.6556 33.1121V48.8838L22.272 50.3004H35.593C36.4519 50.3004 37.127 49.5617 37.0545 48.7007C36.9022 46.8935 36.6409 43.7215 36.3646 40.0539Z" fill="#0972D0"/>
<path d="M18.2924 10.7461L17.8239 11.2207L16.9774 11.1161L10.7124 13.6294L10.318 14.0493C11.3881 17.0761 11.8771 20.2788 11.7606 23.4892C11.6312 27.0604 11.3538 31.5647 11.0528 35.857L11.528 36.4182L11.2262 39.3533L10.7472 40.054C10.471 43.7206 10.2097 46.8919 10.0574 48.6995C9.98496 49.5613 10.6608 50.3004 11.5208 50.3004H22.2721V32.8615L23.3365 28.8189L17.1619 15.08L18.2924 10.7461Z" fill="#0067C7"/>
<path d="M18.2062 11.0764L18.4027 10.3229L15.284 8.92287L15.1666 7.21924L8.97941 9.02406L8.75344 9.62383L10.3181 14.049L18.2062 11.0764Z" fill="#5291D9"/>
<path d="M15.5421 3.63892L10.4586 4.86911C9.42209 5.25275 8.48078 5.85842 7.69973 6.64417L7.69963 6.64426L8.75334 9.62426L14.6014 7.88733L14.8731 7.54014L15.8036 4.07374L15.5421 3.63892Z" fill="#0067C7"/>
<path d="M20.8209 10.0911L20.4315 9.88452L18.4027 10.6342L17.8239 11.2205C17.8168 11.2544 17.8078 11.2882 17.797 11.3219L16.6115 15.0036C16.5203 15.2869 16.5588 15.5964 16.7165 15.8484L22.9649 28.9349L23.198 28.6924L23.6592 26.0779L23.5559 25.5872L20.8209 10.0911Z" fill="#5291D9"/>
<path d="M17.7309 1.36175L15.4213 3.76437C14.8954 4.31139 14.6015 5.04261 14.6015 5.8036V8.56246C14.6015 9.01035 14.8963 9.4041 15.3243 9.52779L17.1228 10.0472C17.6315 10.1941 17.9319 10.7113 17.8239 11.2206L20.8209 10.0912L19.1119 0.408691C18.5926 0.629836 18.1228 0.953939 17.7309 1.36175Z" fill="#5291D9"/>
<path d="M25.2884 36.8311C24.8717 36.8311 24.5339 36.4912 24.5339 36.0719V35.6417C24.5339 35.2225 24.8717 34.8826 25.2884 34.8826C25.7051 34.8826 26.0429 35.2225 26.0429 35.6417V36.0719C26.0429 36.4912 25.7051 36.8311 25.2884 36.8311Z" fill="#5291D9"/>
<path d="M25.2884 43.3277C24.8717 43.3277 24.5339 42.9878 24.5339 42.5685V42.1383C24.5339 41.719 24.8717 41.3792 25.2884 41.3792C25.7051 41.3792 26.0429 41.719 26.0429 42.1383V42.5685C26.0429 42.9878 25.7051 43.3277 25.2884 43.3277Z" fill="#5291D9"/>
<path d="M36.059 35.8569H30.5278C30.136 35.8569 29.8156 36.1793 29.8156 36.5733V38.7046C29.8156 39.4463 30.4189 40.0531 31.1562 40.0531H36.3647C36.2632 38.7069 36.1598 37.2938 36.059 35.8569Z" fill="#5291D9"/>
<path d="M11.0529 35.8569H16.5842C16.976 35.8569 17.2964 36.1793 17.2964 36.5733V38.7046C17.2964 39.4463 16.6931 40.0531 15.9558 40.0531H10.7474C10.8487 38.7069 10.9521 37.2938 11.0529 35.8569Z" fill="#0972D0"/>
<path d="M36.8869 4.95509L31.5917 3.66113V3.97207L32.2359 5.36368L32.2611 7.33728L32.5105 7.88685L38.3587 9.62379L39.4124 6.64379C38.7136 5.88958 37.8486 5.31112 36.8869 4.95509Z" fill="#5291D9"/>
<path d="M31.6906 3.76437L29.381 1.36175C28.9891 0.953939 28.5193 0.629836 28.0001 0.408691L22.2722 32.8615L30.3954 15.8484C30.5532 15.5964 30.5917 15.287 30.5004 15.0036L29.315 11.322C29.141 10.7818 29.4467 10.204 29.9892 10.0473L31.7878 9.52789C32.2157 9.4043 32.5105 9.01054 32.5105 8.56265V5.8038C32.5104 5.04271 32.2165 4.31149 31.6906 3.76437Z" fill="#85AFE4"/>
</svg>
