<svg width="50" height="50" viewBox="0 0 50 50" fill="none" xmlns="http://www.w3.org/2000/svg">
<path d="M36.5673 48.8513C36.384 46.2593 35.9642 39.8266 35.9642 35.2616C35.9642 31.3585 34.7215 27.571 33.897 25.4874L33.3947 25.042H19.1559V25.0713L19.415 25.3312L19.6771 25.4618L19.9009 25.5044L19.9894 25.7965L18.8575 29.0745L18.0023 33.87L17.885 49.3799L18.3104 49.7907L18.7373 50H23.3939L23.6697 49.6817H26.1765L26.6062 50H35.4963C36.119 50 36.6112 49.4726 36.5673 48.8513Z" fill="#FF72C7"/>
<path d="M18.1366 48.8513C18.2753 46.2593 18.5928 39.8266 18.5928 35.2616C18.5928 31.3585 19.5327 27.571 20.1563 25.4874L20.5656 25.042H16.6441L16.103 25.4874C15.2785 27.571 14.0358 31.3586 14.0358 35.2616C14.0358 39.8266 13.6161 46.2592 13.4327 48.8513C13.3888 49.4726 13.881 50 14.5037 50H18.9468C18.4757 50 18.1034 49.4726 18.1366 48.8513Z" fill="#FF4FB9"/>
<path d="M24.4536 0H24.0507V0.419141L27.2617 4.13506L30.3296 0.000683594L24.4536 0Z" fill="#FF72C7"/>
<path d="M19.6529 0.000195313V0.293359L23.1467 4.66563H26.8681L27.3831 3.97148L24.0507 0L19.6529 0.000195313Z" fill="#FF4FB9"/>
<path d="M42.7035 12.7489C41.6174 7.91909 38.5065 5.40649 38.5065 5.40649L37.2849 6.33804L35.6783 10.4963L34.9976 15.862L35.6783 17.7586C38.5264 18.0215 40.989 15.9062 42.1661 14.6723C42.6542 14.1607 42.8587 13.4387 42.7035 12.7489Z" fill="#FF94D5"/>
<path d="M12.2679 5.40649H11.4935C11.4935 5.40649 8.38262 7.91909 7.29649 12.7489C7.14141 13.4387 7.3458 14.1607 7.83389 14.6723C9.01104 15.9062 11.4736 18.0215 14.3217 17.7586L14.7829 16.3314L14.1122 9.85913L12.2679 5.40649Z" fill="#FF72C7"/>
<path d="M32.4371 2.71216L32.087 2.90063C32.087 2.90063 29.2701 6.80747 29.2701 6.77388C29.2701 6.74038 27.3419 4.74302 27.3419 4.74302L26.6073 4.46167L26.5468 4.5229H23.4666L23.3931 4.46167L20.6015 6.77388L19.9469 5.74966C18.7082 6.51938 17.2647 7.41626 17.2647 7.41626L16.998 11.301L19.6688 22.275L19.279 22.5142L19.2574 22.5771H33.5711L34.202 22.275C34.9594 20.8572 35.8614 18.5049 35.8614 15.3352C35.8614 9.87261 38.5068 5.4064 38.5068 5.4064L32.4371 2.71216Z" fill="#FF72C7"/>
<path d="M19.1825 17.4319C19.318 14.3032 18.5706 11.464 17.9081 9.61069C17.4575 8.35024 18.0836 6.95972 19.3294 6.47007L20.1907 6.13149L18.1364 2.91733L17.5629 2.71216L11.4935 5.4064C11.4935 5.4064 14.1389 9.87271 14.1389 15.3352C14.1389 18.505 15.0409 20.8573 15.7983 22.275L16.4728 22.5771H19.8181C19.4011 21.2201 19.0934 19.4917 19.1825 17.4319Z" fill="#FF4FB9"/>
<path d="M23.3939 4.46167H26.6062V22.5772H23.3939V4.46167Z" fill="#FF94D5"/>
<path d="M23.3939 24.9666H26.6062V50H23.3939V24.9666Z" fill="#FF94D5"/>
<path d="M23.1229 3.72703L20.2051 0.249882C19.9171 -0.0933794 19.3852 -0.0810747 19.1132 0.27498L17.8113 1.97986C17.501 2.38631 17.4783 2.94363 17.7547 3.37391L20.0782 6.99207C20.4153 7.51697 21.1652 7.56326 21.5644 7.08387L23.1257 5.20838C23.4833 4.77889 23.482 4.15506 23.1229 3.72703Z" fill="#FF94D5"/>
<path d="M26.8771 3.72703L29.7949 0.249882C30.0829 -0.0933794 30.6148 -0.0810747 30.8868 0.27498L32.1887 1.97986C32.499 2.38631 32.5217 2.94363 32.2453 3.37391L29.9218 6.99207C29.5847 7.51697 28.8348 7.56326 28.4356 7.08387L26.8743 5.20838C26.5167 4.77889 26.518 4.15506 26.8771 3.72703Z" fill="#FF94D5"/>
<path d="M23.1144 22.2751H19.6686L19.2787 22.5143L19.1559 22.8727V25.0713L19.4149 25.3312L19.6771 25.4619L19.8112 25.4875H23.1144L23.3092 25.1007V22.5353L23.1144 22.2751Z" fill="#FF94D5"/>
<path d="M19.2406 24.8091V22.9539C19.2406 22.5792 19.5444 22.2754 19.9191 22.2754H15.6811C15.3063 22.2754 15.0025 22.5792 15.0025 22.9539V24.8091C15.0025 25.1838 15.3063 25.4876 15.6811 25.4876H19.9191C19.5443 25.4876 19.2406 25.1838 19.2406 24.8091Z" fill="#FF72C7"/>
<path d="M34.319 22.2751H26.8856L26.7214 22.443V25.2096L26.8856 25.4874H34.319C34.6937 25.4874 34.9976 25.1835 34.9976 24.8088V22.9537C34.9976 22.579 34.6937 22.2751 34.319 22.2751Z" fill="#FF94D5"/>
<path d="M23.1144 22.2751H26.8856V25.4875H23.1144V22.2751Z" fill="#FFC7E9"/>
</svg>
